<svg width="27" height="28" viewBox="0 0 27 28" fill="none" xmlns="http://www.w3.org/2000/svg">
<path d="M13.4434 27.1143C20.8329 27.1143 26.8232 21.0916 26.8232 13.6622C26.8232 6.23281 20.8329 0.210083 13.4434 0.210083C6.05385 0.210083 0.0634766 6.23281 0.0634766 13.6622C0.0634766 21.0916 6.05385 27.1143 13.4434 27.1143Z" fill="#DBD1D1"/>
<path d="M18.7242 8.35263C19.1161 8.74664 19.1161 9.38544 18.7242 9.77945L14.8625 13.6622L18.7242 17.5449C19.0834 17.9061 19.1133 18.473 18.814 18.8684L18.7242 18.9717C18.3323 19.3658 17.6969 19.3658 17.305 18.9717L13.4431 15.0892L9.58123 18.9717C9.18934 19.3658 8.55397 19.3658 8.16208 18.9717C7.77019 18.5777 7.77019 17.9389 8.16208 17.5449L12.0237 13.6622L8.16208 9.77945C7.80285 9.41828 7.77291 8.8514 8.07227 8.45595L8.16208 8.35263C8.55397 7.95863 9.18934 7.95863 9.58123 8.35263L13.4431 12.2351L17.305 8.35263C17.6969 7.95863 18.3323 7.95863 18.7242 8.35263Z" fill="white"/>
</svg>
