<svg width="27" height="28" viewBox="0 0 27 28" fill="none" xmlns="http://www.w3.org/2000/svg">
<path d="M13.4434 27.1143C20.8329 27.1143 26.8232 21.0916 26.8232 13.6622C26.8232 6.23281 20.8329 0.210083 13.4434 0.210083C6.05385 0.210083 0.0634766 6.23281 0.0634766 13.6622C0.0634766 21.0916 6.05385 27.1143 13.4434 27.1143Z" fill="#DBD1D1"/>
<path d="M18.7247 8.35263C19.1165 8.74664 19.1165 9.38544 18.7247 9.77945L14.863 13.6622L18.7247 17.5449C19.0839 17.9061 19.1138 18.473 18.8145 18.8684L18.7247 18.9717C18.3328 19.3658 17.6974 19.3658 17.3055 18.9717L13.4436 15.0892L9.58172 18.9717C9.18983 19.3658 8.55446 19.3658 8.16257 18.9717C7.77068 18.5777 7.77068 17.9389 8.16257 17.5449L12.0242 13.6622L8.16257 9.77945C7.80334 9.41828 7.7734 8.8514 8.07276 8.45595L8.16257 8.35263C8.55446 7.95863 9.18983 7.95863 9.58172 8.35263L13.4436 12.2351L17.3055 8.35263C17.6974 7.95863 18.3328 7.95863 18.7247 8.35263Z" fill="white"/>
</svg>
