<svg width="24" height="24" viewBox="0 0 24 24" fill="none" xmlns="http://www.w3.org/2000/svg">
<path d="M20.3789 4.87894L19.0749 3.57497C17.9217 2.42176 16.0585 2.40106 14.8799 3.52837L13.3786 4.96443L18.9573 10.5432L20.3789 9.12159C21.5505 7.95001 21.5505 6.05052 20.3789 4.87894Z" fill="#01BBD6"/>
<path fill-rule="evenodd" clip-rule="evenodd" d="M6.18299 11.8472L11.933 6.34721L17.5431 11.9574L11.6267 17.8738C11.2178 18.2827 10.6994 18.5647 10.1339 18.6859L5.48891 19.6813C4.78542 19.832 4.1577 19.2128 4.2988 18.5073L5.31492 13.4268C5.43553 12.8237 5.73857 12.2723 6.18299 11.8472ZM13.2073 12.2074C13.5978 11.8168 13.5978 11.1837 13.2073 10.7932C12.8168 10.4026 12.1836 10.4026 11.7931 10.7932L9.29311 13.2932C8.90259 13.6837 8.90259 14.3168 9.29311 14.7074C9.68363 15.0979 10.3168 15.0979 10.7073 14.7074L13.2073 12.2074Z" fill="#01BBD6"/>
</svg>
