<svg width="32" height="32" viewBox="0 0 32 32" fill="none" xmlns="http://www.w3.org/2000/svg">
<path fill-rule="evenodd" clip-rule="evenodd" d="M4 16C4 22.6274 9.37258 28 16 28H25.3333C26.8061 28 28 26.8061 28 25.3333V16C28 9.37258 22.6274 4 16 4C9.37258 4 4 9.37258 4 16ZM10.6667 13.3333C10.6667 12.597 11.2636 12 12 12H20C20.7364 12 21.3333 12.597 21.3333 13.3333C21.3333 14.0697 20.7364 14.6667 20 14.6667H12C11.2636 14.6667 10.6667 14.0697 10.6667 13.3333ZM12 17.3333C11.2636 17.3333 10.6667 17.9303 10.6667 18.6667C10.6667 19.403 11.2636 20 12 20H16C16.7364 20 17.3333 19.403 17.3333 18.6667C17.3333 17.9303 16.7364 17.3333 16 17.3333H12Z" fill="white"/>
</svg>
