<svg width="85" height="85" viewBox="0 0 85 85" fill="none" xmlns="http://www.w3.org/2000/svg">
<path fill-rule="evenodd" clip-rule="evenodd" d="M17.7083 14.1667C13.7963 14.1667 10.625 17.3381 10.625 21.2501V63.7501C10.625 67.6621 13.7963 70.8334 17.7083 70.8334H67.2917C71.2037 70.8334 74.375 67.6621 74.375 63.7501V21.2501C74.375 17.3381 71.2037 14.1667 67.2917 14.1667H17.7083ZM59.171 34.3794C60.5541 32.9963 60.5541 30.7539 59.171 29.3707C57.7879 27.9876 55.5454 27.9876 54.1623 29.3707L35.4167 48.1164L30.8377 43.5374C29.4546 42.1543 27.2121 42.1543 25.829 43.5374C24.4459 44.9205 24.4459 47.163 25.829 48.5461L32.9123 55.6294C34.2954 57.0125 36.5379 57.0125 37.921 55.6294L59.171 34.3794Z" fill="white"/>
</svg>
