<svg width="32" height="32" viewBox="0 0 32 32" fill="none" xmlns="http://www.w3.org/2000/svg">
<path fill-rule="evenodd" clip-rule="evenodd" d="M5.33366 5.33325C3.8609 5.33325 2.66699 6.52716 2.66699 7.99992V23.9999C2.66699 25.4727 3.8609 26.6666 5.33366 26.6666H26.667C28.1398 26.6666 29.3337 25.4727 29.3337 23.9999V7.99992C29.3337 6.52716 28.1398 5.33325 26.667 5.33325H5.33366ZM8.94313 9.72378C8.42244 9.20308 7.57822 9.20308 7.05752 9.72378C6.53682 10.2445 6.53682 11.0887 7.05752 11.6094L13.1719 17.7238C14.734 19.2859 17.2667 19.2859 18.8288 17.7238L24.9431 11.6094C25.4638 11.0887 25.4638 10.2445 24.9431 9.72378C24.4224 9.20308 23.5782 9.20308 23.0575 9.72378L16.9431 15.8382C16.4224 16.3589 15.5782 16.3589 15.0575 15.8382L8.94313 9.72378Z" fill="#01BBD6"/>
</svg>
