<svg width="32" height="32" viewBox="0 0 32 32" fill="none" xmlns="http://www.w3.org/2000/svg">
<path fill-rule="evenodd" clip-rule="evenodd" d="M5.33366 5.3335C3.8609 5.3335 2.66699 6.5274 2.66699 8.00016V24.0002C2.66699 25.4729 3.8609 26.6668 5.33366 26.6668H26.667C28.1398 26.6668 29.3337 25.4729 29.3337 24.0002V8.00016C29.3337 6.5274 28.1398 5.3335 26.667 5.3335H5.33366ZM8.94313 9.72402C8.42244 9.20332 7.57822 9.20332 7.05752 9.72402C6.53682 10.2447 6.53682 11.0889 7.05752 11.6096L13.1719 17.724C14.734 19.2861 17.2667 19.2861 18.8288 17.724L24.9431 11.6096C25.4638 11.0889 25.4638 10.2447 24.9431 9.72402C24.4224 9.20332 23.5782 9.20332 23.0575 9.72402L16.9431 15.8384C16.4224 16.3591 15.5782 16.3591 15.0575 15.8384L8.94313 9.72402Z" fill="#01BBD6"/>
</svg>
