<svg width="32" height="32" viewBox="0 0 32 32" fill="none" xmlns="http://www.w3.org/2000/svg">
<path fill-rule="evenodd" clip-rule="evenodd" d="M5.33317 5.3335C3.86041 5.3335 2.6665 6.5274 2.6665 8.00016V24.0002C2.6665 25.4729 3.86041 26.6668 5.33317 26.6668H26.6665C28.1393 26.6668 29.3332 25.4729 29.3332 24.0002V8.00016C29.3332 6.5274 28.1393 5.3335 26.6665 5.3335H5.33317ZM8.94265 9.72402C8.42195 9.20332 7.57773 9.20332 7.05703 9.72402C6.53633 10.2447 6.53633 11.0889 7.05703 11.6096L13.1714 17.724C14.7335 19.2861 17.2662 19.2861 18.8283 17.724L24.9426 11.6096C25.4633 11.0889 25.4633 10.2447 24.9426 9.72402C24.4219 9.20332 23.5777 9.20332 23.057 9.72402L16.9426 15.8384C16.4219 16.3591 15.5777 16.3591 15.057 15.8384L8.94265 9.72402Z" fill="#01BBD6"/>
</svg>
