<svg width="30" height="30" viewBox="0 0 30 30" fill="none" xmlns="http://www.w3.org/2000/svg">
<path d="M12.3928 11.9822L9.22924 15.1458C10.6811 17.3976 12.6024 19.3189 14.8542 20.7708L18.3839 17.2411C18.6183 17.0067 18.9362 16.875 19.2678 16.875H22.5C24.3985 16.875 26.25 18.4507 26.25 20.459V25C26.25 25.1294 26.2303 25.2543 26.1938 25.3717C26.0355 25.8805 25.5609 26.25 25 26.25C21.1315 26.25 17.501 25.2152 14.3741 23.4064C11.1485 21.5405 8.45954 18.8515 6.59364 15.6259C4.78484 12.499 3.75 8.86847 3.75 5C3.75 4.30964 4.30964 3.75 5 3.75H9.375C11.4461 3.75 13.125 5.42893 13.125 7.5V10.2145C13.125 10.8775 12.8616 11.5134 12.3928 11.9822Z" fill="#01BBD6"/>
<path d="M16.25 5C16.25 4.30964 16.8096 3.75 17.5 3.75C22.3325 3.75 26.25 7.66751 26.25 12.5C26.25 13.1904 25.6904 13.75 25 13.75C24.3096 13.75 23.75 13.1904 23.75 12.5C23.75 9.04822 20.9518 6.25 17.5 6.25C16.8096 6.25 16.25 5.69036 16.25 5Z" fill="#01BBD6"/>
<path d="M16.25 10C16.25 9.30964 16.8096 8.75 17.5 8.75C19.5711 8.75 21.25 10.4289 21.25 12.5C21.25 13.1904 20.6904 13.75 20 13.75C19.3096 13.75 18.75 13.1904 18.75 12.5C18.75 11.8096 18.1904 11.25 17.5 11.25C16.8096 11.25 16.25 10.6904 16.25 10Z" fill="#01BBD6"/>
</svg>
