<svg width="21" height="21" viewBox="0 0 21 21" fill="none" xmlns="http://www.w3.org/2000/svg">
<g clip-path="url(#clip0_24_1142)">
<path d="M13.7206 10.753L20.5082 14.9784V6.34912L13.7206 10.753Z" fill="#9092B0"/>
<path d="M0.374268 6.34912V14.9784L7.16192 10.753L0.374268 6.34912Z" fill="#9092B0"/>
<path d="M19.2498 3.83594H1.63261C1.00468 3.83594 0.506365 4.29689 0.411987 4.89044L10.4412 11.3971L20.4704 4.89044C20.3761 4.29689 19.8777 3.83594 19.2498 3.83594Z" fill="#9092B0"/>
<path d="M12.5679 11.5012L10.7873 12.6561C10.6816 12.7243 10.5621 12.7577 10.4413 12.7577C10.3205 12.7577 10.2009 12.7243 10.0952 12.6561L8.31461 11.5L0.414551 16.4206C0.511445 17.0092 1.00724 17.4664 1.63265 17.4664H19.2499C19.8753 17.4664 20.3711 17.0092 20.468 16.4206L12.5679 11.5012Z" fill="#9092B0"/>
</g>
<defs>
<clipPath id="clip0_24_1142">
<rect width="20.1339" height="19.8261" fill="white" transform="translate(0.374268 0.738281)"/>
</clipPath>
</defs>
</svg>
