<svg width="27" height="28" viewBox="0 0 27 28" fill="none" xmlns="http://www.w3.org/2000/svg">
<path d="M11.0638 21.8374C10.8054 21.8379 10.555 21.748 10.3561 21.5831C10.2441 21.4903 10.1516 21.3763 10.0837 21.2476C10.0159 21.119 9.97408 20.9782 9.96072 20.8333C9.94737 20.6885 9.96272 20.5425 10.0059 20.4036C10.0491 20.2647 10.1192 20.1357 10.2123 20.0239L15.1663 14.0968L10.3893 8.15864C10.2974 8.04553 10.2288 7.91539 10.1874 7.77568C10.146 7.63597 10.1327 7.48946 10.1481 7.34457C10.1635 7.19968 10.2074 7.05926 10.2772 6.93139C10.3471 6.80352 10.4415 6.69071 10.5551 6.59946C10.6695 6.49879 10.8035 6.42286 10.9487 6.37643C11.0938 6.33 11.247 6.31407 11.3986 6.32964C11.5502 6.34522 11.697 6.39196 11.8296 6.46694C11.9623 6.54191 12.0781 6.6435 12.1696 6.76533L17.5106 13.4002C17.6733 13.598 17.7622 13.8462 17.7622 14.1023C17.7622 14.3585 17.6733 14.6067 17.5106 14.8045L11.9816 21.4394C11.8707 21.5732 11.7298 21.679 11.5703 21.7481C11.4108 21.8173 11.2373 21.8479 11.0638 21.8374Z" fill="white"/>
</svg>
