<svg width="27" height="28" viewBox="0 0 27 28" fill="none" xmlns="http://www.w3.org/2000/svg">
<path d="M11.064 21.8374C10.8057 21.8379 10.5553 21.748 10.3563 21.5831C10.2444 21.4903 10.1518 21.3763 10.084 21.2476C10.0161 21.119 9.97432 20.9782 9.96097 20.8333C9.94762 20.6885 9.96297 20.5425 10.0061 20.4036C10.0493 20.2647 10.1195 20.1357 10.2126 20.0239L15.1666 14.0968L10.3895 8.15864C10.2977 8.04553 10.2291 7.91539 10.1877 7.77568C10.1463 7.63597 10.1329 7.48946 10.1483 7.34457C10.1637 7.19968 10.2076 7.05926 10.2775 6.93139C10.3473 6.80352 10.4418 6.69071 10.5554 6.59946C10.6698 6.49879 10.8038 6.42286 10.9489 6.37643C11.0941 6.33 11.2473 6.31407 11.3989 6.32964C11.5505 6.34522 11.6972 6.39196 11.8299 6.46694C11.9626 6.54191 12.0783 6.6435 12.1699 6.76533L17.5109 13.4002C17.6735 13.598 17.7624 13.8462 17.7624 14.1023C17.7624 14.3585 17.6735 14.6067 17.5109 14.8045L11.9819 21.4394C11.8709 21.5732 11.73 21.679 11.5706 21.7481C11.4111 21.8173 11.2376 21.8479 11.064 21.8374Z" fill="white"/>
</svg>
