<svg width="27" height="28" viewBox="0 0 27 28" fill="none" xmlns="http://www.w3.org/2000/svg">
<path d="M11.064 21.8373C10.8057 21.8378 10.5553 21.7478 10.3563 21.583C10.2444 21.4902 10.1518 21.3761 10.084 21.2475C10.0161 21.1188 9.97432 20.9781 9.96097 20.8332C9.94762 20.6884 9.96297 20.5423 10.0061 20.4034C10.0493 20.2646 10.1195 20.1355 10.2126 20.0238L15.1666 14.0967L10.3895 8.15852C10.2977 8.04541 10.2291 7.91526 10.1877 7.77556C10.1463 7.63585 10.1329 7.48934 10.1483 7.34445C10.1637 7.19956 10.2076 7.05914 10.2775 6.93127C10.3473 6.8034 10.4418 6.69059 10.5554 6.59934C10.6698 6.49867 10.8038 6.42274 10.9489 6.37631C11.0941 6.32987 11.2473 6.31395 11.3989 6.32952C11.5505 6.3451 11.6972 6.39184 11.8299 6.46681C11.9626 6.54179 12.0783 6.64338 12.1699 6.76521L17.5109 13.4C17.6735 13.5979 17.7624 13.8461 17.7624 14.1022C17.7624 14.3584 17.6735 14.6065 17.5109 14.8044L11.9819 21.4392C11.8709 21.5731 11.73 21.6788 11.5706 21.748C11.4111 21.8172 11.2376 21.8478 11.064 21.8373Z" fill="white"/>
</svg>
