<svg width="27" height="28" viewBox="0 0 27 28" fill="none" xmlns="http://www.w3.org/2000/svg">
<path d="M11.0638 21.8373C10.8054 21.8378 10.555 21.7478 10.3561 21.583C10.2441 21.4902 10.1516 21.3761 10.0837 21.2475C10.0159 21.1188 9.97408 20.9781 9.96072 20.8332C9.94737 20.6884 9.96272 20.5423 10.0059 20.4034C10.0491 20.2646 10.1192 20.1355 10.2123 20.0238L15.1663 14.0967L10.3893 8.15852C10.2974 8.04541 10.2288 7.91526 10.1874 7.77556C10.146 7.63585 10.1327 7.48934 10.1481 7.34445C10.1635 7.19956 10.2074 7.05914 10.2772 6.93127C10.3471 6.8034 10.4415 6.69059 10.5551 6.59934C10.6695 6.49867 10.8035 6.42274 10.9487 6.37631C11.0938 6.32987 11.247 6.31395 11.3986 6.32952C11.5502 6.3451 11.697 6.39184 11.8296 6.46681C11.9623 6.54179 12.0781 6.64338 12.1696 6.76521L17.5106 13.4C17.6733 13.5979 17.7622 13.8461 17.7622 14.1022C17.7622 14.3584 17.6733 14.6065 17.5106 14.8044L11.9816 21.4392C11.8707 21.5731 11.7298 21.6788 11.5703 21.748C11.4108 21.8172 11.2373 21.8478 11.0638 21.8373Z" fill="white"/>
</svg>
