<svg width="40" height="40" viewBox="0 0 40 40" fill="none" xmlns="http://www.w3.org/2000/svg">
<path fill-rule="evenodd" clip-rule="evenodd" d="M10.4038 14.8333C11.0349 16.7684 12.8541 18.1667 14.9998 18.1667C17.1456 18.1667 18.9648 16.7684 19.5959 14.8333C24.175 14.8333 28.7541 14.8333 33.3332 14.8333C34.1616 14.8333 34.8332 14.1618 34.8332 13.3333C34.8332 12.5049 34.1616 11.8333 33.3332 11.8333C28.7541 11.8333 24.175 11.8333 19.5959 11.8333C19.5797 11.7827 19.6014 11.8502 19.5959 11.8333C18.9648 9.89827 17.1456 8.5 14.9998 8.5C12.8541 8.5 11.0349 9.89827 10.4038 11.8333C9.15802 11.8333 7.91226 11.8333 6.6665 11.8333C5.83808 11.8333 5.1665 12.5049 5.1665 13.3333C5.1665 14.1618 5.83808 14.8333 6.6665 14.8333C7.91226 14.8333 9.15802 14.8333 10.4038 14.8333ZM14.9998 11.5C13.9873 11.5 13.1665 12.3208 13.1665 13.3333C13.1665 14.3459 13.9873 15.1667 14.9998 15.1667C16.0124 15.1667 16.8332 14.3459 16.8332 13.3333C16.8332 12.3208 16.0124 11.5 14.9998 11.5Z" fill="#0A66C2"/>
<path fill-rule="evenodd" clip-rule="evenodd" d="M5.1665 26.6667C5.1665 25.8382 5.83808 25.1667 6.6665 25.1667C11.2456 25.1667 15.8247 25.1667 20.4038 25.1667C21.0349 23.2316 22.8541 21.8333 24.9998 21.8333C27.1456 21.8333 28.9648 23.2316 29.5959 25.1667C29.5959 25.1667 32.4642 25.1667 33.3332 25.1667C34.1616 25.1667 34.8332 25.8382 34.8332 26.6667C34.8332 27.4951 34.1616 28.1667 33.3332 28.1667C32.9628 28.1667 29.5959 28.1667 29.5959 28.1667C28.9648 30.1017 27.1456 31.5 24.9998 31.5C22.8541 31.5 21.0349 30.1017 20.4038 28.1667C15.8247 28.1667 11.2456 28.1667 6.6665 28.1667C5.83808 28.1667 5.1665 27.4951 5.1665 26.6667ZM23.1665 26.6667C23.1665 25.6541 23.9873 24.8333 24.9998 24.8333C26.0124 24.8333 26.8332 25.6541 26.8332 26.6667C26.8332 27.6792 26.0124 28.5 24.9998 28.5C23.9873 28.5 23.1665 27.6792 23.1665 26.6667Z" fill="#0A66C2"/>
<path d="M19.5959 11.8333C18.9648 9.89827 17.1456 8.5 14.9998 8.5C12.8541 8.5 11.0349 9.89827 10.4038 11.8333C9.15802 11.8333 7.91226 11.8333 6.6665 11.8333C5.83808 11.8333 5.1665 12.5049 5.1665 13.3333C5.1665 14.1618 5.83808 14.8333 6.6665 14.8333C7.91226 14.8333 9.15802 14.8333 10.4038 14.8333C11.0349 16.7684 12.8541 18.1667 14.9998 18.1667C17.1456 18.1667 18.9648 16.7684 19.5959 14.8333C24.175 14.8333 28.7541 14.8333 33.3332 14.8333C34.1616 14.8333 34.8332 14.1618 34.8332 13.3333C34.8332 12.5049 34.1616 11.8333 33.3332 11.8333C28.7541 11.8333 24.175 11.8333 19.5959 11.8333ZM19.5959 11.8333C19.6014 11.8502 19.5797 11.7827 19.5959 11.8333ZM13.1665 13.3333C13.1665 12.3208 13.9873 11.5 14.9998 11.5C16.0124 11.5 16.8332 12.3208 16.8332 13.3333C16.8332 14.3459 16.0124 15.1667 14.9998 15.1667C13.9873 15.1667 13.1665 14.3459 13.1665 13.3333ZM6.6665 25.1667C5.83808 25.1667 5.1665 25.8382 5.1665 26.6667C5.1665 27.4951 5.83808 28.1667 6.6665 28.1667C11.2456 28.1667 15.8247 28.1667 20.4038 28.1667C21.0349 30.1017 22.8541 31.5 24.9998 31.5C27.1456 31.5 28.9648 30.1017 29.5959 28.1667C29.5959 28.1667 32.9628 28.1667 33.3332 28.1667C34.1616 28.1667 34.8332 27.4951 34.8332 26.6667C34.8332 25.8382 34.1616 25.1667 33.3332 25.1667C32.4642 25.1667 29.5959 25.1667 29.5959 25.1667C28.9648 23.2316 27.1456 21.8333 24.9998 21.8333C22.8541 21.8333 21.0349 23.2316 20.4038 25.1667C15.8247 25.1667 11.2456 25.1667 6.6665 25.1667ZM24.9998 24.8333C23.9873 24.8333 23.1665 25.6541 23.1665 26.6667C23.1665 27.6792 23.9873 28.5 24.9998 28.5C26.0124 28.5 26.8332 27.6792 26.8332 26.6667C26.8332 25.6541 26.0124 24.8333 24.9998 24.8333Z" stroke="#0A66C2" stroke-width="0.5"/>
</svg>
