<svg width="1994" height="1071" viewBox="0 0 1994 1071" fill="none" xmlns="http://www.w3.org/2000/svg">
<g clip-path="url(#clip0_142_13240)">
<path fill-rule="evenodd" clip-rule="evenodd" d="M0 977.425L83.0833 954.633C166.167 931.842 332.333 886.258 498.5 816.683C664.667 747.108 830.833 655.941 997 678.733C1163.17 701.525 1329.33 839.475 1495.5 828.679C1661.67 816.683 1827.83 655.941 1910.92 574.371L1994 494V1047H1910.92C1827.83 1047 1661.67 1047 1495.5 1047C1329.33 1047 1163.17 1047 997 1047C830.833 1047 664.667 1047 498.5 1047C332.333 1047 166.167 1047 83.0833 1047H0V977.425Z" fill="#01BBD6"/>
<path d="M546.54 756.626C447.582 694.276 319.159 707.797 267.318 722.351C260.617 805.348 248.112 972.648 251.695 977.871C255.278 983.095 865.569 1017.49 1170.27 1034.03L1175.22 953.015C1113.47 899.196 1054.48 853.364 863.596 863.588C717.796 871.397 670.237 834.563 546.54 756.626Z" fill="white" fill-opacity="0.04"/>
<path d="M751.084 869.058C646.17 832.085 519.982 855.821 470.002 872.31C472.1 936.043 477.323 1064.41 481.435 1068C485.547 1071.59 1095.63 1033.71 1400.16 1014.32L1396.53 952.273C1329.49 917.877 1266.03 889.258 1077.43 917.039C933.372 938.259 882.226 915.274 751.084 869.058Z" fill="white" fill-opacity="0.04"/>
<path d="M594.945 358.566C401.042 349.531 361.614 462.91 298.846 436.724C296.018 311.556 260.847 65.3377 265.591 57.7951C270.336 50.2524 945.901 64.6527 1321.47 65.2915L1322.28 187.343C1242.87 262.982 1306.22 282.804 1017.88 279.039C814.179 276.38 811.989 368.679 594.945 358.566Z" fill="white" fill-opacity="0.04"/>
<path d="M461.833 309.525C267.931 300.49 228.502 413.869 165.735 387.683C162.907 262.515 127.736 16.2967 132.48 8.75405C137.224 1.21137 812.789 15.6117 1188.36 16.2505L1189.17 138.302C1109.76 213.941 1173.1 233.763 884.767 229.998C681.068 227.339 678.877 319.638 461.833 309.525Z" fill="white" fill-opacity="0.04"/>
</g>
<defs>
<clipPath id="clip0_142_13240">
<rect width="1994" height="1070.23" fill="white"/>
</clipPath>
</defs>
</svg>
