<svg width="24" height="23" viewBox="0 0 24 23" fill="none" xmlns="http://www.w3.org/2000/svg">
<path d="M20.3789 4.67521L19.0749 3.42556C17.9217 2.32041 16.0585 2.30057 14.8799 3.3809L13.3786 4.75713L18.9573 10.1034L20.3789 8.74107C21.5505 7.61832 21.5505 5.79796 20.3789 4.67521Z" fill="#01BBD6"/>
<path fill-rule="evenodd" clip-rule="evenodd" d="M6.18299 11.3531L11.933 6.0823L17.5431 11.4587L11.6267 17.1286C11.2178 17.5205 10.6994 17.7908 10.1339 17.9069L5.48891 18.8608C4.78542 19.0052 4.1577 18.4119 4.2988 17.7358L5.31492 12.8669C5.43553 12.2889 5.73857 11.7605 6.18299 11.3531ZM13.2073 11.6983C13.5978 11.324 13.5978 10.7172 13.2073 10.343C12.8168 9.96874 12.1836 9.96874 11.7931 10.343L9.29311 12.7388C8.90259 13.1131 8.90259 13.7199 9.29311 14.0941C9.68363 14.4684 10.3168 14.4684 10.7073 14.0941L13.2073 11.6983Z" fill="#01BBD6"/>
</svg>
