<svg width="1994" height="1071" viewBox="0 0 1994 1071" fill="none" xmlns="http://www.w3.org/2000/svg">
<path fill-rule="evenodd" clip-rule="evenodd" d="M0 954.425L83.0833 931.633C166.167 908.842 332.333 863.258 498.5 793.683C664.667 724.108 830.833 632.941 997 655.733C1163.17 678.525 1329.33 816.475 1495.5 805.679C1661.67 793.683 1827.83 632.941 1910.92 551.371L1994 471V1024H1910.92C1827.83 1024 1661.67 1024 1495.5 1024C1329.33 1024 1163.17 1024 997 1024C830.833 1024 664.667 1024 498.5 1024C332.333 1024 166.167 1024 83.0833 1024H0V954.425Z" fill="#01BBD6"/>
<path d="M593.54 756.626C494.582 694.276 366.159 707.797 314.318 722.351C307.617 805.348 295.112 972.648 298.695 977.871C302.278 983.095 912.569 1017.49 1217.27 1034.03L1222.22 953.015C1160.47 899.196 1101.48 853.364 910.596 863.588C764.796 871.397 717.237 834.563 593.54 756.626Z" fill="white" fill-opacity="0.04"/>
<path d="M798.084 869.058C693.17 832.085 566.982 855.821 517.002 872.31C519.1 936.043 524.323 1064.41 528.435 1068C532.547 1071.59 1142.63 1033.71 1447.16 1014.32L1443.53 952.273C1376.49 917.877 1313.03 889.258 1124.43 917.039C980.372 938.259 929.226 915.274 798.084 869.058Z" fill="white" fill-opacity="0.04"/>
<path d="M641.945 358.566C448.042 349.531 408.614 462.91 345.846 436.724C343.018 311.556 307.847 65.3377 312.591 57.7951C317.336 50.2524 992.901 64.6527 1368.47 65.2915L1369.28 187.343C1289.87 262.982 1353.22 282.804 1064.88 279.039C861.179 276.38 858.989 368.679 641.945 358.566Z" fill="white" fill-opacity="0.04"/>
<path d="M508.833 309.525C314.931 300.49 275.502 413.869 212.735 387.683C209.907 262.515 174.736 16.2967 179.48 8.75405C184.224 1.21137 859.789 15.6117 1235.36 16.2505L1236.17 138.302C1156.76 213.941 1220.1 233.763 931.767 229.998C728.068 227.339 725.877 319.638 508.833 309.525Z" fill="white" fill-opacity="0.04"/>
</svg>
