<svg width="1994" height="1022" viewBox="0 0 1994 1022" fill="none" xmlns="http://www.w3.org/2000/svg">
<path d="M593.54 707.626C494.582 645.276 366.159 658.797 314.318 673.351C307.617 756.348 295.112 923.648 298.695 928.871C302.278 934.095 912.569 968.49 1217.27 985.034L1222.22 904.015C1160.47 850.196 1101.48 804.364 910.596 814.588C764.796 822.397 717.237 785.563 593.54 707.626Z" fill="white" fill-opacity="0.04"/>
<path d="M798.084 820.058C693.17 783.085 566.982 806.821 517.002 823.31C519.1 887.043 524.323 1015.41 528.435 1019C532.547 1022.59 1142.63 984.708 1447.16 965.32L1443.53 903.273C1376.49 868.877 1313.03 840.258 1124.43 868.039C980.372 889.259 929.226 866.274 798.084 820.058Z" fill="white" fill-opacity="0.04"/>
<path d="M641.945 309.566C448.042 300.531 408.614 413.91 345.846 387.724C343.018 262.556 307.847 16.3377 312.591 8.79506C317.336 1.25238 992.901 15.6527 1368.47 16.2915L1369.28 138.343C1289.87 213.982 1353.22 233.804 1064.88 230.039C861.179 227.38 858.989 319.679 641.945 309.566Z" fill="white" fill-opacity="0.04"/>
<path fill-rule="evenodd" clip-rule="evenodd" d="M0 905.425L83.0833 882.633C166.167 859.842 332.333 814.258 498.5 744.683C664.667 675.108 830.833 583.941 997 606.733C1163.17 629.525 1329.33 767.475 1495.5 756.679C1661.67 744.683 1827.83 583.941 1910.92 502.371L1994 422V975H1910.92C1827.83 975 1661.67 975 1495.5 975C1329.33 975 1163.17 975 997 975C830.833 975 664.667 975 498.5 975C332.333 975 166.167 975 83.0833 975H0V905.425Z" fill="#01BBD6"/>
</svg>
