<svg width="90" height="89" viewBox="0 0 90 89" fill="none" xmlns="http://www.w3.org/2000/svg">
<ellipse cx="44.8368" cy="45.2615" rx="43.1518" ry="39.6612" fill="#C4C4C4"/>
<path d="M26.2451 70.4583C26.2451 64.3141 34.5465 59.3333 44.7868 59.3333C55.0271 59.3333 63.3285 64.3141 63.3285 70.4583" stroke="#14181F" stroke-width="6" stroke-linecap="round" stroke-linejoin="round"/>
<path d="M44.7867 48.2083C50.9309 48.2083 55.9117 43.2274 55.9117 37.0833C55.9117 30.9391 50.9309 25.9583 44.7867 25.9583C38.6426 25.9583 33.6617 30.9391 33.6617 37.0833C33.6617 43.2274 38.6426 48.2083 44.7867 48.2083Z" stroke="#14181F" stroke-width="6" stroke-linecap="round" stroke-linejoin="round"/>
<path d="M44.7867 77.875C63.2192 77.875 78.1617 62.9325 78.1617 44.5C78.1617 26.0675 63.2192 11.125 44.7867 11.125C26.3542 11.125 11.4117 26.0675 11.4117 44.5C11.4117 62.9325 26.3542 77.875 44.7867 77.875Z" stroke="#14181F" stroke-width="6" stroke-miterlimit="10" stroke-linecap="round" stroke-linejoin="round"/>
<rect x="0.286743" width="89" height="89" stroke="black"/>
</svg>
