<svg width="16" height="17" viewBox="0 0 16 17" fill="none" xmlns="http://www.w3.org/2000/svg">
<path d="M2.01584 11.4541L4.25806 9.73942C4.12985 9.35001 4.06052 8.93342 4.06052 8.5001C4.06052 8.06678 4.12985 7.65019 4.25806 7.26078L2.01584 5.54614C1.57852 6.43525 1.33325 7.43764 1.33325 8.5001C1.33325 9.56256 1.57852 10.565 2.01584 11.4541Z" fill="#FBBC05"/>
<path d="M4.25809 7.26072C4.77542 5.68942 6.25145 4.56065 7.99995 4.56065C8.93934 4.56065 9.78783 4.89398 10.4545 5.43943L12.3939 3.50004C11.2121 2.46974 9.69692 1.83337 7.99995 1.83337C5.36544 1.83337 3.10025 3.34144 2.01587 5.54608L4.25809 7.26072Z" fill="#EA4335"/>
<path d="M7.99987 15.1668C5.36463 15.1668 3.09892 13.6579 2.01489 11.4522L4.2562 9.73389C4.77188 11.3081 6.24933 12.4395 7.99987 12.4395C8.85647 12.4395 9.61545 12.2378 10.2165 11.8584L12.3452 13.5064C11.1799 14.5899 9.62595 15.1668 7.99987 15.1668Z" fill="#34A853"/>
<path d="M8 7.28796H14.2121C14.303 7.6819 14.3636 8.10615 14.3636 8.50009C14.3636 10.673 13.5687 12.3689 12.3453 13.5064L10.2166 11.8584C10.9126 11.4192 11.3969 10.7418 11.5758 9.86372H8V7.28796Z" fill="#4285F4"/>
</svg>
