<svg width="16" height="17" viewBox="0 0 16 17" fill="none" xmlns="http://www.w3.org/2000/svg">
<path d="M2.01608 11.4541L4.2583 9.73942C4.13009 9.35001 4.06077 8.93342 4.06077 8.5001C4.06077 8.06678 4.13009 7.65019 4.2583 7.26078L2.01608 5.54614C1.57877 6.43525 1.3335 7.43764 1.3335 8.5001C1.3335 9.56256 1.57877 10.565 2.01608 11.4541Z" fill="#FBBC05"/>
<path d="M4.25833 7.26072C4.77566 5.68942 6.2517 4.56065 8.00019 4.56065C8.93959 4.56065 9.78807 4.89398 10.4547 5.43943L12.3941 3.50004C11.2123 2.46974 9.69716 1.83337 8.00019 1.83337C5.36568 1.83337 3.1005 3.34144 2.01611 5.54608L4.25833 7.26072Z" fill="#EA4335"/>
<path d="M8.00012 15.1668C5.36488 15.1668 3.09916 13.6579 2.01514 11.4522L4.25644 9.73389C4.77213 11.3081 6.24957 12.4395 8.00012 12.4395C8.85671 12.4395 9.61569 12.2378 10.2168 11.8584L12.3454 13.5064C11.1802 14.5899 9.6262 15.1668 8.00012 15.1668Z" fill="#34A853"/>
<path d="M8 7.28796H14.2121C14.303 7.6819 14.3636 8.10615 14.3636 8.50009C14.3636 10.673 13.5687 12.3689 12.3453 13.5064L10.2166 11.8584C10.9126 11.4192 11.3969 10.7418 11.5758 9.86372H8V7.28796Z" fill="#4285F4"/>
</svg>
