<svg width="18" height="19" viewBox="0 0 18 19" fill="none" xmlns="http://www.w3.org/2000/svg">
<path d="M9 17.7041C13.3492 17.7041 16.875 14.1783 16.875 9.8291C16.875 5.47986 13.3492 1.9541 9 1.9541C4.65076 1.9541 1.125 5.47986 1.125 9.8291C1.125 14.1783 4.65076 17.7041 9 17.7041Z" fill="#F5BB5C"/>
<path fill-rule="evenodd" clip-rule="evenodd" d="M9.92264 15.904H8.12264C7.96152 15.904 7.807 15.84 7.69307 15.7261C7.57914 15.6122 7.51514 15.4577 7.51514 15.2965V13.8003H10.5301V15.2965C10.5301 15.4577 10.4661 15.6122 10.3522 15.7261C10.2383 15.84 10.0838 15.904 9.92264 15.904Z" fill="#FFE1B2"/>
<path fill-rule="evenodd" clip-rule="evenodd" d="M7.52613 14.0928V13.8003C7.52862 13.4179 7.4678 13.0378 7.34613 12.6753C7.18836 12.3569 6.98775 12.0617 6.74988 11.7978C6.33427 11.4582 5.99877 11.031 5.76734 10.5468C5.53592 10.0626 5.41429 9.53319 5.41113 8.9965C5.41113 8.03874 5.7916 7.1202 6.46884 6.44296C7.14608 5.76572 8.06462 5.38525 9.02238 5.38525C9.98015 5.38525 10.8987 5.76572 11.5759 6.44296C12.2532 7.1202 12.6336 8.03874 12.6336 8.9965C12.6225 9.54438 12.4931 10.0834 12.2543 10.5766C12.0154 11.0698 11.6728 11.5055 11.2499 11.854C11.3286 11.7978 11.1599 11.9215 11.0474 12.079C10.9345 12.2409 10.8472 12.4193 10.7886 12.6078C10.6761 12.9721 10.6192 13.3514 10.6199 13.7328V14.0253" fill="#FCF0DE"/>
<path d="M8.39238 6.20654C7.86846 6.29726 7.38742 6.55355 7.01988 6.93779C6.63606 7.31057 6.37007 7.78779 6.25488 8.31029" stroke="white" stroke-width="2.25" stroke-linecap="round" stroke-linejoin="round"/>
<path d="M9.92264 15.904H8.12264C7.96152 15.904 7.807 15.84 7.69307 15.7261C7.57914 15.6122 7.51514 15.4577 7.51514 15.2965V13.8003H10.5301V15.2965C10.5301 15.4577 10.4661 15.6122 10.3522 15.7261C10.2383 15.84 10.0838 15.904 9.92264 15.904V15.904Z" stroke="#5D3B01" stroke-width="1.125" stroke-linecap="round" stroke-linejoin="round"/>
<path d="M8.9998 2.5166V3.9341M7.5148 14.0929V13.8004C7.51546 13.419 7.45857 13.0397 7.34605 12.6754C7.27277 12.4868 7.17439 12.3089 7.05355 12.1466C6.9333 11.9703 6.79368 11.8081 6.6373 11.6629C6.48722 11.5278 6.34804 11.3811 6.22105 11.2241C5.69933 10.5901 5.41313 9.79513 5.41105 8.9741V8.9741C5.41105 8.01634 5.79152 7.0978 6.46877 6.42056C7.14601 5.74332 8.06454 5.36285 9.0223 5.36285C9.98007 5.36285 10.8986 5.74332 11.5758 6.42056C12.2531 7.0978 12.6336 8.01634 12.6336 8.9741C12.6202 9.79504 12.3309 10.5876 11.8123 11.2241C11.6216 11.4598 11.4067 11.6747 11.1711 11.8654L10.9461 12.1016C10.8367 12.264 10.7532 12.4423 10.6986 12.6304C10.586 12.9947 10.5292 13.374 10.5298 13.7554V14.0479L7.5148 14.0929ZM5.1748 3.7991L5.86105 4.68785L5.1748 3.7991ZM12.8473 3.78785L12.1611 4.68785L12.8473 3.78785Z" stroke="#5D3B01" stroke-width="1.125" stroke-linecap="round" stroke-linejoin="round"/>
<path d="M8.99977 1.9541C10.5573 1.9541 12.0799 2.41596 13.3749 3.28128C14.6699 4.1466 15.6793 5.3765 16.2753 6.81547C16.8714 8.25444 17.0273 9.83784 16.7235 11.3654C16.4196 12.893 15.6696 14.2962 14.5682 15.3976C13.4669 16.4989 12.0637 17.2489 10.5361 17.5528C9.00851 17.8566 7.42511 17.7007 5.98614 17.1047C4.54717 16.5086 3.31727 15.4993 2.45195 14.2042C1.58663 12.9092 1.12477 11.3866 1.12477 9.8291C1.12477 7.74052 1.95446 5.73749 3.43131 4.26064C4.90816 2.78379 6.91119 1.9541 8.99977 1.9541ZM8.99977 0.829104C6.91766 0.830742 4.90053 1.55424 3.29204 2.87633C1.68355 4.19843 0.583217 6.03732 0.178506 8.07972C-0.226205 10.1221 0.0897461 12.2417 1.07253 14.0772C2.05531 15.9128 3.64413 17.3508 5.56828 18.1463C7.49243 18.9418 9.63288 19.0456 11.6249 18.4399C13.617 17.8342 15.3374 16.5566 16.4931 14.8246C17.6488 13.0927 18.1683 11.0137 17.963 8.94171C17.7577 6.86975 16.8404 4.93306 15.3673 3.4616C14.5308 2.62609 13.538 1.96357 12.4454 1.51188C11.3529 1.06018 10.182 0.828175 8.99977 0.829104Z" fill="white"/>
</svg>
