<svg width="18" height="18" viewBox="0 0 18 18" fill="none" xmlns="http://www.w3.org/2000/svg">
<path d="M9 0C11.3869 0 13.6761 0.948212 15.364 2.63604C17.0518 4.32387 18 6.61305 18 9C18 11.3869 17.0518 13.6761 15.364 15.364C13.6761 17.0518 11.3869 18 9 18C6.61305 18 4.32387 17.0518 2.63604 15.364C0.948212 13.6761 0 11.3869 0 9C0 6.61305 0.948212 4.32387 2.63604 2.63604C4.32387 0.948212 6.61305 0 9 0V0Z" fill="white"/>
<path d="M9 16.875C13.3492 16.875 16.875 13.3492 16.875 9C16.875 4.65076 13.3492 1.125 9 1.125C4.65076 1.125 1.125 4.65076 1.125 9C1.125 13.3492 4.65076 16.875 9 16.875Z" fill="#DBD1D1"/>
</svg>
