<svg width="19" height="18" viewBox="0 0 19 18" fill="none" xmlns="http://www.w3.org/2000/svg">
<path d="M9.00683 16.875C13.3561 16.875 16.8818 13.3492 16.8818 9C16.8818 4.65076 13.3561 1.125 9.00683 1.125C4.65759 1.125 1.13184 4.65076 1.13184 9C1.13184 13.3492 4.65759 16.875 9.00683 16.875Z" fill="#DBD1D1"/>
<path d="M9.00661 1.125C10.5641 1.125 12.0867 1.58686 13.3817 2.45218C14.6768 3.3175 15.6861 4.5474 16.2822 5.98637C16.8782 7.42534 17.0341 9.00874 16.7303 10.5363C16.4264 12.0639 15.6764 13.4671 14.5751 14.5685C13.4737 15.6698 12.0705 16.4198 10.5429 16.7237C9.01534 17.0275 7.43194 16.8716 5.99298 16.2756C4.55401 15.6795 3.3241 14.6702 2.45879 13.3751C1.59347 12.0801 1.13161 10.5575 1.13161 9C1.13161 6.91142 1.96129 4.90839 3.43814 3.43154C4.91499 1.95469 6.91803 1.125 9.00661 1.125ZM9.00661 2.78279e-06C6.9245 0.00164004 4.90737 0.725138 3.29888 2.04723C1.69039 3.36933 0.590052 5.20822 0.185341 7.25062C-0.219369 9.29302 0.096582 11.4126 1.07937 13.2481C2.06215 15.0837 3.65096 16.5217 5.57512 17.3172C7.49927 18.1127 9.63971 18.2165 11.6318 17.6108C13.6238 17.0051 15.3443 15.7275 16.5 13.9955C17.6557 12.2636 18.1751 10.1846 17.9698 8.11261C17.7645 6.04065 16.8472 4.10396 15.3741 2.6325C14.5377 1.79699 13.5448 1.13447 12.4523 0.682775C11.3597 0.231082 10.1889 -0.000926873 9.00661 2.78279e-06Z" fill="white"/>
</svg>
