<svg width="19" height="19" viewBox="0 0 19 19" fill="none" xmlns="http://www.w3.org/2000/svg">
<path d="M9.00732 2.03784C11.0959 2.03784 13.0989 2.86753 14.5758 4.34438C16.0526 5.82122 16.8823 7.82426 16.8823 9.91284C16.8823 12.0014 16.0526 14.0045 14.5758 15.4813C13.0989 16.9582 11.0959 17.7878 9.00732 17.7878C6.91874 17.7878 4.91571 16.9582 3.43886 15.4813C1.96201 14.0045 1.13232 12.0014 1.13232 9.91284C1.13232 7.82426 1.96201 5.82122 3.43886 4.34438C4.91571 2.86753 6.91874 2.03784 9.00732 2.03784Z" fill="#D8D8D8"/>
<path d="M9.00732 17.7878C13.3566 17.7878 16.8823 14.2621 16.8823 9.91284C16.8823 5.5636 13.3566 2.03784 9.00732 2.03784C4.65808 2.03784 1.13232 5.5636 1.13232 9.91284C1.13232 14.2621 4.65808 17.7878 9.00732 17.7878Z" fill="#6DAE4F"/>
<path d="M9.00758 2.03784C10.5651 2.03784 12.0877 2.49971 13.3827 3.36502C14.6777 4.23034 15.6871 5.46024 16.2831 6.89921C16.8792 8.33818 17.0351 9.92158 16.7313 11.4492C16.4274 12.9768 15.6774 14.38 14.576 15.4813C13.4747 16.5826 12.0715 17.3327 10.5439 17.6365C9.01632 17.9404 7.43292 17.7844 5.99395 17.1884C4.55499 16.5924 3.32508 15.583 2.45976 14.288C1.59445 12.9929 1.13259 11.4704 1.13259 9.91284C1.13259 7.82426 1.96227 5.82123 3.43912 4.34438C4.91597 2.86753 6.919 2.03784 9.00758 2.03784ZM9.00758 0.912845C6.92548 0.914482 4.90834 1.63798 3.29985 2.96007C1.69136 4.28217 0.591029 6.12106 0.186318 8.16346C-0.218393 10.2059 0.0975586 12.3254 1.08034 14.161C2.06313 15.9965 3.65194 17.4346 5.57609 18.2301C7.50024 19.0256 9.64069 19.1293 11.6328 18.5236C13.6248 17.9179 15.3453 16.6403 16.501 14.9084C17.6566 13.1765 18.1761 11.0974 17.9708 9.02545C17.7655 6.95349 16.8482 5.0168 15.3751 3.54534C14.5386 2.70983 13.5458 2.04731 12.4532 1.59562C11.3607 1.14392 10.1898 0.911915 9.00758 0.912845Z" fill="white"/>
<path d="M13.6536 11.2855C13.6307 10.4018 13.4946 9.52463 13.2486 8.67552C12.563 8.11391 12.0453 7.37438 11.7523 6.53802C11.5723 5.94177 11.4486 5.72802 10.9198 5.71677C10.7048 5.74226 10.5082 5.8505 10.3717 6.01852C10.2352 6.18654 10.1695 6.40113 10.1886 6.61678C10.1886 6.88678 10.1886 7.16802 10.2561 7.42677C10.4102 8.1644 10.6286 8.88715 10.9086 9.58677L5.84605 5.78427C5.76161 5.70202 5.66086 5.63837 5.55031 5.59743C5.43976 5.55649 5.32186 5.53918 5.20421 5.54659C5.08655 5.55401 4.97176 5.58601 4.86723 5.64051C4.7627 5.69501 4.67074 5.77081 4.5973 5.86303C4.54302 5.95675 4.5078 6.06028 4.49369 6.16766C4.47958 6.27505 4.48685 6.38417 4.51508 6.48873C4.54332 6.59329 4.59195 6.69124 4.65819 6.77693C4.72443 6.86262 4.80697 6.93436 4.90105 6.98803L7.4323 8.90052L8.09605 9.53052L4.0798 6.53802C3.97115 6.43039 3.83389 6.35622 3.68432 6.32431C3.53475 6.2924 3.37917 6.3041 3.23605 6.35803C3.09179 6.40873 2.96572 6.5009 2.87365 6.62299C2.78159 6.74508 2.72763 6.89163 2.71855 7.04427C2.70762 7.19539 2.7399 7.34649 2.81161 7.47996C2.88332 7.61342 2.99151 7.72373 3.12355 7.79802L5.6323 9.65427L7.15105 10.7793L3.88855 8.31552C3.80254 8.23578 3.7016 8.17385 3.59154 8.1333C3.48149 8.09275 3.36449 8.07439 3.2473 8.07927C3.01123 8.10019 2.79293 8.21338 2.6398 8.39427C2.29105 8.84427 2.5723 9.30552 2.9323 9.58677L5.46355 11.488L6.7573 12.4443L4.20355 10.5318C4.12557 10.4469 4.03081 10.3791 3.92527 10.3327C3.81973 10.2864 3.70571 10.2624 3.59043 10.2624C3.47515 10.2624 3.36113 10.2864 3.25559 10.3327C3.15004 10.3791 3.05528 10.4469 2.9773 10.5318C2.90995 10.6286 2.86335 10.7383 2.84044 10.8539C2.81752 10.9696 2.81878 11.0888 2.84414 11.2039C2.8695 11.3191 2.9184 11.4278 2.98778 11.5231C3.05717 11.6185 3.14552 11.6985 3.2473 11.758L7.8598 15.133C8.5348 15.6393 10.1886 16.078 10.9198 15.4368" stroke="#057642" stroke-width="1.6875" stroke-linecap="round" stroke-linejoin="round"/>
<path fill-rule="evenodd" clip-rule="evenodd" d="M14.1936 12.0503L13.7211 11.634C13.664 10.8053 13.4701 9.99184 13.1474 9.2265C12.4875 8.4504 12.021 7.52897 11.7861 6.53775C11.6061 5.9415 11.4824 5.72775 10.9536 5.7165C10.7386 5.74199 10.542 5.85022 10.4055 6.01824C10.269 6.18626 10.2033 6.40085 10.2224 6.6165C10.2224 6.8865 10.2224 7.16775 10.2899 7.4265C10.4207 8.13684 10.6281 8.8309 10.9086 9.4965L10.6949 9.384L5.8461 5.66025C5.76166 5.57799 5.66091 5.51434 5.55036 5.47341C5.43981 5.43247 5.32191 5.41515 5.20426 5.42257C5.0866 5.42999 4.97181 5.46198 4.86728 5.51648C4.76275 5.57099 4.67079 5.64679 4.59735 5.739C4.53277 5.83541 4.48936 5.94441 4.46996 6.05882C4.45057 6.17323 4.45565 6.29045 4.48485 6.40275C4.51159 6.51586 4.56268 6.62178 4.63458 6.7131C4.70647 6.80443 4.79743 6.87896 4.9011 6.9315L7.3761 8.78775L8.0961 9.3615L4.07985 6.35775C3.99577 6.27524 3.89513 6.21152 3.78459 6.1708C3.67405 6.13007 3.55612 6.11327 3.4386 6.1215C3.3221 6.12859 3.20824 6.15916 3.10384 6.21135C2.99945 6.26355 2.90668 6.33631 2.8311 6.42525C2.769 6.52278 2.72706 6.63176 2.70774 6.74575C2.68841 6.85975 2.69211 6.97646 2.7186 7.089C2.74023 7.20837 2.78768 7.32157 2.85764 7.42067C2.9276 7.51978 3.01837 7.6024 3.1236 7.66275L5.63235 9.53025L7.1511 10.6553L3.8886 8.20275C3.80507 8.11881 3.7048 8.05339 3.59432 8.01074C3.48384 7.9681 3.36562 7.94919 3.24735 7.95525C3.12986 7.96309 3.01525 7.99512 2.91071 8.04932C2.80618 8.10353 2.71396 8.17874 2.63985 8.27025C2.57399 8.36574 2.5291 8.4741 2.50814 8.5882C2.48718 8.70229 2.49064 8.81953 2.51827 8.9322C2.54591 9.04486 2.5971 9.15039 2.66847 9.24184C2.73984 9.33329 2.82978 9.40858 2.93235 9.46275L5.4636 11.364L6.75735 12.3203L4.2036 10.419C4.12777 10.3321 4.03448 10.2621 3.92981 10.2137C3.82514 10.1652 3.71144 10.1393 3.5961 10.1378C3.47933 10.1405 3.36432 10.1668 3.25799 10.2152C3.15166 10.2635 3.0562 10.3328 2.97735 10.419C2.90849 10.5143 2.8606 10.6231 2.83683 10.7383C2.81307 10.8535 2.81397 10.9724 2.83948 11.0871C2.86499 11.2019 2.91452 11.31 2.98483 11.4043C3.05513 11.4985 3.1446 11.5768 3.24735 11.634L7.88235 15.1328C8.21199 15.3841 8.58993 15.5648 8.99255 15.6635C9.39517 15.7622 9.81382 15.7769 10.2224 15.7065C10.4493 15.8826 10.7283 15.9781 11.0155 15.9781C11.3027 15.9781 11.5817 15.8826 11.8086 15.7065C12.4836 15.189 12.2699 15.1328 12.7649 14.4353C13.3298 13.6969 13.8091 12.8968 14.1936 12.0503Z" fill="#DCF0CB"/>
<path d="M13.6536 11.2855C13.6307 10.4018 13.4946 9.52463 13.2486 8.67552C12.563 8.11391 12.0453 7.37438 11.7523 6.53802C11.5723 5.94177 11.4486 5.72802 10.9198 5.71677C10.7048 5.74226 10.5082 5.8505 10.3717 6.01852C10.2352 6.18654 10.1695 6.40113 10.1886 6.61677C10.1886 6.88677 10.1886 7.16802 10.2561 7.42677C10.4102 8.1644 10.6286 8.88715 10.9086 9.58677L5.84605 5.78427C5.76161 5.70202 5.66086 5.63837 5.55031 5.59743C5.43976 5.55649 5.32186 5.53918 5.20421 5.54659C5.08655 5.55401 4.97176 5.58601 4.86723 5.64051C4.7627 5.69501 4.67074 5.77081 4.5973 5.86303C4.54302 5.95675 4.5078 6.06028 4.49369 6.16766C4.47958 6.27505 4.48685 6.38417 4.51508 6.48873C4.54332 6.59329 4.59195 6.69124 4.65819 6.77693C4.72443 6.86262 4.80697 6.93436 4.90105 6.98802L7.4323 8.90052L8.09605 9.53052L4.0798 6.53802C3.97115 6.43039 3.83389 6.35622 3.68432 6.32431C3.53475 6.2924 3.37917 6.3041 3.23605 6.35802C3.09179 6.40873 2.96572 6.5009 2.87365 6.62299C2.78159 6.74508 2.72763 6.89163 2.71855 7.04427C2.70762 7.19539 2.7399 7.34649 2.81161 7.47996C2.88332 7.61342 2.99151 7.72373 3.12355 7.79802L5.6323 9.65427L7.15105 10.7793L3.88855 8.31552C3.80254 8.23578 3.7016 8.17385 3.59154 8.1333C3.48149 8.09275 3.36449 8.07439 3.2473 8.07927C3.01123 8.10019 2.79293 8.21338 2.6398 8.39427C2.29105 8.84427 2.5723 9.30552 2.9323 9.58677L5.46355 11.488L6.7573 12.4443L4.20355 10.5318C4.12557 10.4469 4.03081 10.3791 3.92527 10.3327C3.81973 10.2864 3.70571 10.2624 3.59043 10.2624C3.47515 10.2624 3.36113 10.2864 3.25559 10.3327C3.15004 10.3791 3.05528 10.4469 2.9773 10.5318C2.90995 10.6286 2.86335 10.7383 2.84044 10.8539C2.81752 10.9696 2.81878 11.0888 2.84414 11.2039C2.8695 11.3191 2.9184 11.4278 2.98778 11.5231C3.05717 11.6185 3.14552 11.6985 3.2473 11.758L7.8598 15.133C8.77957 15.6853 9.85156 15.9296 10.9198 15.8305" stroke="#057642" stroke-width="0.5625" stroke-linecap="round" stroke-linejoin="round"/>
<path d="M16.6235 13.7265C16.3966 13.4824 16.2207 13.1956 16.106 12.8828C16.0906 12.6361 16.0529 12.3914 15.9935 12.1515C15.9583 11.7198 15.8194 11.303 15.5885 10.9365C14.9344 10.1609 14.4685 9.2445 14.2272 8.259C14.0472 7.66275 13.9235 7.449 13.3947 7.43775C13.176 7.45724 12.9738 7.56238 12.8322 7.73025C12.7655 7.8154 12.7162 7.91291 12.6872 8.01716C12.6583 8.12142 12.6502 8.23037 12.6635 8.33775C12.6636 8.60915 12.6862 8.88008 12.731 9.14775C12.9335 10.1828 13.1472 11.0378 13.1697 11.094L8.34347 7.48275C8.25953 7.39938 8.15919 7.33433 8.04881 7.29173C7.93843 7.24912 7.82041 7.22989 7.70222 7.23525C7.58319 7.24158 7.46703 7.27411 7.36202 7.3305C7.25701 7.3869 7.16574 7.46577 7.09472 7.5615C7.03997 7.65455 7.0041 7.75749 6.98916 7.86441C6.97423 7.97134 6.98053 8.08016 7.0077 8.18465C7.03486 8.28914 7.08237 8.38725 7.14749 8.47337C7.21261 8.55948 7.29408 8.63191 7.38722 8.6865L9.91847 10.599L10.6835 11.229L6.63347 8.18025C6.54953 8.09688 6.44919 8.03183 6.33881 7.98923C6.22843 7.94662 6.11041 7.92739 5.99222 7.93275C5.81407 7.93459 5.64164 7.99595 5.50237 8.10705C5.36309 8.21816 5.26496 8.37264 5.22357 8.54593C5.18219 8.71922 5.19993 8.90137 5.27398 9.06342C5.34802 9.22547 5.47412 9.35811 5.63222 9.44025L8.16347 11.3528L9.68222 12.4778L6.43097 10.014C6.34763 9.93095 6.24743 9.86678 6.13713 9.82582C6.02684 9.78486 5.90903 9.76809 5.79168 9.77662C5.67434 9.78515 5.5602 9.8188 5.45699 9.87528C5.35378 9.93177 5.26391 10.0098 5.19347 10.104C4.84472 10.554 5.11472 11.0153 5.48597 11.2965L8.01722 13.1865L9.27722 14.1428L6.75722 12.2303C6.60623 12.0845 6.40457 12.0031 6.19472 12.0031C5.98487 12.0031 5.78322 12.0845 5.63222 12.2303C5.55952 12.3207 5.5077 12.4261 5.48047 12.5389C5.45324 12.6517 5.45128 12.7691 5.47472 12.8828C5.49674 12.9961 5.54212 13.1037 5.60798 13.1986C5.67383 13.2935 5.75871 13.3737 5.85722 13.434L10.3572 16.809C10.7326 17.0909 11.1674 17.2832 11.6285 17.3715L12.281 17.4728C12.6247 17.5197 12.9566 17.6304 13.2597 17.799C13.4768 17.8832 13.7176 17.8832 13.9347 17.799C14.7244 17.5171 15.4158 17.0132 15.926 16.3478C16.3965 15.6876 16.6696 14.9072 16.7135 14.0978C16.7469 13.942 16.7469 13.781 16.7135 13.6253L16.6235 13.7265Z" stroke="#057642" stroke-width="1.6875" stroke-linecap="round" stroke-linejoin="round"/>
<path fill-rule="evenodd" clip-rule="evenodd" d="M16.6686 13.6704L16.1623 13.2879C16.1077 12.4588 15.9138 11.6449 15.5886 10.8804C14.9345 10.1047 14.4686 9.18836 14.2273 8.20286C14.0473 7.60661 13.9236 7.39286 13.3948 7.38161C13.1761 7.4011 12.9739 7.50623 12.8323 7.67411C12.7656 7.75926 12.7163 7.85676 12.6873 7.96102C12.6584 8.06527 12.6503 8.17422 12.6636 8.28161C12.6637 8.55301 12.6863 8.82393 12.7311 9.09161C12.9336 10.1379 13.1473 10.9929 13.1698 11.0379L8.34357 7.42661C8.25913 7.34435 8.15838 7.2807 8.04783 7.23976C7.93728 7.19883 7.81938 7.18151 7.70172 7.18893C7.58407 7.19635 7.46928 7.22834 7.36475 7.28284C7.26021 7.33734 7.16826 7.41314 7.09482 7.50536C6.74607 7.96661 7.02732 8.41661 7.38732 8.69786L9.91857 10.5991L10.6836 11.2291L6.63357 8.12411C6.54913 8.04185 6.44838 7.9782 6.33783 7.93726C6.22728 7.89633 6.10938 7.87901 5.99172 7.88643C5.87407 7.89385 5.75928 7.92584 5.65475 7.98034C5.55021 8.03484 5.45826 8.11064 5.38482 8.20286C5.03607 8.65286 5.31732 9.11411 5.67732 9.39536L8.20857 11.2966L9.72732 12.4216L6.43107 9.91286C6.34786 9.82913 6.24735 9.76461 6.13658 9.7238C6.02581 9.68299 5.90747 9.66688 5.78982 9.67661C5.67331 9.68169 5.55939 9.71258 5.45627 9.76706C5.35316 9.82153 5.26343 9.89823 5.19357 9.99161C5.1245 10.0859 5.07666 10.1941 5.05336 10.3087C5.03006 10.4233 5.03183 10.5415 5.05857 10.6554C5.08861 10.7686 5.14221 10.8743 5.21588 10.9654C5.28955 11.0565 5.38162 11.131 5.48607 11.1841L8.01732 13.0854L9.27732 14.0416L6.75732 12.1629C6.684 12.088 6.59648 12.0286 6.49989 11.988C6.40331 11.9474 6.29959 11.9265 6.19482 11.9265C6.09005 11.9265 5.98634 11.9474 5.88975 11.988C5.79316 12.0286 5.70564 12.088 5.63232 12.1629C5.55314 12.2544 5.4958 12.3627 5.46462 12.4796C5.43343 12.5966 5.42923 12.7191 5.45232 12.8379C5.47244 12.9578 5.5193 13.0716 5.58941 13.1709C5.65952 13.2702 5.75108 13.3525 5.85732 13.4116L10.3573 16.7866C11.0402 17.1921 11.8137 17.4203 12.6073 17.4504C12.8966 17.6241 13.1973 17.7782 13.5073 17.9116C14.4095 17.7404 15.2134 17.2339 15.7573 16.4941C16.3436 15.6397 16.6787 14.6381 16.7248 13.6029L16.6686 13.6704Z" fill="#DDF6D1"/>
<path d="M16.6235 13.7265C16.3966 13.4824 16.2207 13.1956 16.106 12.8828C16.0906 12.6361 16.0529 12.3914 15.9935 12.1515C15.9583 11.7198 15.8194 11.303 15.5885 10.9365C14.9344 10.1609 14.4685 9.2445 14.2272 8.259C14.0472 7.66275 13.9235 7.449 13.3947 7.43775C13.176 7.45724 12.9738 7.56238 12.8322 7.73025C12.7655 7.8154 12.7162 7.91291 12.6872 8.01716C12.6583 8.12142 12.6502 8.23037 12.6635 8.33775C12.6636 8.60915 12.6862 8.88008 12.731 9.14775C12.9335 10.1828 13.1472 11.0378 13.1697 11.094L8.34347 7.48275C8.25953 7.39938 8.15919 7.33433 8.04881 7.29173C7.93843 7.24912 7.82041 7.22989 7.70222 7.23525C7.58319 7.24158 7.46703 7.27411 7.36202 7.3305C7.25701 7.3869 7.16574 7.46577 7.09472 7.5615C7.03997 7.65455 7.0041 7.75749 6.98916 7.86441C6.97423 7.97134 6.98053 8.08016 7.0077 8.18465C7.03486 8.28914 7.08237 8.38725 7.14749 8.47337C7.21261 8.55948 7.29408 8.63191 7.38722 8.6865L9.91847 10.599L10.6835 11.229L6.63347 8.18025C6.54953 8.09688 6.44919 8.03183 6.33881 7.98923C6.22843 7.94662 6.11041 7.92739 5.99222 7.93275C5.81407 7.93459 5.64164 7.99595 5.50237 8.10705C5.36309 8.21816 5.26496 8.37264 5.22357 8.54593C5.18219 8.71922 5.19993 8.90137 5.27398 9.06342C5.34802 9.22547 5.47412 9.35811 5.63222 9.44025L8.16347 11.3528L9.68222 12.4778L6.43097 10.014C6.34763 9.93095 6.24743 9.86678 6.13713 9.82582C6.02684 9.78486 5.90903 9.76809 5.79168 9.77662C5.67434 9.78515 5.5602 9.8188 5.45699 9.87528C5.35378 9.93177 5.26391 10.0098 5.19347 10.104C4.84472 10.554 5.11472 11.0153 5.48597 11.2965L8.01722 13.1865L9.27722 14.1428L6.75722 12.2303C6.60623 12.0845 6.40457 12.0031 6.19472 12.0031C5.98487 12.0031 5.78322 12.0845 5.63222 12.2303C5.55952 12.3207 5.5077 12.4261 5.48047 12.5389C5.45324 12.6517 5.45128 12.7691 5.47472 12.8828C5.49674 12.9961 5.54212 13.1037 5.60798 13.1986C5.67383 13.2935 5.75871 13.3737 5.85722 13.434L10.3572 16.809C10.7326 17.0909 11.1674 17.2832 11.6285 17.3715L12.281 17.4728C12.6247 17.5197 12.9566 17.6304 13.2597 17.799C13.4768 17.8832 13.7176 17.8832 13.9347 17.799C14.7244 17.5171 15.4158 17.0132 15.926 16.3478C16.3965 15.6876 16.6696 14.9072 16.7135 14.0978C16.7469 13.942 16.7469 13.781 16.7135 13.6253L16.6235 13.7265Z" stroke="#057642" stroke-width="0.5625" stroke-linecap="round" stroke-linejoin="round"/>
<path d="M9.94137 4.08545L9.12012 5.12045" stroke="#057642" stroke-width="1.125" stroke-linecap="round" stroke-linejoin="round"/>
<path d="M6.18359 2.73535L6.26234 4.08535" stroke="#057642" stroke-width="1.125" stroke-linecap="round" stroke-linejoin="round"/>
<path d="M8.49004 2.74658L7.75879 4.50158" stroke="#057642" stroke-width="1.125" stroke-linecap="round" stroke-linejoin="round"/>
</svg>
