<svg width="18" height="18" viewBox="0 0 18 18" fill="none" xmlns="http://www.w3.org/2000/svg">
<path d="M9 16.875C13.3492 16.875 16.875 13.3492 16.875 9C16.875 4.65076 13.3492 1.125 9 1.125C4.65076 1.125 1.125 4.65076 1.125 9C1.125 13.3492 4.65076 16.875 9 16.875Z" fill="#DBD1D1"/>
<path d="M8.99977 1.125C10.5573 1.125 12.0799 1.58686 13.3749 2.45218C14.6699 3.3175 15.6793 4.5474 16.2753 5.98637C16.8714 7.42534 17.0273 9.00874 16.7235 10.5363C16.4196 12.0639 15.6696 13.4671 14.5682 14.5685C13.4669 15.6698 12.0637 16.4198 10.5361 16.7237C9.00851 17.0275 7.42511 16.8716 5.98614 16.2756C4.54717 15.6795 3.31727 14.6702 2.45195 13.3751C1.58663 12.0801 1.12477 10.5575 1.12477 9C1.12477 6.91142 1.95446 4.90839 3.43131 3.43154C4.90816 1.95469 6.91119 1.125 8.99977 1.125ZM8.99977 2.78279e-06C6.91766 0.00164004 4.90053 0.725138 3.29204 2.04723C1.68355 3.36933 0.583217 5.20822 0.178506 7.25062C-0.226205 9.29302 0.0897461 11.4126 1.07253 13.2481C2.05531 15.0837 3.64413 16.5217 5.56828 17.3172C7.49243 18.1127 9.63288 18.2165 11.6249 17.6108C13.617 17.0051 15.3374 15.7275 16.4931 13.9955C17.6488 12.2636 18.1683 10.1846 17.963 8.11261C17.7577 6.04065 16.8404 4.10396 15.3673 2.6325C14.5308 1.79699 13.538 1.13447 12.4454 0.682775C11.3529 0.231082 10.182 -0.000926873 8.99977 2.78279e-06Z" fill="white"/>
</svg>
