<svg width="19" height="19" viewBox="0 0 19 19" fill="none" xmlns="http://www.w3.org/2000/svg">
<path d="M9.00732 1.9541C11.0959 1.9541 13.0989 2.78379 14.5758 4.26064C16.0526 5.73748 16.8823 7.74052 16.8823 9.8291C16.8823 11.9177 16.0526 13.9207 14.5758 15.3976C13.0989 16.8744 11.0959 17.7041 9.00732 17.7041C6.91874 17.7041 4.91571 16.8744 3.43886 15.3976C1.96201 13.9207 1.13232 11.9177 1.13232 9.8291C1.13232 7.74052 1.96201 5.73748 3.43886 4.26064C4.91571 2.78379 6.91874 1.9541 9.00732 1.9541Z" fill="#D8D8D8"/>
<path d="M9.00732 17.7041C13.3566 17.7041 16.8823 14.1783 16.8823 9.8291C16.8823 5.47986 13.3566 1.9541 9.00732 1.9541C4.65808 1.9541 1.13232 5.47986 1.13232 9.8291C1.13232 14.1783 4.65808 17.7041 9.00732 17.7041Z" fill="#6DAE4F"/>
<path d="M9.00758 1.9541C10.5651 1.9541 12.0877 2.41596 13.3827 3.28128C14.6777 4.1466 15.6871 5.3765 16.2831 6.81547C16.8792 8.25444 17.0351 9.83784 16.7313 11.3654C16.4274 12.893 15.6774 14.2962 14.576 15.3976C13.4747 16.4989 12.0715 17.2489 10.5439 17.5528C9.01632 17.8566 7.43292 17.7007 5.99395 17.1047C4.55499 16.5086 3.32508 15.4993 2.45976 14.2042C1.59445 12.9092 1.13259 11.3866 1.13259 9.8291C1.13259 7.74052 1.96227 5.73749 3.43912 4.26064C4.91597 2.78379 6.919 1.9541 9.00758 1.9541ZM9.00758 0.829104C6.92548 0.830742 4.90834 1.55424 3.29985 2.87633C1.69136 4.19843 0.591029 6.03732 0.186318 8.07972C-0.218393 10.1221 0.0975586 12.2417 1.08034 14.0772C2.06313 15.9128 3.65194 17.3508 5.57609 18.1463C7.50024 18.9418 9.64069 19.0456 11.6328 18.4399C13.6248 17.8342 15.3453 16.5566 16.501 14.8246C17.6566 13.0927 18.1761 11.0137 17.9708 8.94171C17.7655 6.86975 16.8482 4.93306 15.3751 3.4616C14.5386 2.62609 13.5458 1.96357 12.4532 1.51188C11.3607 1.06018 10.1898 0.828175 9.00758 0.829104Z" fill="white"/>
<path d="M13.6536 11.2015C13.6307 10.3178 13.4946 9.44065 13.2486 8.59154C12.563 8.02993 12.0453 7.2904 11.7523 6.45404C11.5723 5.85779 11.4486 5.64404 10.9198 5.63279C10.7048 5.65828 10.5082 5.76651 10.3717 5.93453C10.2352 6.10255 10.1695 6.31714 10.1886 6.53279C10.1886 6.80279 10.1886 7.08404 10.2561 7.34279C10.4102 8.08042 10.6286 8.80317 10.9086 9.50279L5.84605 5.70029C5.76161 5.61803 5.66086 5.55438 5.55031 5.51345C5.43976 5.47251 5.32186 5.45519 5.20421 5.46261C5.08655 5.47003 4.97176 5.50202 4.86723 5.55652C4.7627 5.61102 4.67074 5.68683 4.5973 5.77904C4.54302 5.87276 4.5078 5.9763 4.49369 6.08368C4.47958 6.19107 4.48685 6.30018 4.51508 6.40475C4.54332 6.50931 4.59195 6.60726 4.65819 6.69295C4.72443 6.77864 4.80697 6.85038 4.90105 6.90404L7.4323 8.81654L8.09605 9.44654L4.0798 6.45404C3.97115 6.34641 3.83389 6.27223 3.68432 6.24033C3.53475 6.20842 3.37917 6.22012 3.23605 6.27404C3.09179 6.32474 2.96572 6.41692 2.87365 6.539C2.78159 6.66109 2.72763 6.80765 2.71855 6.96029C2.70762 7.1114 2.7399 7.26251 2.81161 7.39597C2.88332 7.52943 2.99151 7.63975 3.12355 7.71404L5.6323 9.57029L7.15105 10.6953L3.88855 8.23154C3.80254 8.1518 3.7016 8.08986 3.59154 8.04932C3.48149 8.00877 3.36449 7.99041 3.2473 7.99529C3.01123 8.01621 2.79293 8.1294 2.6398 8.31029C2.29105 8.76029 2.5723 9.22154 2.9323 9.50279L5.46355 11.404L6.7573 12.3603L4.20355 10.4478C4.12557 10.3629 4.03081 10.2951 3.92527 10.2487C3.81973 10.2024 3.70571 10.1784 3.59043 10.1784C3.47515 10.1784 3.36113 10.2024 3.25559 10.2487C3.15004 10.2951 3.05528 10.3629 2.9773 10.4478C2.90995 10.5446 2.86335 10.6543 2.84044 10.77C2.81752 10.8856 2.81878 11.0048 2.84414 11.12C2.8695 11.2351 2.9184 11.3438 2.98778 11.4392C3.05717 11.5345 3.14552 11.6145 3.2473 11.674L7.8598 15.049C8.5348 15.5553 10.1886 15.994 10.9198 15.3528" stroke="#057642" stroke-width="1.6875" stroke-linecap="round" stroke-linejoin="round"/>
<path fill-rule="evenodd" clip-rule="evenodd" d="M14.1936 11.9668L13.7211 11.5505C13.664 10.7218 13.4701 9.90835 13.1474 9.14301C12.4875 8.3669 12.021 7.44547 11.7861 6.45426C11.6061 5.85801 11.4824 5.64426 10.9536 5.63301C10.7386 5.65849 10.542 5.76673 10.4055 5.93475C10.269 6.10277 10.2033 6.31736 10.2224 6.53301C10.2224 6.80301 10.2224 7.08426 10.2899 7.34301C10.4207 8.05334 10.6281 8.7474 10.9086 9.41301L10.6949 9.30051L5.8461 5.57676C5.76166 5.4945 5.66091 5.43085 5.55036 5.38991C5.43981 5.34897 5.32191 5.33166 5.20426 5.33908C5.0866 5.34649 4.97181 5.37849 4.86728 5.43299C4.76275 5.48749 4.67079 5.56329 4.59735 5.65551C4.53277 5.75191 4.48936 5.86091 4.46996 5.97532C4.45057 6.08973 4.45565 6.20695 4.48485 6.31926C4.51159 6.43237 4.56268 6.53828 4.63458 6.6296C4.70647 6.72093 4.79743 6.79546 4.9011 6.84801L7.3761 8.70426L8.0961 9.27801L4.07985 6.27426C3.99577 6.19175 3.89513 6.12802 3.78459 6.0873C3.67405 6.04657 3.55612 6.02977 3.4386 6.03801C3.3221 6.0451 3.20824 6.07566 3.10384 6.12786C2.99945 6.18005 2.90668 6.25281 2.8311 6.34176C2.769 6.43928 2.72706 6.54826 2.70774 6.66225C2.68841 6.77625 2.69211 6.89296 2.7186 7.00551C2.74023 7.12487 2.78768 7.23807 2.85764 7.33718C2.9276 7.43628 3.01837 7.5189 3.1236 7.57926L5.63235 9.44675L7.1511 10.5718L3.8886 8.11926C3.80507 8.03531 3.7048 7.96989 3.59432 7.92725C3.48384 7.88461 3.36562 7.8657 3.24735 7.87176C3.12986 7.8796 3.01525 7.91162 2.91071 7.96583C2.80618 8.02003 2.71396 8.09525 2.63985 8.18676C2.57399 8.28225 2.5291 8.39061 2.50814 8.5047C2.48718 8.6188 2.49064 8.73604 2.51827 8.8487C2.54591 8.96136 2.5971 9.06689 2.66847 9.15834C2.73984 9.24979 2.82978 9.32508 2.93235 9.37926L5.4636 11.2805L6.75735 12.2368L4.2036 10.3355C4.12777 10.2486 4.03448 10.1786 3.92981 10.1302C3.82514 10.0817 3.71144 10.0558 3.5961 10.0543C3.47933 10.057 3.36432 10.0833 3.25799 10.1317C3.15166 10.18 3.0562 10.2493 2.97735 10.3355C2.90849 10.4308 2.8606 10.5396 2.83683 10.6548C2.81307 10.77 2.81397 10.8889 2.83948 11.0036C2.86499 11.1184 2.91452 11.2265 2.98483 11.3208C3.05513 11.415 3.1446 11.4933 3.24735 11.5505L7.88235 15.0493C8.21199 15.3006 8.58993 15.4813 8.99255 15.58C9.39517 15.6787 9.81382 15.6934 10.2224 15.623C10.4493 15.7991 10.7283 15.8946 11.0155 15.8946C11.3027 15.8946 11.5817 15.7991 11.8086 15.623C12.4836 15.1055 12.2699 15.0493 12.7649 14.3518C13.3298 13.6134 13.8091 12.8133 14.1936 11.9668Z" fill="#DCF0CB"/>
<path d="M13.6536 11.2015C13.6307 10.3178 13.4946 9.44065 13.2486 8.59154C12.563 8.02993 12.0453 7.2904 11.7523 6.45404C11.5723 5.85779 11.4486 5.64404 10.9198 5.63279C10.7048 5.65828 10.5082 5.76651 10.3717 5.93453C10.2352 6.10255 10.1695 6.31714 10.1886 6.53279C10.1886 6.80279 10.1886 7.08404 10.2561 7.34279C10.4102 8.08042 10.6286 8.80317 10.9086 9.50279L5.84605 5.70029C5.76161 5.61803 5.66086 5.55438 5.55031 5.51345C5.43976 5.47251 5.32186 5.45519 5.20421 5.46261C5.08655 5.47003 4.97176 5.50202 4.86723 5.55652C4.7627 5.61102 4.67074 5.68683 4.5973 5.77904C4.54302 5.87276 4.5078 5.9763 4.49369 6.08368C4.47958 6.19107 4.48685 6.30018 4.51508 6.40475C4.54332 6.50931 4.59195 6.60726 4.65819 6.69295C4.72443 6.77864 4.80697 6.85038 4.90105 6.90404L7.4323 8.81654L8.09605 9.44654L4.0798 6.45404C3.97115 6.34641 3.83389 6.27223 3.68432 6.24033C3.53475 6.20842 3.37917 6.22012 3.23605 6.27404C3.09179 6.32474 2.96572 6.41692 2.87365 6.539C2.78159 6.66109 2.72763 6.80765 2.71855 6.96029C2.70762 7.1114 2.7399 7.26251 2.81161 7.39597C2.88332 7.52943 2.99151 7.63975 3.12355 7.71404L5.6323 9.57029L7.15105 10.6953L3.88855 8.23154C3.80254 8.1518 3.7016 8.08986 3.59154 8.04932C3.48149 8.00877 3.36449 7.99041 3.2473 7.99529C3.01123 8.01621 2.79293 8.1294 2.6398 8.31029C2.29105 8.76029 2.5723 9.22154 2.9323 9.50279L5.46355 11.404L6.7573 12.3603L4.20355 10.4478C4.12557 10.3629 4.03081 10.2951 3.92527 10.2487C3.81973 10.2024 3.70571 10.1784 3.59043 10.1784C3.47515 10.1784 3.36113 10.2024 3.25559 10.2487C3.15004 10.2951 3.05528 10.3629 2.9773 10.4478C2.90995 10.5446 2.86335 10.6543 2.84044 10.77C2.81752 10.8856 2.81878 11.0048 2.84414 11.12C2.8695 11.2351 2.9184 11.3438 2.98778 11.4392C3.05717 11.5345 3.14552 11.6145 3.2473 11.674L7.8598 15.049C8.77957 15.6013 9.85156 15.8456 10.9198 15.7465" stroke="#057642" stroke-width="0.5625" stroke-linecap="round" stroke-linejoin="round"/>
<path d="M16.6235 13.643C16.3966 13.3989 16.2207 13.1121 16.106 12.7993C16.0906 12.5526 16.0529 12.3079 15.9935 12.068C15.9583 11.6363 15.8194 11.2195 15.5885 10.853C14.9344 10.0774 14.4685 9.161 14.2272 8.17551C14.0472 7.57926 13.9235 7.36551 13.3947 7.35426C13.176 7.37375 12.9738 7.47888 12.8322 7.64676C12.7655 7.73191 12.7162 7.82941 12.6872 7.93367C12.6583 8.03792 12.6502 8.14687 12.6635 8.25426C12.6636 8.52566 12.6862 8.79658 12.731 9.06426C12.9335 10.0993 13.1472 10.9543 13.1697 11.0105L8.34347 7.39926C8.25953 7.31588 8.15919 7.25083 8.04881 7.20823C7.93843 7.16563 7.82041 7.1464 7.70222 7.15176C7.58319 7.15809 7.46703 7.19061 7.36202 7.24701C7.25701 7.3034 7.16574 7.38228 7.09472 7.47801C7.03997 7.57106 7.0041 7.67399 6.98916 7.78092C6.97423 7.88784 6.98053 7.99667 7.0077 8.10116C7.03486 8.20565 7.08237 8.30376 7.14749 8.38987C7.21261 8.47598 7.29408 8.54841 7.38722 8.60301L9.91847 10.5155L10.6835 11.1455L6.63347 8.09676C6.54953 8.01338 6.44919 7.94833 6.33881 7.90573C6.22843 7.86313 6.11041 7.8439 5.99222 7.84926C5.81407 7.8511 5.64164 7.91245 5.50237 8.02356C5.36309 8.13466 5.26496 8.28914 5.22357 8.46243C5.18219 8.63573 5.19993 8.81788 5.27398 8.97993C5.34802 9.14197 5.47412 9.27461 5.63222 9.35676L8.16347 11.2693L9.68222 12.3943L6.43097 9.93051C6.34763 9.84746 6.24743 9.78328 6.13713 9.74232C6.02684 9.70137 5.90903 9.68459 5.79168 9.69312C5.67434 9.70166 5.5602 9.73531 5.45699 9.79179C5.35378 9.84827 5.26391 9.92627 5.19347 10.0205C4.84472 10.4705 5.11472 10.9318 5.48597 11.213L8.01722 13.103L9.27722 14.0593L6.75722 12.1468C6.60623 12.001 6.40457 11.9196 6.19472 11.9196C5.98487 11.9196 5.78322 12.001 5.63222 12.1468C5.55952 12.2372 5.5077 12.3426 5.48047 12.4554C5.45324 12.5682 5.45128 12.6856 5.47472 12.7993C5.49674 12.9126 5.54212 13.0202 5.60798 13.1151C5.67383 13.21 5.75871 13.2902 5.85722 13.3505L10.3572 16.7255C10.7326 17.0074 11.1674 17.1997 11.6285 17.288L12.281 17.3893C12.6247 17.4362 12.9566 17.5469 13.2597 17.7155C13.4768 17.7997 13.7176 17.7997 13.9347 17.7155C14.7244 17.4336 15.4158 16.9297 15.926 16.2643C16.3965 15.6041 16.6696 14.8238 16.7135 14.0143C16.7469 13.8585 16.7469 13.6975 16.7135 13.5418L16.6235 13.643Z" stroke="#057642" stroke-width="1.6875" stroke-linecap="round" stroke-linejoin="round"/>
<path fill-rule="evenodd" clip-rule="evenodd" d="M16.6686 13.5866L16.1623 13.2041C16.1077 12.3751 15.9138 11.5612 15.5886 10.7966C14.9345 10.021 14.4686 9.10462 14.2273 8.11912C14.0473 7.52287 13.9236 7.30912 13.3948 7.29787C13.1761 7.31736 12.9739 7.42249 12.8323 7.59037C12.7656 7.67552 12.7163 7.77302 12.6873 7.87728C12.6584 7.98153 12.6503 8.09048 12.6636 8.19787C12.6637 8.46927 12.6863 8.74019 12.7311 9.00787C12.9336 10.0541 13.1473 10.9091 13.1698 10.9541L8.34357 7.34287C8.25913 7.26061 8.15838 7.19696 8.04783 7.15602C7.93728 7.11509 7.81938 7.09777 7.70172 7.10519C7.58407 7.11261 7.46928 7.1446 7.36475 7.1991C7.26021 7.2536 7.16826 7.3294 7.09482 7.42162C6.74607 7.88287 7.02732 8.33287 7.38732 8.61412L9.91857 10.5154L10.6836 11.1454L6.63357 8.04037C6.54913 7.95811 6.44838 7.89446 6.33783 7.85352C6.22728 7.81259 6.10938 7.79527 5.99172 7.80269C5.87407 7.81011 5.75928 7.8421 5.65475 7.8966C5.55021 7.9511 5.45826 8.0269 5.38482 8.11912C5.03607 8.56912 5.31732 9.03037 5.67732 9.31162L8.20857 11.2129L9.72732 12.3379L6.43107 9.82912C6.34786 9.74539 6.24735 9.68087 6.13658 9.64006C6.02581 9.59925 5.90747 9.58314 5.78982 9.59287C5.67331 9.59795 5.55939 9.62884 5.45627 9.68332C5.35316 9.73779 5.26343 9.81449 5.19357 9.90787C5.1245 10.0022 5.07666 10.1104 5.05336 10.225C5.03006 10.3395 5.03183 10.4578 5.05857 10.5716C5.08861 10.6849 5.14221 10.7905 5.21588 10.8816C5.28955 10.9727 5.38162 11.0473 5.48607 11.1004L8.01732 13.0016L9.27732 13.9579L6.75732 12.0791C6.684 12.0043 6.59648 11.9448 6.49989 11.9042C6.40331 11.8637 6.29959 11.8428 6.19482 11.8428C6.09005 11.8428 5.98634 11.8637 5.88975 11.9042C5.79316 11.9448 5.70564 12.0043 5.63232 12.0791C5.55314 12.1706 5.4958 12.279 5.46462 12.3959C5.43343 12.5128 5.42923 12.6353 5.45232 12.7541C5.47244 12.874 5.5193 12.9878 5.58941 13.0872C5.65952 13.1865 5.75108 13.2688 5.85732 13.3279L10.3573 16.7029C11.0402 17.1084 11.8137 17.3366 12.6073 17.3666C12.8966 17.5404 13.1973 17.6945 13.5073 17.8279C14.4095 17.6566 15.2134 17.1502 15.7573 16.4104C16.3436 15.5559 16.6787 14.5543 16.7248 13.5191L16.6686 13.5866Z" fill="#DDF6D1"/>
<path d="M16.6235 13.643C16.3966 13.3989 16.2207 13.1121 16.106 12.7993C16.0906 12.5526 16.0529 12.3079 15.9935 12.068C15.9583 11.6363 15.8194 11.2195 15.5885 10.853C14.9344 10.0774 14.4685 9.161 14.2272 8.17551C14.0472 7.57926 13.9235 7.36551 13.3947 7.35426C13.176 7.37375 12.9738 7.47888 12.8322 7.64676C12.7655 7.73191 12.7162 7.82941 12.6872 7.93367C12.6583 8.03792 12.6502 8.14687 12.6635 8.25426C12.6636 8.52566 12.6862 8.79658 12.731 9.06426C12.9335 10.0993 13.1472 10.9543 13.1697 11.0105L8.34347 7.39926C8.25953 7.31588 8.15919 7.25083 8.04881 7.20823C7.93843 7.16563 7.82041 7.1464 7.70222 7.15176C7.58319 7.15809 7.46703 7.19061 7.36202 7.24701C7.25701 7.3034 7.16574 7.38228 7.09472 7.47801C7.03997 7.57106 7.0041 7.67399 6.98916 7.78092C6.97423 7.88784 6.98053 7.99667 7.0077 8.10116C7.03486 8.20565 7.08237 8.30376 7.14749 8.38987C7.21261 8.47598 7.29408 8.54841 7.38722 8.60301L9.91847 10.5155L10.6835 11.1455L6.63347 8.09676C6.54953 8.01338 6.44919 7.94833 6.33881 7.90573C6.22843 7.86313 6.11041 7.8439 5.99222 7.84926C5.81407 7.8511 5.64164 7.91245 5.50237 8.02356C5.36309 8.13466 5.26496 8.28914 5.22357 8.46243C5.18219 8.63573 5.19993 8.81788 5.27398 8.97993C5.34802 9.14197 5.47412 9.27461 5.63222 9.35676L8.16347 11.2693L9.68222 12.3943L6.43097 9.93051C6.34763 9.84746 6.24743 9.78328 6.13713 9.74232C6.02684 9.70137 5.90903 9.68459 5.79168 9.69312C5.67434 9.70166 5.5602 9.73531 5.45699 9.79179C5.35378 9.84827 5.26391 9.92627 5.19347 10.0205C4.84472 10.4705 5.11472 10.9318 5.48597 11.213L8.01722 13.103L9.27722 14.0593L6.75722 12.1468C6.60623 12.001 6.40457 11.9196 6.19472 11.9196C5.98487 11.9196 5.78322 12.001 5.63222 12.1468C5.55952 12.2372 5.5077 12.3426 5.48047 12.4554C5.45324 12.5682 5.45128 12.6856 5.47472 12.7993C5.49674 12.9126 5.54212 13.0202 5.60798 13.1151C5.67383 13.21 5.75871 13.2902 5.85722 13.3505L10.3572 16.7255C10.7326 17.0074 11.1674 17.1997 11.6285 17.288L12.281 17.3893C12.6247 17.4362 12.9566 17.5469 13.2597 17.7155C13.4768 17.7997 13.7176 17.7997 13.9347 17.7155C14.7244 17.4336 15.4158 16.9297 15.926 16.2643C16.3965 15.6041 16.6696 14.8238 16.7135 14.0143C16.7469 13.8585 16.7469 13.6975 16.7135 13.5418L16.6235 13.643Z" stroke="#057642" stroke-width="0.5625" stroke-linecap="round" stroke-linejoin="round"/>
<path d="M9.94137 4.00146L9.12012 5.03646" stroke="#057642" stroke-width="1.125" stroke-linecap="round" stroke-linejoin="round"/>
<path d="M6.18359 2.65161L6.26234 4.00161" stroke="#057642" stroke-width="1.125" stroke-linecap="round" stroke-linejoin="round"/>
<path d="M8.49004 2.66284L7.75879 4.41784" stroke="#057642" stroke-width="1.125" stroke-linecap="round" stroke-linejoin="round"/>
</svg>
