<svg width="18" height="18" viewBox="0 0 18 18" fill="none" xmlns="http://www.w3.org/2000/svg">
<path d="M9 0C11.3869 0 13.6761 0.948212 15.364 2.63604C17.0518 4.32387 18 6.61305 18 9C18 11.3869 17.0518 13.6761 15.364 15.364C13.6761 17.0518 11.3869 18 9 18C6.61305 18 4.32387 17.0518 2.63604 15.364C0.948212 13.6761 0 11.3869 0 9C0 6.61305 0.948212 4.32387 2.63604 2.63604C4.32387 0.948212 6.61305 0 9 0V0Z" fill="white"/>
<path d="M9 16.875C13.3492 16.875 16.875 13.3492 16.875 9C16.875 4.65076 13.3492 1.125 9 1.125C4.65076 1.125 1.125 4.65076 1.125 9C1.125 13.3492 4.65076 16.875 9 16.875Z" fill="#378FE9"/>
<path fill-rule="evenodd" clip-rule="evenodd" d="M13.421 8.15626H12.8023C12.746 8.15626 12.6335 7.94251 12.3523 7.63876C11.936 7.18876 11.4748 6.61501 11.1485 6.30001C10.3379 5.5985 9.67611 4.74163 9.20227 3.78001C8.93227 3.20626 8.90977 2.94751 8.35852 2.94751C8.1419 2.97811 7.94453 3.08852 7.80509 3.25709C7.66565 3.42566 7.59421 3.64025 7.60478 3.85876C7.60478 4.01626 7.68353 4.56751 7.71728 4.75876C7.95677 5.63888 8.33665 6.47461 8.84227 7.23376H4.63477C4.49772 7.23279 4.36196 7.26028 4.23609 7.31451C4.11021 7.36873 3.99697 7.4485 3.90352 7.54876C3.80962 7.64669 3.73791 7.7637 3.69326 7.89182C3.64861 8.01994 3.63207 8.15618 3.64477 8.29126C3.66211 8.55484 3.78067 8.80152 3.97565 8.97973C4.17063 9.15794 4.42695 9.25388 4.69102 9.24751H4.87102C4.63807 9.2561 4.417 9.35256 4.25227 9.51751C4.09744 9.68153 4.01268 9.89947 4.01602 10.125C4.01798 10.3517 4.10435 10.5695 4.25829 10.7359C4.41223 10.9024 4.62267 11.0054 4.84852 11.025C4.71105 11.1302 4.60682 11.2728 4.54833 11.4357C4.48984 11.5986 4.47957 11.7749 4.51875 11.9435C4.55793 12.1121 4.6449 12.2659 4.76924 12.3863C4.89358 12.5067 5.05001 12.5887 5.21977 12.6225C5.10889 12.8085 5.07271 13.0296 5.11853 13.2413C5.17785 13.4481 5.30368 13.6296 5.47653 13.7577C5.64939 13.8858 5.85964 13.9534 6.07477 13.95H8.65102C8.98849 13.9484 9.32458 13.9069 9.65227 13.8263L11.2498 13.3763H13.3873C14.5348 13.3313 14.8385 8.15626 13.421 8.15626Z" fill="#D0E8FF"/>
<path d="M8.35876 7.23392H4.62377C4.48157 7.23259 4.34077 7.2619 4.21092 7.31987C4.08108 7.37784 3.96524 7.4631 3.87131 7.56985C3.77737 7.6766 3.70753 7.80233 3.66654 7.93849C3.62555 8.07465 3.61437 8.21805 3.63377 8.35892C3.65648 8.61948 3.77701 8.86179 3.97111 9.0371C4.16521 9.21242 4.41849 9.30775 4.68002 9.30392H4.86002C4.62706 9.31251 4.40599 9.40897 4.24127 9.57392C4.16186 9.65786 4.10005 9.75685 4.05947 9.86504C4.0189 9.97324 4.00038 10.0885 4.00502 10.2039C4.00915 10.4311 4.09598 10.649 4.24923 10.8167C4.40248 10.9845 4.61164 11.0906 4.83752 11.1152C4.72993 11.1996 4.64272 11.3071 4.58235 11.4298C4.52198 11.5525 4.49 11.6872 4.48877 11.8239C4.48721 12.0355 4.55933 12.241 4.69276 12.4052C4.82618 12.5695 5.0126 12.6821 5.22002 12.7239C5.1084 12.9138 5.07226 13.1387 5.11877 13.3539C5.17846 13.5596 5.30473 13.7397 5.47779 13.866C5.65084 13.9922 5.8609 14.0574 6.07502 14.0514H8.65126C8.98873 14.0498 9.32482 14.0083 9.65251 13.9277L11.25 13.3989H13.3875C14.5125 13.3989 14.8163 8.17892 13.3875 8.17892C13.1814 8.19027 12.9749 8.19027 12.7688 8.17892C12.7688 8.17892 12.6 7.96517 12.3188 7.66142C11.9025 7.21142 11.4413 6.63767 11.115 6.32267C10.3142 5.6157 9.66383 4.75488 9.20252 3.79142C9.11109 3.58021 8.98986 3.38321 8.84251 3.20642C8.65515 3.04885 8.41339 2.97117 8.1693 2.9901C7.92522 3.00904 7.69834 3.12308 7.53751 3.30767C7.42093 3.43376 7.32591 3.57819 7.25626 3.73517C7.21226 3.84433 7.17837 3.95731 7.15502 4.07267C7.12483 4.38984 7.1515 4.70986 7.23377 5.01767C7.3009 5.34263 7.40273 5.65945 7.53751 5.96267C7.75066 6.35924 7.99917 6.73577 8.28001 7.08767C8.31473 7.10905 8.34217 7.14042 8.35876 7.17767" stroke="#004182" stroke-width="1.125" stroke-linecap="round" stroke-linejoin="round"/>
</svg>
