<svg width="18" height="19" viewBox="0 0 18 19" fill="none" xmlns="http://www.w3.org/2000/svg">
<path d="M9 17.7878C13.3492 17.7878 16.875 14.2621 16.875 9.91284C16.875 5.5636 13.3492 2.03784 9 2.03784C4.65076 2.03784 1.125 5.5636 1.125 9.91284C1.125 14.2621 4.65076 17.7878 9 17.7878Z" fill="#F5BB5C"/>
<path fill-rule="evenodd" clip-rule="evenodd" d="M9.92264 15.988H8.12264C7.96152 15.988 7.807 15.924 7.69307 15.8101C7.57914 15.6962 7.51514 15.5416 7.51514 15.3805V13.8843H10.5301V15.3805C10.5301 15.5416 10.4661 15.6962 10.3522 15.8101C10.2383 15.924 10.0838 15.988 9.92264 15.988Z" fill="#FFE1B2"/>
<path fill-rule="evenodd" clip-rule="evenodd" d="M7.52613 14.1767V13.8842C7.52862 13.5019 7.4678 13.1217 7.34613 12.7592C7.18836 12.4409 6.98775 12.1457 6.74988 11.8817C6.33427 11.5422 5.99877 11.115 5.76734 10.6308C5.53592 10.1465 5.41429 9.61717 5.41113 9.08049C5.41113 8.12273 5.7916 7.20419 6.46884 6.52695C7.14608 5.84971 8.06462 5.46924 9.02238 5.46924C9.98015 5.46924 10.8987 5.84971 11.5759 6.52695C12.2532 7.20419 12.6336 8.12273 12.6336 9.08049C12.6225 9.62836 12.4931 10.1674 12.2543 10.6606C12.0154 11.1538 11.6728 11.5895 11.2499 11.938C11.3286 11.8817 11.1599 12.0055 11.0474 12.163C10.9345 12.3249 10.8472 12.5033 10.7886 12.6917C10.6761 13.0561 10.6192 13.4354 10.6199 13.8167V14.1092" fill="#FCF0DE"/>
<path d="M8.39238 6.29053C7.86846 6.38124 7.38742 6.63753 7.01988 7.02178C6.63606 7.39456 6.37007 7.87177 6.25488 8.39428" stroke="white" stroke-width="2.25" stroke-linecap="round" stroke-linejoin="round"/>
<path d="M9.92264 15.988H8.12264C7.96152 15.988 7.807 15.924 7.69307 15.8101C7.57914 15.6962 7.51514 15.5416 7.51514 15.3805V13.8843H10.5301V15.3805C10.5301 15.5416 10.4661 15.6962 10.3522 15.8101C10.2383 15.924 10.0838 15.988 9.92264 15.988V15.988Z" stroke="#5D3B01" stroke-width="1.125" stroke-linecap="round" stroke-linejoin="round"/>
<path d="M8.9998 2.60034V4.01784M7.5148 14.1766V13.8841C7.51546 13.5027 7.45857 13.1235 7.34605 12.7591C7.27277 12.5705 7.17439 12.3926 7.05355 12.2303C6.9333 12.0541 6.79368 11.8918 6.6373 11.7466C6.48722 11.6115 6.34804 11.4648 6.22105 11.3078C5.69933 10.6739 5.41313 9.87887 5.41105 9.05784V9.05784C5.41105 8.10008 5.79152 7.18154 6.46877 6.5043C7.14601 5.82706 8.06454 5.44659 9.0223 5.44659C9.98007 5.44659 10.8986 5.82706 11.5758 6.5043C12.2531 7.18154 12.6336 8.10008 12.6336 9.05784C12.6202 9.87878 12.3309 10.6713 11.8123 11.3078C11.6216 11.5435 11.4067 11.7584 11.1711 11.9491L10.9461 12.1853C10.8367 12.3477 10.7532 12.5261 10.6986 12.7141C10.586 13.0785 10.5292 13.4577 10.5298 13.8391V14.1316L7.5148 14.1766ZM5.1748 3.88284L5.86105 4.77159L5.1748 3.88284ZM12.8473 3.87159L12.1611 4.77159L12.8473 3.87159Z" stroke="#5D3B01" stroke-width="1.125" stroke-linecap="round" stroke-linejoin="round"/>
<path d="M8.99977 2.03784C10.5573 2.03784 12.0799 2.49971 13.3749 3.36502C14.6699 4.23034 15.6793 5.46024 16.2753 6.89921C16.8714 8.33818 17.0273 9.92158 16.7235 11.4492C16.4196 12.9768 15.6696 14.38 14.5682 15.4813C13.4669 16.5826 12.0637 17.3327 10.5361 17.6365C9.00851 17.9404 7.42511 17.7844 5.98614 17.1884C4.54717 16.5924 3.31727 15.583 2.45195 14.288C1.58663 12.9929 1.12477 11.4704 1.12477 9.91284C1.12477 7.82426 1.95446 5.82123 3.43131 4.34438C4.90816 2.86753 6.91119 2.03784 8.99977 2.03784ZM8.99977 0.912845C6.91766 0.914482 4.90053 1.63798 3.29204 2.96007C1.68355 4.28217 0.583217 6.12106 0.178506 8.16346C-0.226205 10.2059 0.0897461 12.3254 1.07253 14.161C2.05531 15.9965 3.64413 17.4346 5.56828 18.2301C7.49243 19.0256 9.63288 19.1293 11.6249 18.5236C13.617 17.9179 15.3374 16.6403 16.4931 14.9084C17.6488 13.1765 18.1683 11.0974 17.963 9.02545C17.7577 6.95349 16.8404 5.0168 15.3673 3.54534C14.5308 2.70983 13.538 2.04731 12.4454 1.59562C11.3529 1.14392 10.182 0.911915 8.99977 0.912845Z" fill="white"/>
</svg>
