<svg width="18" height="18" viewBox="0 0 18 18" fill="none" xmlns="http://www.w3.org/2000/svg">
<path d="M9 16.875C13.3492 16.875 16.875 13.3492 16.875 9C16.875 4.65076 13.3492 1.125 9 1.125C4.65076 1.125 1.125 4.65076 1.125 9C1.125 13.3492 4.65076 16.875 9 16.875Z" fill="#F5BB5C"/>
<path fill-rule="evenodd" clip-rule="evenodd" d="M9.92264 15.0749H8.12264C7.96152 15.0749 7.807 15.0109 7.69307 14.897C7.57914 14.7831 7.51514 14.6286 7.51514 14.4674V12.9712H10.5301V14.4674C10.5301 14.6286 10.4661 14.7831 10.3522 14.897C10.2383 15.0109 10.0838 15.0749 9.92264 15.0749Z" fill="#FFE1B2"/>
<path fill-rule="evenodd" clip-rule="evenodd" d="M7.52613 13.2637V12.9712C7.52862 12.5888 7.4678 12.2087 7.34613 11.8462C7.18836 11.5278 6.98775 11.2326 6.74988 10.9687C6.33427 10.6291 5.99877 10.2019 5.76734 9.71769C5.53592 9.23346 5.41429 8.70409 5.41113 8.1674C5.41113 7.20964 5.7916 6.2911 6.46884 5.61386C7.14608 4.93662 8.06462 4.55615 9.02238 4.55615C9.98015 4.55615 10.8987 4.93662 11.5759 5.61386C12.2532 6.2911 12.6336 7.20964 12.6336 8.1674C12.6225 8.71528 12.4931 9.25428 12.2543 9.74748C12.0154 10.2407 11.6728 10.6764 11.2499 11.0249C11.3286 10.9687 11.1599 11.0924 11.0474 11.2499C10.9345 11.4118 10.8472 11.5902 10.7886 11.7787C10.6761 12.143 10.6192 12.5223 10.6199 12.9037V13.1962" fill="#FCF0DE"/>
<path d="M8.39238 5.37744C7.86846 5.46816 7.38742 5.72445 7.01988 6.10869C6.63606 6.48147 6.37007 6.95869 6.25488 7.48119" stroke="white" stroke-width="2.25" stroke-linecap="round" stroke-linejoin="round"/>
<path d="M9.92264 15.0749H8.12264C7.96152 15.0749 7.807 15.0109 7.69307 14.897C7.57914 14.7831 7.51514 14.6286 7.51514 14.4674V12.9712H10.5301V14.4674C10.5301 14.6286 10.4661 14.7831 10.3522 14.897C10.2383 15.0109 10.0838 15.0749 9.92264 15.0749V15.0749Z" stroke="#5D3B01" stroke-width="1.125" stroke-linecap="round" stroke-linejoin="round"/>
<path d="M8.9998 1.6875V3.105M7.5148 13.2637V12.9712C7.51546 12.5899 7.45857 12.2106 7.34605 11.8462C7.27277 11.6576 7.17439 11.4798 7.05355 11.3175C6.9333 11.1412 6.79368 10.979 6.6373 10.8337C6.48722 10.6987 6.34804 10.552 6.22105 10.395C5.69933 9.76104 5.41313 8.96603 5.41105 8.145V8.145C5.41105 7.18724 5.79152 6.2687 6.46877 5.59146C7.14601 4.91422 8.06454 4.53375 9.0223 4.53375C9.98007 4.53375 10.8986 4.91422 11.5758 5.59146C12.2531 6.2687 12.6336 7.18724 12.6336 8.145C12.6202 8.96593 12.3309 9.75848 11.8123 10.395C11.6216 10.6307 11.4067 10.8456 11.1711 11.0362L10.9461 11.2725C10.8367 11.4349 10.7532 11.6132 10.6986 11.8012C10.586 12.1656 10.5292 12.5449 10.5298 12.9262V13.2187L7.5148 13.2637ZM5.1748 2.97L5.86105 3.85875L5.1748 2.97ZM12.8473 2.95875L12.1611 3.85875L12.8473 2.95875Z" stroke="#5D3B01" stroke-width="1.125" stroke-linecap="round" stroke-linejoin="round"/>
<path d="M8.99977 1.125C10.5573 1.125 12.0799 1.58686 13.3749 2.45218C14.6699 3.3175 15.6793 4.5474 16.2753 5.98637C16.8714 7.42534 17.0273 9.00874 16.7235 10.5363C16.4196 12.0639 15.6696 13.4671 14.5682 14.5685C13.4669 15.6698 12.0637 16.4198 10.5361 16.7237C9.00851 17.0275 7.42511 16.8716 5.98614 16.2756C4.54717 15.6795 3.31727 14.6702 2.45195 13.3751C1.58663 12.0801 1.12477 10.5575 1.12477 9C1.12477 6.91142 1.95446 4.90839 3.43131 3.43154C4.90816 1.95469 6.91119 1.125 8.99977 1.125ZM8.99977 2.78279e-06C6.91766 0.00164004 4.90053 0.725138 3.29204 2.04723C1.68355 3.36933 0.583217 5.20822 0.178506 7.25062C-0.226205 9.29302 0.0897461 11.4126 1.07253 13.2481C2.05531 15.0837 3.64413 16.5217 5.56828 17.3172C7.49243 18.1127 9.63288 18.2165 11.6249 17.6108C13.617 17.0051 15.3374 15.7275 16.4931 13.9955C17.6488 12.2636 18.1683 10.1846 17.963 8.11261C17.7577 6.04065 16.8404 4.10396 15.3673 2.6325C14.5308 1.79699 13.538 1.13447 12.4454 0.682775C11.3529 0.231082 10.182 -0.000926873 8.99977 2.78279e-06Z" fill="white"/>
</svg>
