<svg width="41" height="21" viewBox="0 0 41 21" fill="none" xmlns="http://www.w3.org/2000/svg">
<path d="M10.0194 10.9404H10.0195C10.4153 10.9404 10.7361 10.6196 10.7361 10.2238C10.7361 9.82798 10.4153 9.50713 10.0195 9.50713L6.53614 9.50711L6.53614 6.02377C6.53614 5.62798 6.21529 5.30713 5.8195 5.30713C5.4237 5.30713 5.10285 5.62798 5.10285 6.02377L5.10281 9.50711L1.61947 9.50713C1.22368 9.50713 0.902832 9.82798 0.902832 10.2238C0.902832 10.6196 1.22368 10.9404 1.61947 10.9404H1.6195L5.10281 10.94L5.10285 14.4238C5.10285 14.8196 5.4237 15.1405 5.8195 15.1405C6.21529 15.1405 6.53614 14.8196 6.53614 14.4238L6.53614 10.94L10.0194 10.9404Z" fill="#0A66C2" stroke="#0A66C2" stroke-width="0.5"/>
<path d="M30.7433 11.2068C33.8799 11.2068 36.6252 12.4168 36.6252 15.0774C36.6252 16.473 36.083 17.0986 34.9437 17.0986H26.5429C25.3967 17.0986 24.8613 16.473 24.8613 15.0774C24.8613 12.4168 27.6067 11.2068 30.7433 11.2068ZM30.7433 3.34863C32.5827 3.34863 34.0789 4.84051 34.0789 6.68988C34.0789 8.53926 32.5895 10.0311 30.7433 10.0311C28.897 10.0311 27.4077 8.53238 27.4077 6.68988C27.4077 4.84738 28.9039 3.34863 30.7433 3.34863Z" fill="#0A66C2"/>
</svg>
