<svg width="380" height="311" viewBox="0 0 380 311" fill="none" xmlns="http://www.w3.org/2000/svg">
<path d="M176.636 310.913C262.507 310.913 332.119 241.313 332.119 155.456C332.119 69.6002 262.507 0 176.636 0C90.7655 0 21.1533 69.6002 21.1533 155.456C21.1533 241.313 90.7655 310.913 176.636 310.913Z" fill="#0B3D91"/>
<path d="M167.456 31.6028C168.419 31.6028 169.199 30.8225 169.199 29.86C169.199 28.8975 168.419 28.1172 167.456 28.1172C166.493 28.1172 165.713 28.8975 165.713 29.86C165.713 30.8225 166.493 31.6028 167.456 31.6028Z" fill="white"/>
<path d="M185.351 33.926C186.314 33.926 187.095 33.1457 187.095 32.1832C187.095 31.2207 186.314 30.4404 185.351 30.4404C184.389 30.4404 183.608 31.2207 183.608 32.1832C183.608 33.1457 184.389 33.926 185.351 33.926Z" fill="white"/>
<path d="M208.825 65.529C209.788 65.529 210.568 64.7488 210.568 63.7862C210.568 62.8237 209.788 62.0435 208.825 62.0435C207.862 62.0435 207.082 62.8237 207.082 63.7862C207.082 64.7488 207.862 65.529 208.825 65.529Z" fill="white"/>
<path d="M80.0693 228.189C81.0319 228.189 81.8123 227.408 81.8123 226.446C81.8123 225.483 81.0319 224.703 80.0693 224.703C79.1066 224.703 78.3262 225.483 78.3262 226.446C78.3262 227.408 79.1066 228.189 80.0693 228.189Z" fill="white"/>
<path d="M84.6015 242.131C85.5642 242.131 86.3446 241.351 86.3446 240.388C86.3446 239.426 85.5642 238.646 84.6015 238.646C83.6388 238.646 82.8584 239.426 82.8584 240.388C82.8584 241.351 83.6388 242.131 84.6015 242.131Z" fill="white"/>
<path d="M62.987 229.843C63.708 229.843 64.2924 229.258 64.2924 228.538C64.2924 227.817 63.708 227.232 62.987 227.232C62.2661 227.232 61.6816 227.817 61.6816 228.538C61.6816 229.258 62.2661 229.843 62.987 229.843Z" fill="white"/>
<path d="M133.872 257.235C134.595 257.235 135.181 256.649 135.181 255.926C135.181 255.203 134.595 254.617 133.872 254.617C133.149 254.617 132.562 255.203 132.562 255.926C132.562 256.649 133.149 257.235 133.872 257.235Z" fill="white"/>
<path d="M245.05 234.142C245.771 234.142 246.356 233.557 246.356 232.836C246.356 232.116 245.771 231.531 245.05 231.531C244.33 231.531 243.745 232.116 243.745 232.836C243.745 233.557 244.33 234.142 245.05 234.142Z" fill="white"/>
<path d="M277.359 199.057C278.082 199.057 278.668 198.471 278.668 197.748C278.668 197.026 278.082 196.439 277.359 196.439C276.636 196.439 276.05 197.026 276.05 197.748C276.05 198.471 276.636 199.057 277.359 199.057Z" fill="white"/>
<path d="M118.998 75.2846C119.719 75.2846 120.303 74.7003 120.303 73.9795C120.303 73.2587 119.719 72.6743 118.998 72.6743C118.277 72.6743 117.692 73.2587 117.692 73.9795C117.692 74.7003 118.277 75.2846 118.998 75.2846Z" fill="white"/>
<path d="M154.557 49.1738C155.278 49.1738 155.863 48.5894 155.863 47.8686C155.863 47.1478 155.278 46.5635 154.557 46.5635C153.836 46.5635 153.252 47.1478 153.252 47.8686C153.252 48.5894 153.836 49.1738 154.557 49.1738Z" fill="white"/>
<path d="M150.695 46.6176C151.416 46.6176 152 46.0333 152 45.3125C152 44.5917 151.416 44.0073 150.695 44.0073C149.974 44.0073 149.39 44.5917 149.39 45.3125C149.39 46.0333 149.974 46.6176 150.695 46.6176Z" fill="white"/>
<path d="M147.209 44.062C147.93 44.062 148.514 43.4776 148.514 42.7568C148.514 42.036 147.93 41.4517 147.209 41.4517C146.488 41.4517 145.903 42.036 145.903 42.7568C145.903 43.4776 146.488 44.062 147.209 44.062Z" fill="white"/>
<path d="M124.576 82.0273C125.297 82.0273 125.881 81.443 125.881 80.7221C125.881 80.0013 125.297 79.417 124.576 79.417C123.855 79.417 123.271 80.0013 123.271 80.7221C123.271 81.443 123.855 82.0273 124.576 82.0273Z" fill="white"/>
<path d="M176.954 14.0859C177.675 14.0859 178.259 13.5016 178.259 12.7807C178.259 12.0599 177.675 11.4756 176.954 11.4756C176.233 11.4756 175.648 12.0599 175.648 12.7807C175.648 13.5016 176.233 14.0859 176.954 14.0859Z" fill="white"/>
<path d="M185.556 51.7299C186.277 51.7299 186.862 51.1456 186.862 50.4248C186.862 49.704 186.277 49.1196 185.556 49.1196C184.835 49.1196 184.251 49.704 184.251 50.4248C184.251 51.1456 184.835 51.7299 185.556 51.7299Z" fill="white"/>
<path d="M171.988 44.3793C172.709 44.3793 173.293 43.795 173.293 43.0742C173.293 42.3534 172.709 41.769 171.988 41.769C171.267 41.769 170.683 42.3534 170.683 43.0742C170.683 43.795 171.267 44.3793 171.988 44.3793Z" fill="white"/>
<path d="M148.747 54.375C149.468 54.375 150.052 53.7906 150.052 53.0698C150.052 52.349 149.468 51.7646 148.747 51.7646C148.026 51.7646 147.441 52.349 147.441 53.0698C147.441 53.7906 148.026 54.375 148.747 54.375Z" fill="white"/>
<path d="M251.24 268.622C251.961 268.622 252.545 268.037 252.545 267.316C252.545 266.596 251.961 266.011 251.24 266.011C250.519 266.011 249.935 266.596 249.935 267.316C249.935 268.037 250.519 268.622 251.24 268.622Z" fill="white"/>
<path d="M77.861 236.585C78.5841 236.585 79.1703 235.999 79.1703 235.276C79.1703 234.553 78.5841 233.967 77.861 233.967C77.1379 233.967 76.5518 234.553 76.5518 235.276C76.5518 235.999 77.1379 236.585 77.861 236.585Z" fill="white"/>
<path d="M168.734 253.432C169.457 253.432 170.043 252.846 170.043 252.123C170.043 251.401 169.457 250.814 168.734 250.814C168.011 250.814 167.425 251.401 167.425 252.123C167.425 252.846 168.011 253.432 168.734 253.432Z" fill="white"/>
<path d="M104.906 235.54C105.629 235.54 106.215 234.954 106.215 234.231C106.215 233.508 105.629 232.922 104.906 232.922C104.183 232.922 103.597 233.508 103.597 234.231C103.597 234.954 104.183 235.54 104.906 235.54Z" fill="white"/>
<path d="M116.209 253.986C116.932 253.986 117.518 253.4 117.518 252.677C117.518 251.954 116.932 251.368 116.209 251.368C115.486 251.368 114.899 251.954 114.899 252.677C114.899 253.4 115.486 253.986 116.209 253.986Z" fill="white"/>
<path d="M199.413 242.364C200.134 242.364 200.718 241.779 200.718 241.059C200.718 240.338 200.134 239.753 199.413 239.753C198.692 239.753 198.107 240.338 198.107 241.059C198.107 241.779 198.692 242.364 199.413 242.364Z" fill="white"/>
<path d="M245.282 216.481C246.003 216.481 246.587 215.897 246.587 215.176C246.587 214.455 246.003 213.871 245.282 213.871C244.561 213.871 243.977 214.455 243.977 215.176C243.977 215.897 244.561 216.481 245.282 216.481Z" fill="white"/>
<path d="M280.058 232.368C280.779 232.368 281.364 231.783 281.364 231.063C281.364 230.342 280.779 229.757 280.058 229.757C279.337 229.757 278.753 230.342 278.753 231.063C278.753 231.783 279.337 232.368 280.058 232.368Z" fill="white"/>
<path d="M291.912 239.951C292.633 239.951 293.217 239.367 293.217 238.646C293.217 237.925 292.633 237.341 291.912 237.341C291.191 237.341 290.606 237.925 290.606 238.646C290.606 239.367 291.191 239.951 291.912 239.951Z" fill="white"/>
<path d="M293.86 219.27C294.581 219.27 295.165 218.686 295.165 217.965C295.165 217.244 294.581 216.66 293.86 216.66C293.139 216.66 292.555 217.244 292.555 217.965C292.555 218.686 293.139 219.27 293.86 219.27Z" fill="white"/>
<path d="M120.942 189.991C121.663 189.991 122.247 189.406 122.247 188.686C122.247 187.965 121.663 187.38 120.942 187.38C120.221 187.38 119.637 187.965 119.637 188.686C119.637 189.406 120.221 189.991 120.942 189.991Z" fill="white"/>
<path d="M121.438 220.405C122.401 220.405 123.181 219.624 123.181 218.662C123.181 217.699 122.401 216.919 121.438 216.919C120.476 216.919 119.695 217.699 119.695 218.662C119.695 219.624 120.476 220.405 121.438 220.405Z" fill="white"/>
<path d="M131.896 242.48C132.859 242.48 133.639 241.7 133.639 240.737C133.639 239.775 132.859 238.995 131.896 238.995C130.934 238.995 130.153 239.775 130.153 240.737C130.153 241.7 130.934 242.48 131.896 242.48Z" fill="white"/>
<path d="M257.166 219.475C258.129 219.475 258.909 218.695 258.909 217.732C258.909 216.77 258.129 215.989 257.166 215.989C256.203 215.989 255.423 216.77 255.423 217.732C255.423 218.695 256.203 219.475 257.166 219.475Z" fill="white"/>
<path d="M302.255 216.919C303.217 216.919 303.998 216.139 303.998 215.176C303.998 214.214 303.217 213.434 302.255 213.434C301.292 213.434 300.512 214.214 300.512 215.176C300.512 216.139 301.292 216.919 302.255 216.919Z" fill="white"/>
<path d="M279.942 207.391C280.905 207.391 281.685 206.611 281.685 205.649C281.685 204.686 280.905 203.906 279.942 203.906C278.98 203.906 278.199 204.686 278.199 205.649C278.199 206.611 278.98 207.391 279.942 207.391Z" fill="white"/>
<path d="M257.166 208.321C258.129 208.321 258.909 207.541 258.909 206.579C258.909 205.616 258.129 204.836 257.166 204.836C256.203 204.836 255.423 205.616 255.423 206.579C255.423 207.541 256.203 208.321 257.166 208.321Z" fill="white"/>
<path d="M210.184 28.7676L214.519 28.3532L210.192 28.1092C210.057 27.2726 209.387 26.6181 208.542 26.5097L208.128 22.1953L207.88 26.5445C207.097 26.7188 206.497 27.3733 206.4 28.1866L201.969 28.5894L206.431 28.8295C206.594 29.577 207.198 30.1618 207.957 30.3012L208.36 34.7472L208.596 30.3089C209.398 30.1734 210.033 29.5576 210.184 28.7676Z" fill="white"/>
<path d="M137.029 77.0161L141.364 76.6017L137.037 76.3577C136.905 75.5212 136.231 74.8667 135.387 74.7582L134.972 70.4438L134.728 74.7931C133.942 74.9674 133.342 75.6219 133.245 76.4352L128.813 76.8379L133.276 77.0781C133.438 77.8255 134.043 78.4103 134.802 78.5497L135.205 82.9958L135.445 78.5575C136.247 78.4258 136.882 77.8062 137.029 77.0161Z" fill="white"/>
<path d="M299.078 204.58L303.413 204.166L299.086 203.922C298.954 203.085 298.28 202.431 297.436 202.322L297.021 198.008L296.777 202.357C295.995 202.531 295.394 203.186 295.298 203.999L290.866 204.402L295.329 204.642C295.491 205.389 296.095 205.974 296.855 206.114L297.258 210.56L297.498 206.121C298.292 205.99 298.927 205.374 299.078 204.58Z" fill="white"/>
<path d="M122.388 271.278L126.722 270.864L122.395 270.62C122.26 269.783 121.59 269.129 120.745 269.02L120.331 264.71L120.087 269.055C119.3 269.23 118.7 269.884 118.603 270.697L114.172 271.1L118.634 271.34C118.797 272.088 119.401 272.676 120.16 272.812L120.563 277.258L120.803 272.82C121.601 272.688 122.24 272.068 122.388 271.278Z" fill="white"/>
<path d="M285.308 238.747L289.642 238.332L285.315 238.088C285.184 237.252 284.51 236.597 283.665 236.489L283.251 232.174L283.007 236.52C282.224 236.694 281.624 237.348 281.527 238.162L277.096 238.565L281.558 238.805C281.721 239.552 282.325 240.137 283.084 240.276L283.487 244.722L283.727 240.284C284.521 240.156 285.16 239.537 285.308 238.747Z" fill="white"/>
<path d="M213.508 118.219C195.431 125.244 177.798 131.514 162.92 136.169C132.687 145.635 49.9684 171.258 0 203.557L4.1834 205.184C34.6293 187.988 54.4191 182.586 73.4419 176.602C94.1265 170.096 160.995 154.449 191.274 145.929C201.504 143.052 213.485 139.283 226.175 134.698C223.223 130.581 220.109 126.452 216.832 122.332C215.736 120.941 214.624 119.57 213.508 118.219ZM235.595 148.656C231.218 151.611 227.55 153.969 224.982 155.456C210.107 164.054 137.591 213.549 121.094 224.935C104.597 236.322 58.8078 279.543 45.3279 292.091L44.8631 297.199C88.324 258.161 101.959 248.533 119.235 235.392C140.616 219.126 184.848 189.034 199.881 179.391C214.252 170.173 227.213 161.695 238.845 153.938C238.655 153.621 238.465 153.303 238.276 152.982C237.4 151.545 236.505 150.104 235.595 148.656ZM303.533 76.9148C282.36 89.3234 248.99 104.3 216.615 117.007C217.39 117.955 218.16 118.912 218.927 119.876C222.545 124.431 225.958 129.016 229.169 133.606C254.618 124.233 282.542 111.654 304.699 96.4301C294.143 106.43 259.247 132.506 237.97 147.041C239.066 148.826 240.127 150.611 241.154 152.389C273.389 130.821 295.081 114.946 307.72 104.331C325.151 89.6913 364.893 56.927 380 13.0088C353.501 46.7065 322.172 65.9895 303.533 76.9148Z" fill="#FC3D21"/>
<path d="M156.63 193.949C153.202 189.634 148.46 183.856 144.901 179.375C140.14 173.384 135.736 167.331 131.7 161.285C130.383 161.614 129.07 161.944 127.757 162.273C132.629 169.875 138.041 177.466 143.936 184.886C148.244 190.308 152.16 194.673 154.166 197.388C154.573 197.938 155.379 199.154 156.467 200.773C157.722 199.921 158.989 199.061 160.267 198.193C159.031 196.85 157.811 195.436 156.63 193.949ZM181.653 216.659C178.837 213.995 172.008 209.545 164.9 202.868C163.331 203.945 161.747 205.037 160.159 206.137C164.749 212.604 171.001 220.548 175.897 222.864C183.272 226.357 185.259 220.075 181.653 216.659ZM218.928 119.877C178.287 68.7316 128.64 40.6341 107.235 57.6398C90.6095 70.8462 97.4346 109.443 120.35 149.988C121.536 149.581 122.709 149.182 123.871 148.787C100.743 109.284 94.4133 72.5735 110.093 60.1145C129.798 44.4605 177.376 72.6665 216.84 122.328C225.009 132.607 232.19 142.924 238.272 152.982C261.56 191.517 268.706 226.365 252.616 240.59C247.692 244.943 232.648 246.651 212.939 237.782C212.664 238.127 213.106 239.06 213.45 239.288C230.463 246.128 246.759 248.734 254.986 242.201C274.757 226.492 259.569 171.022 218.928 119.877Z" fill="white"/>
<path d="M44.627 125.945H70.657L92.5037 163.009C92.5037 163.009 92.5037 136.17 92.5037 134.078C92.5037 130.825 88.3784 126.584 86.9258 125.945C88.6689 125.945 103.892 125.945 104.938 125.945C103.834 126.236 100.289 130.535 100.289 134.078C100.289 135.821 100.289 174.743 100.289 176.602C100.289 179.216 104.066 182.818 105.867 184.212H80.7669L58.5716 146.975C58.5716 146.975 58.5716 174.743 58.5716 176.254C58.5716 179.158 61.4187 181.947 64.3819 184.329H45.208C47.9388 183.167 50.5534 179.507 50.7858 176.602C51.0183 173.698 50.7858 136.228 50.7858 134.601C50.7858 131.057 47.3578 128.153 44.627 125.945Z" fill="white"/>
<path d="M282.732 184.212H317.362C315.444 183.748 313.294 181.482 312.132 178.461C310.97 175.44 292.61 125.945 292.61 125.945H279.444C275.71 128.633 271.708 131.468 267.436 134.454C267.424 134.562 267.413 134.671 267.393 134.775C266.82 138.261 256.516 175.572 255.889 177.416C255.017 179.972 250.543 182.818 248.742 184.329H267.393C265.534 182.237 264.023 180.204 264.372 177.88C264.72 175.557 265.766 170.909 265.766 170.909H285.056C285.928 173.233 286.579 175.32 286.916 177.299C287.322 179.681 284.882 182.353 282.732 184.212ZM267.509 163.473L274.017 142.211L282.616 163.473H267.509ZM264.577 128.068C265.534 127.363 266.495 126.654 267.451 125.945H262.396C262.9 126.41 263.733 127.142 264.577 128.068Z" fill="white"/>
<path d="M132.13 177.88C132.478 175.557 133.524 170.909 133.524 170.909H152.814C153.686 173.233 154.337 175.32 154.674 177.299C155.08 179.681 152.64 182.353 150.49 184.212H180.979C181.614 183.786 182.245 183.36 182.877 182.938C181.695 181.893 180.607 180.324 179.89 178.461C178.728 175.44 160.368 125.945 160.368 125.945H130.154C131.607 127.281 135.79 130.883 135.151 134.775C134.582 138.261 124.274 175.572 123.647 177.416C122.775 179.972 118.301 182.818 116.5 184.329H135.151C133.292 182.237 131.781 180.204 132.13 177.88ZM141.775 142.211L150.374 163.473H135.267L141.775 142.211Z" fill="white"/>
<path d="M237.447 154.868C231.76 158.656 225.76 162.61 219.439 166.738C222.274 168.113 224.532 169.841 224.749 172.071C225.152 176.262 216.731 178.287 209.12 177.416C207.597 177.242 206.102 176.843 204.677 176.308C203.096 177.327 201.5 178.353 199.881 179.391C198.235 180.448 196.236 181.75 193.955 183.252V189.267C195.465 186.304 198.77 183.651 201.334 183.516C202.438 183.457 206.273 187.001 222.077 186.13C229.746 185.708 244.562 177.532 244.33 168.121C244.19 162.56 241.285 158.222 237.447 154.868ZM193.951 169.399V175.526C195.349 174.593 196.728 173.675 198.08 172.78C195.954 171.301 194.447 169.918 193.951 169.399ZM232.043 151.022C230.571 150.151 229.08 149.388 227.651 148.714C220.213 145.229 212.428 144.59 210.801 139.884C209.654 136.565 212.892 133.494 220.794 133.61C228.696 133.726 236.017 138.432 237.993 140.116V125.128C237.412 125.709 234.863 128.633 232.531 128.149C228.057 127.22 220.446 126.008 211.73 126.058C201.737 126.116 193.137 133.838 192.847 143.602C192.44 157.254 203.364 160.972 209.522 163.121C210.158 163.342 210.882 163.578 211.668 163.83C217.576 159.988 222.247 157.029 224.982 155.453C226.818 154.396 229.223 152.877 232.043 151.022Z" fill="white"/>
</svg>
