<svg width="19" height="18" viewBox="0 0 19 18" fill="none" xmlns="http://www.w3.org/2000/svg">
<path d="M9.00732 1.125C11.0959 1.125 13.0989 1.95468 14.5758 3.43153C16.0526 4.90838 16.8823 6.91142 16.8823 9C16.8823 11.0886 16.0526 13.0916 14.5758 14.5685C13.0989 16.0453 11.0959 16.875 9.00732 16.875C6.91874 16.875 4.91571 16.0453 3.43886 14.5685C1.96201 13.0916 1.13232 11.0886 1.13232 9C1.13232 6.91142 1.96201 4.90838 3.43886 3.43153C4.91571 1.95468 6.91874 1.125 9.00732 1.125Z" fill="#D8D8D8"/>
<path d="M9.00732 16.875C13.3566 16.875 16.8823 13.3492 16.8823 9C16.8823 4.65076 13.3566 1.125 9.00732 1.125C4.65808 1.125 1.13232 4.65076 1.13232 9C1.13232 13.3492 4.65808 16.875 9.00732 16.875Z" fill="#6DAE4F"/>
<path d="M9.00758 1.125C10.5651 1.125 12.0877 1.58686 13.3827 2.45218C14.6777 3.3175 15.6871 4.5474 16.2831 5.98637C16.8792 7.42534 17.0351 9.00874 16.7313 10.5363C16.4274 12.0639 15.6774 13.4671 14.576 14.5685C13.4747 15.6698 12.0715 16.4198 10.5439 16.7237C9.01632 17.0275 7.43292 16.8716 5.99395 16.2756C4.55499 15.6795 3.32508 14.6702 2.45976 13.3751C1.59445 12.0801 1.13259 10.5575 1.13259 9C1.13259 6.91142 1.96227 4.90839 3.43912 3.43154C4.91597 1.95469 6.919 1.125 9.00758 1.125ZM9.00758 2.78279e-06C6.92548 0.00164004 4.90834 0.725138 3.29985 2.04723C1.69136 3.36933 0.591029 5.20822 0.186318 7.25062C-0.218393 9.29302 0.0975586 11.4126 1.08034 13.2481C2.06313 15.0837 3.65194 16.5217 5.57609 17.3172C7.50024 18.1127 9.64069 18.2165 11.6328 17.6108C13.6248 17.0051 15.3453 15.7275 16.501 13.9955C17.6566 12.2636 18.1761 10.1846 17.9708 8.11261C17.7655 6.04065 16.8482 4.10396 15.3751 2.6325C14.5386 1.79699 13.5458 1.13447 12.4532 0.682775C11.3607 0.231082 10.1898 -0.000926873 9.00758 2.78279e-06Z" fill="white"/>
<path d="M13.6536 10.3724C13.6307 9.4887 13.4946 8.61155 13.2486 7.76244C12.563 7.20083 12.0453 6.4613 11.7523 5.62494C11.5723 5.02869 11.4486 4.81494 10.9198 4.80369C10.7048 4.82918 10.5082 4.93741 10.3717 5.10543C10.2352 5.27345 10.1695 5.48804 10.1886 5.70369C10.1886 5.97369 10.1886 6.25494 10.2561 6.51369C10.4102 7.25132 10.6286 7.97407 10.9086 8.67369L5.84605 4.87119C5.76161 4.78893 5.66086 4.72528 5.55031 4.68434C5.43976 4.64341 5.32186 4.62609 5.20421 4.63351C5.08655 4.64093 4.97176 4.67292 4.86723 4.72742C4.7627 4.78192 4.67074 4.85772 4.5973 4.94994C4.54302 5.04366 4.5078 5.14719 4.49369 5.25458C4.47958 5.36196 4.48685 5.47108 4.51508 5.57564C4.54332 5.68021 4.59195 5.77816 4.65819 5.86385C4.72443 5.94954 4.80697 6.02128 4.90105 6.07494L7.4323 7.98744L8.09605 8.61744L4.0798 5.62494C3.97115 5.51731 3.83389 5.44313 3.68432 5.41122C3.53475 5.37932 3.37917 5.39102 3.23605 5.44494C3.09179 5.49564 2.96572 5.58782 2.87365 5.7099C2.78159 5.83199 2.72763 5.97855 2.71855 6.13119C2.70762 6.2823 2.7399 6.43341 2.81161 6.56687C2.88332 6.70033 2.99151 6.81065 3.12355 6.88494L5.6323 8.74119L7.15105 9.86619L3.88855 7.40244C3.80254 7.32269 3.7016 7.26076 3.59154 7.22022C3.48149 7.17967 3.36449 7.16131 3.2473 7.16619C3.01123 7.18711 2.79293 7.3003 2.6398 7.48119C2.29105 7.93119 2.5723 8.39244 2.9323 8.67369L5.46355 10.5749L6.7573 11.5312L4.20355 9.61869C4.12557 9.53379 4.03081 9.46601 3.92527 9.41964C3.81973 9.37328 3.70571 9.34933 3.59043 9.34933C3.47515 9.34933 3.36113 9.37328 3.25559 9.41964C3.15004 9.46601 3.05528 9.53379 2.9773 9.61869C2.90995 9.71549 2.86335 9.82517 2.84044 9.94085C2.81752 10.0565 2.81878 10.1757 2.84414 10.2909C2.8695 10.406 2.9184 10.5147 2.98778 10.6101C3.05717 10.7054 3.14552 10.7854 3.2473 10.8449L7.8598 14.2199C8.5348 14.7262 10.1886 15.1649 10.9198 14.5237" stroke="#057642" stroke-width="1.6875" stroke-linecap="round" stroke-linejoin="round"/>
<path fill-rule="evenodd" clip-rule="evenodd" d="M14.1936 11.1377L13.7211 10.7214C13.664 9.89274 13.4701 9.07924 13.1474 8.3139C12.4875 7.5378 12.021 6.61637 11.7861 5.62515C11.6061 5.0289 11.4824 4.81515 10.9536 4.8039C10.7386 4.82939 10.542 4.93763 10.4055 5.10565C10.269 5.27367 10.2033 5.48826 10.2224 5.7039C10.2224 5.9739 10.2224 6.25515 10.2899 6.5139C10.4207 7.22424 10.6281 7.9183 10.9086 8.5839L10.6949 8.4714L5.8461 4.74765C5.76166 4.6654 5.66091 4.60175 5.55036 4.56081C5.43981 4.51987 5.32191 4.50255 5.20426 4.50997C5.0866 4.51739 4.97181 4.54938 4.86728 4.60389C4.76275 4.65839 4.67079 4.73419 4.59735 4.8264C4.53277 4.92281 4.48936 5.03181 4.46996 5.14622C4.45057 5.26063 4.45565 5.37785 4.48485 5.49015C4.51159 5.60327 4.56268 5.70918 4.63458 5.8005C4.70647 5.89183 4.79743 5.96636 4.9011 6.0189L7.3761 7.87515L8.0961 8.4489L4.07985 5.44515C3.99577 5.36265 3.89513 5.29892 3.78459 5.2582C3.67405 5.21747 3.55612 5.20067 3.4386 5.2089C3.3221 5.216 3.20824 5.24656 3.10384 5.29876C2.99945 5.35095 2.90668 5.42371 2.8311 5.51265C2.769 5.61018 2.72706 5.71916 2.70774 5.83315C2.68841 5.94715 2.69211 6.06386 2.7186 6.1764C2.74023 6.29577 2.78768 6.40897 2.85764 6.50808C2.9276 6.60718 3.01837 6.6898 3.1236 6.75015L5.63235 8.61765L7.1511 9.74265L3.8886 7.29015C3.80507 7.20621 3.7048 7.14079 3.59432 7.09815C3.48384 7.0555 3.36562 7.0366 3.24735 7.04265C3.12986 7.0505 3.01525 7.08252 2.91071 7.13673C2.80618 7.19093 2.71396 7.26614 2.63985 7.35765C2.57399 7.45314 2.5291 7.5615 2.50814 7.6756C2.48718 7.78969 2.49064 7.90693 2.51827 8.0196C2.54591 8.13226 2.5971 8.23779 2.66847 8.32924C2.73984 8.42069 2.82978 8.49598 2.93235 8.55015L5.4636 10.4514L6.75735 11.4077L4.2036 9.5064C4.12777 9.41949 4.03448 9.34953 3.92981 9.30107C3.82514 9.25261 3.71144 9.22674 3.5961 9.22515C3.47933 9.2279 3.36432 9.25423 3.25799 9.30256C3.15166 9.35089 3.0562 9.42023 2.97735 9.5064C2.90849 9.60172 2.8606 9.71054 2.83683 9.8257C2.81307 9.94086 2.81397 10.0598 2.83948 10.1745C2.86499 10.2893 2.91452 10.3974 2.98483 10.4917C3.05513 10.5859 3.1446 10.6642 3.24735 10.7214L7.88235 14.2202C8.21199 14.4715 8.58993 14.6522 8.99255 14.7509C9.39517 14.8496 9.81382 14.8643 10.2224 14.7939C10.4493 14.97 10.7283 15.0655 11.0155 15.0655C11.3027 15.0655 11.5817 14.97 11.8086 14.7939C12.4836 14.2764 12.2699 14.2202 12.7649 13.5227C13.3298 12.7843 13.8091 11.9842 14.1936 11.1377Z" fill="#DCF0CB"/>
<path d="M13.6536 10.3724C13.6307 9.4887 13.4946 8.61155 13.2486 7.76244C12.563 7.20083 12.0453 6.4613 11.7523 5.62494C11.5723 5.02869 11.4486 4.81494 10.9198 4.80369C10.7048 4.82918 10.5082 4.93741 10.3717 5.10543C10.2352 5.27345 10.1695 5.48804 10.1886 5.70369C10.1886 5.97369 10.1886 6.25494 10.2561 6.51369C10.4102 7.25132 10.6286 7.97407 10.9086 8.67369L5.84605 4.87119C5.76161 4.78893 5.66086 4.72528 5.55031 4.68434C5.43976 4.64341 5.32186 4.62609 5.20421 4.63351C5.08655 4.64093 4.97176 4.67292 4.86723 4.72742C4.7627 4.78192 4.67074 4.85772 4.5973 4.94994C4.54302 5.04366 4.5078 5.14719 4.49369 5.25458C4.47958 5.36196 4.48685 5.47108 4.51508 5.57564C4.54332 5.68021 4.59195 5.77815 4.65819 5.86385C4.72443 5.94954 4.80697 6.02128 4.90105 6.07494L7.4323 7.98744L8.09605 8.61744L4.0798 5.62494C3.97115 5.51731 3.83389 5.44313 3.68432 5.41122C3.53475 5.37932 3.37917 5.39102 3.23605 5.44494C3.09179 5.49564 2.96572 5.58782 2.87365 5.7099C2.78159 5.83199 2.72763 5.97855 2.71855 6.13119C2.70762 6.2823 2.7399 6.43341 2.81161 6.56687C2.88332 6.70033 2.99151 6.81065 3.12355 6.88494L5.6323 8.74119L7.15105 9.86619L3.88855 7.40244C3.80254 7.32269 3.7016 7.26076 3.59154 7.22022C3.48149 7.17967 3.36449 7.16131 3.2473 7.16619C3.01123 7.1871 2.79293 7.3003 2.6398 7.48119C2.29105 7.93119 2.5723 8.39244 2.9323 8.67369L5.46355 10.5749L6.7573 11.5312L4.20355 9.61869C4.12557 9.53379 4.03081 9.46601 3.92527 9.41964C3.81973 9.37328 3.70571 9.34933 3.59043 9.34933C3.47515 9.34933 3.36113 9.37328 3.25559 9.41964C3.15004 9.46601 3.05528 9.53379 2.9773 9.61869C2.90995 9.71549 2.86335 9.82517 2.84044 9.94085C2.81752 10.0565 2.81878 10.1757 2.84414 10.2909C2.8695 10.406 2.9184 10.5147 2.98778 10.6101C3.05717 10.7054 3.14552 10.7854 3.2473 10.8449L7.8598 14.2199C8.77957 14.7722 9.85156 15.0165 10.9198 14.9174" stroke="#057642" stroke-width="0.5625" stroke-linecap="round" stroke-linejoin="round"/>
<path d="M16.6235 12.8139C16.3966 12.5698 16.2207 12.283 16.106 11.9702C16.0906 11.7235 16.0529 11.4788 15.9935 11.2389C15.9583 10.8072 15.8194 10.3904 15.5885 10.0239C14.9344 9.24827 14.4685 8.3319 14.2272 7.34641C14.0472 6.75016 13.9235 6.53641 13.3947 6.52516C13.176 6.54465 12.9738 6.64978 12.8322 6.81765C12.7655 6.90281 12.7162 7.00031 12.6872 7.10457C12.6583 7.20882 12.6502 7.31777 12.6635 7.42515C12.6636 7.69656 12.6862 7.96748 12.731 8.23515C12.9335 9.27015 13.1472 10.1252 13.1697 10.1814L8.34347 6.57016C8.25953 6.48678 8.15919 6.42173 8.04881 6.37913C7.93843 6.33653 7.82041 6.3173 7.70222 6.32265C7.58319 6.32899 7.46703 6.36151 7.36202 6.41791C7.25701 6.4743 7.16574 6.55318 7.09472 6.6489C7.03997 6.74196 7.0041 6.84489 6.98916 6.95182C6.97423 7.05874 6.98053 7.16757 7.0077 7.27206C7.03486 7.37655 7.08237 7.47465 7.14749 7.56077C7.21261 7.64688 7.29408 7.71931 7.38722 7.7739L9.91847 9.6864L10.6835 10.3164L6.63347 7.26765C6.54953 7.18428 6.44919 7.11923 6.33881 7.07663C6.22843 7.03403 6.11041 7.0148 5.99222 7.02015C5.81407 7.022 5.64164 7.08335 5.50237 7.19445C5.36309 7.30556 5.26496 7.46004 5.22357 7.63333C5.18219 7.80662 5.19993 7.98878 5.27398 8.15082C5.34802 8.31287 5.47412 8.44551 5.63222 8.52765L8.16347 10.4402L9.68222 11.5652L6.43097 9.1014C6.34763 9.01835 6.24743 8.95418 6.13713 8.91322C6.02684 8.87227 5.90903 8.85549 5.79168 8.86402C5.67434 8.87256 5.5602 8.9062 5.45699 8.96269C5.35378 9.01917 5.26391 9.09717 5.19347 9.1914C4.84472 9.6414 5.11472 10.1027 5.48597 10.3839L8.01722 12.2739L9.27722 13.2302L6.75722 11.3177C6.60623 11.1719 6.40457 11.0905 6.19472 11.0905C5.98487 11.0905 5.78322 11.1719 5.63222 11.3177C5.55952 11.4081 5.5077 11.5135 5.48047 11.6263C5.45324 11.7391 5.45128 11.8565 5.47472 11.9702C5.49674 12.0835 5.54212 12.1911 5.60798 12.286C5.67383 12.3809 5.75871 12.4611 5.85722 12.5214L10.3572 15.8964C10.7326 16.1783 11.1674 16.3706 11.6285 16.4589L12.281 16.5602C12.6247 16.6071 12.9566 16.7178 13.2597 16.8864C13.4768 16.9706 13.7176 16.9706 13.9347 16.8864C14.7244 16.6045 15.4158 16.1006 15.926 15.4352C16.3965 14.775 16.6696 13.9947 16.7135 13.1852C16.7469 13.0294 16.7469 12.8684 16.7135 12.7127L16.6235 12.8139Z" stroke="#057642" stroke-width="1.6875" stroke-linecap="round" stroke-linejoin="round"/>
<path fill-rule="evenodd" clip-rule="evenodd" d="M16.6686 12.7575L16.1623 12.375C16.1077 11.546 15.9138 10.7321 15.5886 9.96752C14.9345 9.19188 14.4686 8.27551 14.2273 7.29002C14.0473 6.69377 13.9236 6.48002 13.3948 6.46877C13.1761 6.48826 12.9739 6.59339 12.8323 6.76127C12.7656 6.84642 12.7163 6.94392 12.6873 7.04818C12.6584 7.15243 12.6503 7.26138 12.6636 7.36877C12.6637 7.64017 12.6863 7.91109 12.7311 8.17877C12.9336 9.22502 13.1473 10.08 13.1698 10.125L8.34357 6.51377C8.25913 6.43151 8.15838 6.36786 8.04783 6.32692C7.93728 6.28598 7.81938 6.26867 7.70172 6.27609C7.58407 6.28351 7.46928 6.3155 7.36475 6.37C7.26021 6.4245 7.16826 6.5003 7.09482 6.59252C6.74607 7.05377 7.02732 7.50377 7.38732 7.78502L9.91857 9.68627L10.6836 10.3163L6.63357 7.21127C6.54913 7.12901 6.44838 7.06536 6.33783 7.02442C6.22728 6.98348 6.10938 6.96617 5.99172 6.97359C5.87407 6.98101 5.75928 7.013 5.65475 7.0675C5.55021 7.122 5.45826 7.1978 5.38482 7.29002C5.03607 7.74002 5.31732 8.20127 5.67732 8.48252L8.20857 10.3838L9.72732 11.5088L6.43107 9.00002C6.34786 8.91629 6.24735 8.85176 6.13658 8.81096C6.02581 8.77015 5.90747 8.75404 5.78982 8.76377C5.67331 8.76885 5.55939 8.79974 5.45627 8.85422C5.35316 8.90869 5.26343 8.98539 5.19357 9.07877C5.1245 9.1731 5.07666 9.28128 5.05336 9.39585C5.03006 9.51043 5.03183 9.62869 5.05857 9.74252C5.08861 9.85577 5.14221 9.96141 5.21588 10.0525C5.28955 10.1436 5.38162 10.2182 5.48607 10.2713L8.01732 12.1725L9.27732 13.1288L6.75732 11.25C6.684 11.1752 6.59648 11.1157 6.49989 11.0751C6.40331 11.0346 6.29959 11.0137 6.19482 11.0137C6.09005 11.0137 5.98634 11.0346 5.88975 11.0751C5.79316 11.1157 5.70564 11.1752 5.63232 11.25C5.55314 11.3415 5.4958 11.4499 5.46462 11.5668C5.43343 11.6837 5.42923 11.8062 5.45232 11.925C5.47244 12.0449 5.5193 12.1587 5.58941 12.2581C5.65952 12.3574 5.75108 12.4397 5.85732 12.4988L10.3573 15.8738C11.0402 16.2793 11.8137 16.5075 12.6073 16.5375C12.8966 16.7113 13.1973 16.8654 13.5073 16.9988C14.4095 16.8275 15.2134 16.3211 15.7573 15.5813C16.3436 14.7268 16.6787 13.7252 16.7248 12.69L16.6686 12.7575Z" fill="#DDF6D1"/>
<path d="M16.6235 12.8139C16.3966 12.5698 16.2207 12.283 16.106 11.9702C16.0906 11.7235 16.0529 11.4788 15.9935 11.2389C15.9583 10.8072 15.8194 10.3904 15.5885 10.0239C14.9344 9.24827 14.4685 8.3319 14.2272 7.34641C14.0472 6.75016 13.9235 6.53641 13.3947 6.52516C13.176 6.54465 12.9738 6.64978 12.8322 6.81765C12.7655 6.90281 12.7162 7.00031 12.6872 7.10457C12.6583 7.20882 12.6502 7.31777 12.6635 7.42515C12.6636 7.69656 12.6862 7.96748 12.731 8.23515C12.9335 9.27015 13.1472 10.1252 13.1697 10.1814L8.34347 6.57016C8.25953 6.48678 8.15919 6.42173 8.04881 6.37913C7.93843 6.33653 7.82041 6.3173 7.70222 6.32265C7.58319 6.32899 7.46703 6.36151 7.36202 6.41791C7.25701 6.4743 7.16574 6.55318 7.09472 6.6489C7.03997 6.74196 7.0041 6.84489 6.98916 6.95182C6.97423 7.05874 6.98053 7.16757 7.0077 7.27206C7.03486 7.37655 7.08237 7.47465 7.14749 7.56077C7.21261 7.64688 7.29408 7.71931 7.38722 7.7739L9.91847 9.6864L10.6835 10.3164L6.63347 7.26765C6.54953 7.18428 6.44919 7.11923 6.33881 7.07663C6.22843 7.03403 6.11041 7.0148 5.99222 7.02015C5.81407 7.022 5.64164 7.08335 5.50237 7.19445C5.36309 7.30556 5.26496 7.46004 5.22357 7.63333C5.18219 7.80662 5.19993 7.98878 5.27398 8.15082C5.34802 8.31287 5.47412 8.44551 5.63222 8.52765L8.16347 10.4402L9.68222 11.5652L6.43097 9.1014C6.34763 9.01835 6.24743 8.95418 6.13713 8.91322C6.02684 8.87227 5.90903 8.85549 5.79168 8.86402C5.67434 8.87256 5.5602 8.9062 5.45699 8.96269C5.35378 9.01917 5.26391 9.09717 5.19347 9.1914C4.84472 9.6414 5.11472 10.1027 5.48597 10.3839L8.01722 12.2739L9.27722 13.2302L6.75722 11.3177C6.60623 11.1719 6.40457 11.0905 6.19472 11.0905C5.98487 11.0905 5.78322 11.1719 5.63222 11.3177C5.55952 11.4081 5.5077 11.5135 5.48047 11.6263C5.45324 11.7391 5.45128 11.8565 5.47472 11.9702C5.49674 12.0835 5.54212 12.1911 5.60798 12.286C5.67383 12.3809 5.75871 12.4611 5.85722 12.5214L10.3572 15.8964C10.7326 16.1783 11.1674 16.3706 11.6285 16.4589L12.281 16.5602C12.6247 16.6071 12.9566 16.7178 13.2597 16.8864C13.4768 16.9706 13.7176 16.9706 13.9347 16.8864C14.7244 16.6045 15.4158 16.1006 15.926 15.4352C16.3965 14.775 16.6696 13.9947 16.7135 13.1852C16.7469 13.0294 16.7469 12.8684 16.7135 12.7127L16.6235 12.8139Z" stroke="#057642" stroke-width="0.5625" stroke-linecap="round" stroke-linejoin="round"/>
<path d="M9.94137 3.17236L9.12012 4.20736" stroke="#057642" stroke-width="1.125" stroke-linecap="round" stroke-linejoin="round"/>
<path d="M6.18359 1.82251L6.26234 3.17251" stroke="#057642" stroke-width="1.125" stroke-linecap="round" stroke-linejoin="round"/>
<path d="M8.49004 1.83374L7.75879 3.58874" stroke="#057642" stroke-width="1.125" stroke-linecap="round" stroke-linejoin="round"/>
</svg>
