<svg width="19" height="18" viewBox="0 0 19 18" fill="none" xmlns="http://www.w3.org/2000/svg">
<path d="M9.00732 16.875C13.3566 16.875 16.8823 13.3492 16.8823 9C16.8823 4.65076 13.3566 1.125 9.00732 1.125C4.65808 1.125 1.13232 4.65076 1.13232 9C1.13232 13.3492 4.65808 16.875 9.00732 16.875Z" fill="#DBD1D1"/>
<path d="M9.00758 1.125C10.5651 1.125 12.0877 1.58686 13.3827 2.45218C14.6777 3.3175 15.6871 4.5474 16.2831 5.98637C16.8792 7.42534 17.0351 9.00874 16.7313 10.5363C16.4274 12.0639 15.6774 13.4671 14.576 14.5685C13.4747 15.6698 12.0715 16.4198 10.5439 16.7237C9.01632 17.0275 7.43292 16.8716 5.99395 16.2756C4.55499 15.6795 3.32508 14.6702 2.45976 13.3751C1.59445 12.0801 1.13259 10.5575 1.13259 9C1.13259 6.91142 1.96227 4.90839 3.43912 3.43154C4.91597 1.95469 6.919 1.125 9.00758 1.125ZM9.00758 2.78279e-06C6.92548 0.00164004 4.90834 0.725138 3.29985 2.04723C1.69136 3.36933 0.591029 5.20822 0.186318 7.25062C-0.218393 9.29302 0.0975586 11.4126 1.08034 13.2481C2.06313 15.0837 3.65194 16.5217 5.57609 17.3172C7.50024 18.1127 9.64069 18.2165 11.6328 17.6108C13.6248 17.0051 15.3453 15.7275 16.501 13.9955C17.6566 12.2636 18.1761 10.1846 17.9708 8.11261C17.7655 6.04065 16.8482 4.10396 15.3751 2.6325C14.5386 1.79699 13.5458 1.13447 12.4532 0.682775C11.3607 0.231082 10.1898 -0.000926873 9.00758 2.78279e-06Z" fill="white"/>
</svg>
