<svg width="332" height="271" viewBox="0 0 332 271" fill="none" xmlns="http://www.w3.org/2000/svg">
<path d="M153.912 270.913C228.735 270.913 289.391 210.267 289.391 135.457C289.391 60.6462 228.735 0.000244141 153.912 0.000244141C79.0884 0.000244141 18.4321 60.6462 18.4321 135.457C18.4321 210.267 79.0884 270.913 153.912 270.913Z" fill="#0B3D91"/>
<path d="M145.912 27.5374C146.751 27.5374 147.431 26.8575 147.431 26.0188C147.431 25.1801 146.751 24.5002 145.912 24.5002C145.074 24.5002 144.394 25.1801 144.394 26.0188C144.394 26.8575 145.074 27.5374 145.912 27.5374Z" fill="white"/>
<path d="M161.506 29.5618C162.344 29.5618 163.024 28.8819 163.024 28.0432C163.024 27.2045 162.344 26.5247 161.506 26.5247C160.667 26.5247 159.987 27.2045 159.987 28.0432C159.987 28.8819 160.667 29.5618 161.506 29.5618Z" fill="white"/>
<path d="M181.96 57.0987C182.799 57.0987 183.479 56.4188 183.479 55.5801C183.479 54.7414 182.799 54.0615 181.96 54.0615C181.121 54.0615 180.441 54.7414 180.441 55.5801C180.441 56.4188 181.121 57.0987 181.96 57.0987Z" fill="white"/>
<path d="M69.7683 198.832C70.6072 198.832 71.2872 198.152 71.2872 197.313C71.2872 196.474 70.6072 195.794 69.7683 195.794C68.9295 195.794 68.2495 196.474 68.2495 197.313C68.2495 198.152 68.9295 198.832 69.7683 198.832Z" fill="white"/>
<path d="M73.7171 210.98C74.5559 210.98 75.2359 210.3 75.2359 209.462C75.2359 208.623 74.5559 207.943 73.7171 207.943C72.8782 207.943 72.1982 208.623 72.1982 209.462C72.1982 210.3 72.8782 210.98 73.7171 210.98Z" fill="white"/>
<path d="M54.884 200.273C55.5122 200.273 56.0215 199.763 56.0215 199.135C56.0215 198.507 55.5122 197.998 54.884 197.998C54.2558 197.998 53.7466 198.507 53.7466 199.135C53.7466 199.763 54.2558 200.273 54.884 200.273Z" fill="white"/>
<path d="M116.65 224.141C117.28 224.141 117.79 223.631 117.79 223.001C117.79 222.371 117.28 221.86 116.65 221.86C116.02 221.86 115.509 222.371 115.509 223.001C115.509 223.631 116.02 224.141 116.65 224.141Z" fill="white"/>
<path d="M213.525 204.019C214.153 204.019 214.662 203.51 214.662 202.882C214.662 202.254 214.153 201.744 213.525 201.744C212.896 201.744 212.387 202.254 212.387 202.882C212.387 203.51 212.896 204.019 213.525 204.019Z" fill="white"/>
<path d="M241.676 173.448C242.307 173.448 242.817 172.938 242.817 172.308C242.817 171.678 242.307 171.167 241.676 171.167C241.046 171.167 240.536 171.678 240.536 172.308C240.536 172.938 241.046 173.448 241.676 173.448Z" fill="white"/>
<path d="M103.689 65.5989C104.317 65.5989 104.826 65.0898 104.826 64.4617C104.826 63.8336 104.317 63.3245 103.689 63.3245C103.061 63.3245 102.551 63.8336 102.551 64.4617C102.551 65.0898 103.061 65.5989 103.689 65.5989Z" fill="white"/>
<path d="M134.673 42.8477C135.301 42.8477 135.811 42.3386 135.811 41.7105C135.811 41.0824 135.301 40.5732 134.673 40.5732C134.045 40.5732 133.536 41.0824 133.536 41.7105C133.536 42.3386 134.045 42.8477 134.673 42.8477Z" fill="white"/>
<path d="M131.308 40.6202C131.937 40.6202 132.446 40.111 132.446 39.4829C132.446 38.8549 131.937 38.3457 131.308 38.3457C130.68 38.3457 130.171 38.8549 130.171 39.4829C130.171 40.111 130.68 40.6202 131.308 40.6202Z" fill="white"/>
<path d="M128.27 38.3934C128.898 38.3934 129.408 37.8842 129.408 37.2561C129.408 36.6281 128.898 36.1189 128.27 36.1189C127.642 36.1189 127.133 36.6281 127.133 37.2561C127.133 37.8842 127.642 38.3934 128.27 38.3934Z" fill="white"/>
<path d="M108.549 71.4742C109.177 71.4742 109.686 70.965 109.686 70.3369C109.686 69.7089 109.177 69.1997 108.549 69.1997C107.92 69.1997 107.411 69.7089 107.411 70.3369C107.411 70.965 107.92 71.4742 108.549 71.4742Z" fill="white"/>
<path d="M154.188 12.2742C154.816 12.2742 155.326 11.7651 155.326 11.137C155.326 10.5089 154.816 9.99976 154.188 9.99976C153.56 9.99976 153.051 10.5089 153.051 11.137C153.051 11.7651 153.56 12.2742 154.188 12.2742Z" fill="white"/>
<path d="M161.684 45.0745C162.312 45.0745 162.822 44.5654 162.822 43.9373C162.822 43.3092 162.312 42.8 161.684 42.8C161.056 42.8 160.547 43.3092 160.547 43.9373C160.547 44.5654 161.056 45.0745 161.684 45.0745Z" fill="white"/>
<path d="M149.861 38.67C150.489 38.67 150.998 38.1608 150.998 37.5327C150.998 36.9047 150.489 36.3955 149.861 36.3955C149.233 36.3955 148.724 36.9047 148.724 37.5327C148.724 38.1608 149.233 38.67 149.861 38.67Z" fill="white"/>
<path d="M129.611 47.3797C130.239 47.3797 130.748 46.8705 130.748 46.2425C130.748 45.6144 130.239 45.1052 129.611 45.1052C128.982 45.1052 128.473 45.6144 128.473 46.2425C128.473 46.8705 128.982 47.3797 129.611 47.3797Z" fill="white"/>
<path d="M218.918 234.063C219.546 234.063 220.055 233.553 220.055 232.925C220.055 232.297 219.546 231.788 218.918 231.788C218.29 231.788 217.78 232.297 217.78 232.925C217.78 233.553 218.29 234.063 218.918 234.063Z" fill="white"/>
<path d="M67.8444 206.148C68.4745 206.148 68.9852 205.637 68.9852 205.007C68.9852 204.377 68.4745 203.867 67.8444 203.867C67.2144 203.867 66.7036 204.377 66.7036 205.007C66.7036 205.637 67.2144 206.148 67.8444 206.148Z" fill="white"/>
<path d="M147.027 220.827C147.657 220.827 148.167 220.317 148.167 219.687C148.167 219.057 147.657 218.546 147.027 218.546C146.396 218.546 145.886 219.057 145.886 219.687C145.886 220.317 146.396 220.827 147.027 220.827Z" fill="white"/>
<path d="M91.4103 205.237C92.0404 205.237 92.5511 204.726 92.5511 204.096C92.5511 203.466 92.0404 202.956 91.4103 202.956C90.7803 202.956 90.2695 203.466 90.2695 204.096C90.2695 204.726 90.7803 205.237 91.4103 205.237Z" fill="white"/>
<path d="M101.259 221.31C101.889 221.31 102.4 220.799 102.4 220.169C102.4 219.539 101.889 219.029 101.259 219.029C100.629 219.029 100.118 219.539 100.118 220.169C100.118 220.799 100.629 221.31 101.259 221.31Z" fill="white"/>
<path d="M173.758 211.183C174.386 211.183 174.895 210.674 174.895 210.046C174.895 209.418 174.386 208.909 173.758 208.909C173.129 208.909 172.62 209.418 172.62 210.046C172.62 210.674 173.129 211.183 173.758 211.183Z" fill="white"/>
<path d="M213.726 188.63C214.355 188.63 214.864 188.121 214.864 187.493C214.864 186.865 214.355 186.356 213.726 186.356C213.098 186.356 212.589 186.865 212.589 187.493C212.589 188.121 213.098 188.63 213.726 188.63Z" fill="white"/>
<path d="M244.029 202.473C244.657 202.473 245.166 201.964 245.166 201.336C245.166 200.707 244.657 200.198 244.029 200.198C243.4 200.198 242.891 200.707 242.891 201.336C242.891 201.964 243.4 202.473 244.029 202.473Z" fill="white"/>
<path d="M254.357 209.081C254.985 209.081 255.495 208.571 255.495 207.943C255.495 207.315 254.985 206.806 254.357 206.806C253.729 206.806 253.22 207.315 253.22 207.943C253.22 208.571 253.729 209.081 254.357 209.081Z" fill="white"/>
<path d="M256.054 191.06C256.683 191.06 257.192 190.551 257.192 189.923C257.192 189.295 256.683 188.786 256.054 188.786C255.426 188.786 254.917 189.295 254.917 189.923C254.917 190.551 255.426 191.06 256.054 191.06Z" fill="white"/>
<path d="M105.383 165.548C106.011 165.548 106.52 165.039 106.52 164.411C106.52 163.783 106.011 163.274 105.383 163.274C104.755 163.274 104.246 163.783 104.246 164.411C104.246 165.039 104.755 165.548 105.383 165.548Z" fill="white"/>
<path d="M105.815 192.049C106.654 192.049 107.334 191.369 107.334 190.531C107.334 189.692 106.654 189.012 105.815 189.012C104.976 189.012 104.296 189.692 104.296 190.531C104.296 191.369 104.976 192.049 105.815 192.049Z" fill="white"/>
<path d="M114.929 211.284C115.767 211.284 116.447 210.605 116.447 209.766C116.447 208.927 115.767 208.247 114.929 208.247C114.09 208.247 113.41 208.927 113.41 209.766C113.41 210.605 114.09 211.284 114.929 211.284Z" fill="white"/>
<path d="M224.081 191.239C224.92 191.239 225.6 190.559 225.6 189.72C225.6 188.882 224.92 188.202 224.081 188.202C223.242 188.202 222.562 188.882 222.562 189.72C222.562 190.559 223.242 191.239 224.081 191.239Z" fill="white"/>
<path d="M263.368 189.012C264.207 189.012 264.887 188.332 264.887 187.493C264.887 186.654 264.207 185.975 263.368 185.975C262.53 185.975 261.85 186.654 261.85 187.493C261.85 188.332 262.53 189.012 263.368 189.012Z" fill="white"/>
<path d="M243.928 180.71C244.766 180.71 245.446 180.03 245.446 179.191C245.446 178.353 244.766 177.673 243.928 177.673C243.089 177.673 242.409 178.353 242.409 179.191C242.409 180.03 243.089 180.71 243.928 180.71Z" fill="white"/>
<path d="M224.081 181.52C224.92 181.52 225.6 180.84 225.6 180.002C225.6 179.163 224.92 178.483 224.081 178.483C223.242 178.483 222.562 179.163 222.562 180.002C222.562 180.84 223.242 181.52 224.081 181.52Z" fill="white"/>
<path d="M183.144 25.067L186.921 24.7059L183.151 24.4933C183.033 23.7644 182.449 23.1941 181.713 23.0996L181.352 19.3403L181.136 23.13C180.454 23.2819 179.931 23.8522 179.847 24.5608L175.985 24.9118L179.874 25.121C180.015 25.7723 180.542 26.2819 181.203 26.4034L181.554 30.2774L181.76 26.4101C182.459 26.292 183.012 25.7554 183.144 25.067Z" fill="white"/>
<path d="M119.4 67.1078L123.177 66.7467L119.407 66.5341C119.292 65.8052 118.705 65.2349 117.969 65.1404L117.608 61.3811L117.396 65.1708C116.71 65.3226 116.187 65.8929 116.103 66.6016L112.242 66.9526L116.13 67.1618C116.272 67.8131 116.798 68.3227 117.46 68.4441L117.811 72.3182L118.02 68.4509C118.719 68.3362 119.272 67.7962 119.4 67.1078Z" fill="white"/>
<path d="M260.601 178.26L264.378 177.899L260.607 177.686C260.493 176.958 259.905 176.387 259.17 176.293L258.808 172.533L258.596 176.323C257.914 176.475 257.391 177.045 257.307 177.754L253.445 178.105L257.334 178.314C257.475 178.965 258.002 179.475 258.663 179.596L259.014 183.471L259.224 179.603C259.916 179.488 260.469 178.952 260.601 178.26Z" fill="white"/>
<path d="M106.642 236.378L110.419 236.017L106.649 235.804C106.531 235.075 105.947 234.505 105.211 234.41L104.85 230.654L104.637 234.441C103.952 234.592 103.429 235.163 103.345 235.871L99.4834 236.222L103.372 236.432C103.513 237.083 104.04 237.596 104.701 237.714L105.052 241.588L105.262 237.721C105.957 237.606 106.514 237.066 106.642 236.378Z" fill="white"/>
<path d="M248.603 208.031L252.379 207.67L248.609 207.457C248.495 206.729 247.907 206.158 247.172 206.064L246.81 202.304L246.598 206.091C245.916 206.243 245.393 206.813 245.308 207.522L241.447 207.873L245.335 208.082C245.477 208.733 246.004 209.243 246.665 209.364L247.016 213.238L247.226 209.371C247.917 209.26 248.474 208.72 248.603 208.031Z" fill="white"/>
<path d="M186.04 103.01C170.288 109.131 154.924 114.595 141.96 118.651C115.617 126.899 43.5398 149.225 0 177.369L3.64519 178.786C30.1741 163.803 47.4179 159.096 63.9934 153.882C82.0168 148.213 140.282 134.579 166.666 127.155C175.58 124.648 186.02 121.364 197.077 117.369C194.505 113.782 191.791 110.184 188.936 106.594C187.981 105.382 187.012 104.188 186.04 103.01ZM205.285 129.531C201.471 132.106 198.275 134.161 196.037 135.457C183.076 142.948 119.89 186.076 105.515 195.997C91.1399 205.918 51.2419 243.579 39.4963 254.513L39.0913 258.964C76.9608 224.948 88.8414 216.558 103.895 205.108C122.526 190.935 161.067 164.714 174.166 156.312C186.688 148.28 197.981 140.893 208.117 134.134C207.951 133.857 207.786 133.58 207.621 133.3C206.858 132.048 206.078 130.793 205.285 129.531ZM264.482 67.0197C246.034 77.8319 216.956 90.8815 188.747 101.954C189.422 102.78 190.093 103.614 190.762 104.454C193.914 108.423 196.888 112.418 199.686 116.417C221.861 108.251 246.192 97.2899 265.498 84.0243C256.301 92.7376 225.894 115.459 207.354 128.124C208.309 129.679 209.234 131.235 210.128 132.784C238.217 113.991 257.118 100.158 268.131 90.9085C283.319 78.1525 317.948 49.6034 331.112 11.3354C308.022 40.6978 280.724 57.5 264.482 67.0197Z" fill="#FC3D21"/>
<path d="M136.479 168.997C133.492 165.238 129.36 160.203 126.259 156.298C122.111 151.078 118.273 145.803 114.756 140.536C113.608 140.822 112.464 141.109 111.32 141.396C115.566 148.02 120.281 154.635 125.418 161.1C129.171 165.825 132.584 169.628 134.332 171.994C134.686 172.473 135.389 173.532 136.337 174.943C137.43 174.201 138.534 173.451 139.648 172.696C138.571 171.525 137.508 170.293 136.479 168.997ZM158.282 188.786C155.829 186.464 149.878 182.586 143.685 176.769C142.318 177.707 140.937 178.658 139.553 179.617C143.553 185.252 149.001 192.174 153.267 194.192C159.693 197.236 161.425 191.762 158.282 188.786ZM190.762 104.454C155.349 59.8894 112.09 35.4067 93.4384 50.2245C78.9522 61.7319 84.8992 95.3632 104.867 130.692C105.9 130.338 106.922 129.99 107.935 129.646C87.7816 95.2248 82.2666 63.237 95.9293 52.3809C113.099 38.7408 154.556 63.318 188.942 106.59C196.061 115.547 202.318 124.537 207.617 133.3C227.909 166.878 234.136 197.242 220.116 209.637C215.826 213.43 202.717 214.919 185.544 207.191C185.304 207.491 185.689 208.304 185.989 208.503C200.813 214.463 215.012 216.734 222.181 211.041C239.408 197.354 226.174 149.019 190.762 104.454Z" fill="white"/>
<path d="M38.8853 109.742H61.5664L80.6025 142.037C80.6025 142.037 80.6025 118.651 80.6025 116.829C80.6025 113.994 77.0079 110.299 75.7422 109.742C77.261 109.742 90.5255 109.742 91.4368 109.742C90.4748 109.995 87.3866 113.741 87.3866 116.829C87.3866 118.347 87.3866 152.262 87.3866 153.882C87.3866 156.16 90.6774 159.298 92.2468 160.513H70.3757L51.0359 128.066C51.0359 128.066 51.0359 152.262 51.0359 153.578C51.0359 156.109 53.5167 158.539 56.0987 160.614H39.3915C41.771 159.602 44.0493 156.413 44.2518 153.882C44.4543 151.351 44.2518 118.702 44.2518 117.284C44.2518 114.197 41.2648 111.666 38.8853 109.742Z" fill="white"/>
<path d="M246.357 160.513H276.532C274.861 160.108 272.988 158.134 271.975 155.502C270.962 152.87 254.964 109.742 254.964 109.742H243.492C240.238 112.084 236.752 114.554 233.029 117.156C233.019 117.251 233.009 117.345 232.992 117.436C232.492 120.473 223.514 152.984 222.967 154.591C222.208 156.818 218.31 159.298 216.74 160.614H232.992C231.372 158.792 230.055 157.02 230.359 154.996C230.663 152.971 231.574 148.921 231.574 148.921H248.383C249.142 150.946 249.709 152.765 250.003 154.489C250.357 156.565 248.231 158.893 246.357 160.513ZM233.093 142.442L238.763 123.916L246.256 142.442H233.093ZM230.538 111.591C231.372 110.977 232.209 110.36 233.042 109.742H228.638C229.077 110.147 229.802 110.785 230.538 111.591Z" fill="white"/>
<path d="M115.131 154.996C115.435 152.971 116.346 148.921 116.346 148.921H133.154C133.914 150.946 134.481 152.765 134.775 154.489C135.129 156.565 133.003 158.893 131.129 160.513H157.695C158.249 160.142 158.799 159.771 159.349 159.403C158.32 158.492 157.371 157.125 156.747 155.502C155.734 152.87 139.736 109.742 139.736 109.742H113.41C114.675 110.906 118.321 114.045 117.764 117.436C117.268 120.473 108.286 152.984 107.739 154.591C106.98 156.818 103.082 159.298 101.512 160.614H117.764C116.144 158.792 114.827 157.02 115.131 154.996ZM123.535 123.916L131.028 142.442H117.865L123.535 123.916Z" fill="white"/>
<path d="M206.898 134.944C201.944 138.244 196.715 141.689 191.207 145.287C193.678 146.485 195.645 147.99 195.834 149.934C196.185 153.585 188.848 155.35 182.216 154.59C180.889 154.439 179.586 154.091 178.344 153.625C176.967 154.513 175.577 155.407 174.166 156.312C172.731 157.233 170.99 158.367 169.002 159.676V164.917C170.318 162.335 173.197 160.024 175.431 159.905C176.393 159.855 179.735 162.943 193.506 162.183C200.188 161.816 213.098 154.692 212.896 146.491C212.774 141.646 210.243 137.866 206.898 134.944ZM168.998 147.605V152.944C170.217 152.13 171.418 151.331 172.596 150.551C170.743 149.262 169.43 148.057 168.998 147.605ZM202.19 131.593C200.907 130.833 199.608 130.169 198.362 129.581C191.882 126.544 185.098 125.987 183.68 121.887C182.681 118.995 185.503 116.319 192.388 116.42C199.274 116.522 205.653 120.622 207.374 122.09V109.03C206.868 109.536 204.647 112.084 202.615 111.662C198.717 110.852 192.085 109.796 184.49 109.84C175.783 109.891 168.29 116.62 168.036 125.127C167.682 137.022 177.2 140.262 182.567 142.135C183.12 142.327 183.751 142.533 184.436 142.752C189.584 139.405 193.654 136.827 196.037 135.453C197.637 134.532 199.733 133.209 202.19 131.593Z" fill="white"/>
</svg>
