<svg width="17" height="11" viewBox="0 0 17 11" fill="none" xmlns="http://www.w3.org/2000/svg">
<path fill-rule="evenodd" clip-rule="evenodd" d="M14.832 5.2059C14.832 7.02886 13.3542 8.50665 11.5312 8.50665C10.9305 8.50665 10.3672 8.34615 9.88192 8.0657C10.4503 7.25628 10.7839 6.27007 10.7839 5.20593C10.7839 4.14178 10.4502 3.15554 9.88189 2.34612C10.3672 2.06565 10.9304 1.90515 11.5312 1.90515C13.3542 1.90515 14.832 3.38295 14.832 5.2059ZM8.66639 1.12915C9.47675 0.558639 10.4649 0.223633 11.5312 0.223633C14.2829 0.223633 16.5135 2.45427 16.5135 5.2059C16.5135 7.95753 14.2829 10.1882 11.5312 10.1882C10.4649 10.1882 9.47679 9.85318 8.66643 9.28269C7.85607 9.85319 6.86796 10.1882 5.8016 10.1882C3.04997 10.1882 0.819336 7.95756 0.819336 5.20593C0.819336 2.4543 3.04997 0.223662 5.8016 0.223662C6.86794 0.223662 7.85604 0.558657 8.66639 1.12915ZM7.45093 8.06571C6.96567 8.34618 6.40238 8.50668 5.8016 8.50668C3.97865 8.50668 2.50085 7.02889 2.50085 5.20593C2.50085 3.38298 3.97865 1.90518 5.8016 1.90518C6.40237 1.90518 6.96565 2.06568 7.4509 2.34614C6.88256 3.15555 6.54895 4.14177 6.54895 5.2059C6.54895 6.27005 6.88257 7.25629 7.45093 8.06571ZM8.66642 6.84651C8.38906 6.36323 8.23047 5.80308 8.23047 5.2059C8.23047 4.60873 8.38905 4.0486 8.6664 3.56532C8.94376 4.04861 9.10236 4.60875 9.10236 5.20593C9.10236 5.8031 8.94377 6.36323 8.66642 6.84651Z" fill="#DBD1D1"/>
</svg>
