<svg width="18" height="19" viewBox="0 0 18 19" fill="none" xmlns="http://www.w3.org/2000/svg">
<path d="M9 0.829102C11.3869 0.829102 13.6761 1.77731 15.364 3.46514C17.0518 5.15297 18 7.44215 18 9.8291C18 12.216 17.0518 14.5052 15.364 16.1931C13.6761 17.8809 11.3869 18.8291 9 18.8291C6.61305 18.8291 4.32387 17.8809 2.63604 16.1931C0.948212 14.5052 0 12.216 0 9.8291C0 7.44215 0.948212 5.15297 2.63604 3.46514C4.32387 1.77731 6.61305 0.829102 9 0.829102V0.829102Z" fill="white"/>
<path d="M9 17.7041C13.3492 17.7041 16.875 14.1783 16.875 9.8291C16.875 5.47986 13.3492 1.9541 9 1.9541C4.65076 1.9541 1.125 5.47986 1.125 9.8291C1.125 14.1783 4.65076 17.7041 9 17.7041Z" fill="#378FE9"/>
<path fill-rule="evenodd" clip-rule="evenodd" d="M13.421 8.98536H12.8023C12.746 8.98536 12.6335 8.77161 12.3523 8.46786C11.936 8.01786 11.4748 7.44411 11.1485 7.12911C10.3379 6.42761 9.67611 5.57073 9.20227 4.60911C8.93227 4.03536 8.90977 3.77661 8.35852 3.77661C8.1419 3.80721 7.94453 3.91762 7.80509 4.08619C7.66565 4.25477 7.59421 4.46935 7.60478 4.68786C7.60478 4.84536 7.68353 5.39661 7.71728 5.58786C7.95677 6.46798 8.33665 7.30371 8.84227 8.06286H4.63477C4.49772 8.06189 4.36196 8.08938 4.23609 8.14361C4.11021 8.19783 3.99697 8.2776 3.90352 8.37786C3.80962 8.47579 3.73791 8.5928 3.69326 8.72092C3.64861 8.84904 3.63207 8.98528 3.64477 9.12036C3.66211 9.38394 3.78067 9.63062 3.97565 9.80883C4.17063 9.98704 4.42695 10.083 4.69102 10.0766H4.87102C4.63807 10.0852 4.417 10.1817 4.25227 10.3466C4.09744 10.5106 4.01268 10.7286 4.01602 10.9541C4.01798 11.1808 4.10435 11.3986 4.25829 11.565C4.41223 11.7315 4.62267 11.8345 4.84852 11.8541C4.71105 11.9593 4.60682 12.1019 4.54833 12.2648C4.48984 12.4277 4.47957 12.604 4.51875 12.7726C4.55793 12.9412 4.6449 13.095 4.76924 13.2154C4.89358 13.3358 5.05001 13.4178 5.21977 13.4516C5.10889 13.6376 5.07271 13.8587 5.11853 14.0704C5.17785 14.2772 5.30368 14.4587 5.47653 14.5868C5.64939 14.7149 5.85964 14.7825 6.07477 14.7791H8.65102C8.98849 14.7775 9.32458 14.736 9.65227 14.6554L11.2498 14.2054H13.3873C14.5348 14.1604 14.8385 8.98536 13.421 8.98536Z" fill="#D0E8FF"/>
<path d="M8.35876 8.06302H4.62377C4.48157 8.06169 4.34077 8.09101 4.21092 8.14898C4.08108 8.20694 3.96524 8.2922 3.87131 8.39895C3.77737 8.5057 3.70753 8.63143 3.66654 8.7676C3.62555 8.90376 3.61437 9.04715 3.63377 9.18802C3.65648 9.44858 3.77701 9.69089 3.97111 9.8662C4.16521 10.0415 4.41849 10.1368 4.68002 10.133H4.86002C4.62706 10.1416 4.40599 10.2381 4.24127 10.403C4.16186 10.487 4.10005 10.5859 4.05947 10.6941C4.0189 10.8023 4.00038 10.9176 4.00502 11.033C4.00915 11.2602 4.09598 11.4781 4.24923 11.6458C4.40248 11.8136 4.61164 11.9197 4.83752 11.9443C4.72993 12.0287 4.64272 12.1362 4.58235 12.2589C4.52198 12.3816 4.49 12.5163 4.48877 12.653C4.48721 12.8646 4.55933 13.0701 4.69276 13.2343C4.82618 13.3986 5.0126 13.5112 5.22002 13.553C5.1084 13.7429 5.07226 13.9678 5.11877 14.183C5.17846 14.3887 5.30473 14.5688 5.47779 14.6951C5.65084 14.8213 5.8609 14.8865 6.07502 14.8805H8.65126C8.98873 14.8789 9.32482 14.8374 9.65251 14.7568L11.25 14.228H13.3875C14.5125 14.228 14.8163 9.00802 13.3875 9.00802C13.1814 9.01937 12.9749 9.01937 12.7688 9.00802C12.7688 9.00802 12.6 8.79427 12.3188 8.49052C11.9025 8.04052 11.4413 7.46677 11.115 7.15177C10.3142 6.4448 9.66383 5.58398 9.20252 4.62052C9.11109 4.40931 8.98986 4.21231 8.84251 4.03552C8.65515 3.87795 8.41339 3.80027 8.1693 3.81921C7.92522 3.83814 7.69834 3.95218 7.53751 4.13677C7.42093 4.26286 7.32591 4.40729 7.25626 4.56427C7.21226 4.67343 7.17837 4.78641 7.15502 4.90177C7.12483 5.21894 7.1515 5.53896 7.23377 5.84677C7.3009 6.17173 7.40273 6.48855 7.53751 6.79177C7.75066 7.18835 7.99917 7.56487 8.28001 7.91677C8.31473 7.93816 8.34217 7.96952 8.35876 8.00677" stroke="#004182" stroke-width="1.125" stroke-linecap="round" stroke-linejoin="round"/>
</svg>
