<svg width="18" height="19" viewBox="0 0 18 19" fill="none" xmlns="http://www.w3.org/2000/svg">
<path d="M9 0.912842C11.3869 0.912842 13.6761 1.86105 15.364 3.54888C17.0518 5.23671 18 7.52589 18 9.91284C18 12.2998 17.0518 14.589 15.364 16.2768C13.6761 17.9646 11.3869 18.9128 9 18.9128C6.61305 18.9128 4.32387 17.9646 2.63604 16.2768C0.948212 14.589 0 12.2998 0 9.91284C0 7.52589 0.948212 5.23671 2.63604 3.54888C4.32387 1.86105 6.61305 0.912842 9 0.912842V0.912842Z" fill="white"/>
<path d="M9 17.7878C13.3492 17.7878 16.875 14.2621 16.875 9.91284C16.875 5.5636 13.3492 2.03784 9 2.03784C4.65076 2.03784 1.125 5.5636 1.125 9.91284C1.125 14.2621 4.65076 17.7878 9 17.7878Z" fill="#378FE9"/>
<path fill-rule="evenodd" clip-rule="evenodd" d="M13.421 9.0691H12.8023C12.746 9.0691 12.6335 8.85535 12.3523 8.5516C11.936 8.1016 11.4748 7.52785 11.1485 7.21285C10.3379 6.51135 9.67611 5.65447 9.20227 4.69285C8.93227 4.1191 8.90977 3.86035 8.35852 3.86035C8.1419 3.89095 7.94453 4.00136 7.80509 4.16993C7.66565 4.33851 7.59421 4.55309 7.60478 4.7716C7.60478 4.9291 7.68353 5.48035 7.71728 5.6716C7.95677 6.55172 8.33665 7.38745 8.84227 8.1466H4.63477C4.49772 8.14563 4.36196 8.17312 4.23609 8.22735C4.11021 8.28157 3.99697 8.36134 3.90352 8.4616C3.80962 8.55953 3.73791 8.67654 3.69326 8.80466C3.64861 8.93278 3.63207 9.06902 3.64477 9.2041C3.66211 9.46768 3.78067 9.71436 3.97565 9.89257C4.17063 10.0708 4.42695 10.1667 4.69102 10.1604H4.87102C4.63807 10.1689 4.417 10.2654 4.25227 10.4304C4.09744 10.5944 4.01268 10.8123 4.01602 11.0379C4.01798 11.2645 4.10435 11.4824 4.25829 11.6488C4.41223 11.8152 4.62267 11.9183 4.84852 11.9378C4.71105 12.043 4.60682 12.1856 4.54833 12.3485C4.48984 12.5114 4.47957 12.6878 4.51875 12.8564C4.55793 13.025 4.6449 13.1787 4.76924 13.2991C4.89358 13.4196 5.05001 13.5016 5.21977 13.5353C5.10889 13.7213 5.07271 13.9425 5.11853 14.1541C5.17785 14.3609 5.30368 14.5424 5.47653 14.6705C5.64939 14.7987 5.85964 14.8662 6.07477 14.8628H8.65102C8.98849 14.8613 9.32458 14.8197 9.65227 14.7391L11.2498 14.2891H13.3873C14.5348 14.2441 14.8385 9.0691 13.421 9.0691Z" fill="#D0E8FF"/>
<path d="M8.35876 8.14651H4.62377C4.48157 8.14518 4.34077 8.1745 4.21092 8.23247C4.08108 8.29044 3.96524 8.3757 3.87131 8.48245C3.77737 8.5892 3.70753 8.71493 3.66654 8.85109C3.62555 8.98725 3.61437 9.13065 3.63377 9.27151C3.65648 9.53208 3.77701 9.77438 3.97111 9.9497C4.16521 10.125 4.41849 10.2203 4.68002 10.2165H4.86002C4.62706 10.2251 4.40599 10.3216 4.24127 10.4865C4.16186 10.5705 4.10005 10.6694 4.05947 10.7776C4.0189 10.8858 4.00038 11.0011 4.00502 11.1165C4.00915 11.3437 4.09598 11.5616 4.24923 11.7293C4.40248 11.8971 4.61164 12.0032 4.83752 12.0278C4.72993 12.1122 4.64272 12.2197 4.58235 12.3424C4.52198 12.4651 4.49 12.5998 4.48877 12.7365C4.48721 12.9481 4.55933 13.1536 4.69276 13.3178C4.82618 13.4821 5.0126 13.5947 5.22002 13.6365C5.1084 13.8264 5.07226 14.0512 5.11877 14.2665C5.17846 14.4722 5.30473 14.6523 5.47779 14.7785C5.65084 14.9048 5.8609 14.97 6.07502 14.964H8.65126C8.98873 14.9624 9.32482 14.9209 9.65251 14.8403L11.25 14.3115H13.3875C14.5125 14.3115 14.8163 9.09151 13.3875 9.09151C13.1814 9.10287 12.9749 9.10287 12.7688 9.09151C12.7688 9.09151 12.6 8.87776 12.3188 8.57401C11.9025 8.12401 11.4413 7.55026 11.115 7.23526C10.3142 6.5283 9.66383 5.66747 9.20252 4.70401C9.11109 4.49281 8.98986 4.29581 8.84251 4.11901C8.65515 3.96144 8.41339 3.88376 8.1693 3.9027C7.92522 3.92164 7.69834 4.03568 7.53751 4.22026C7.42093 4.34635 7.32591 4.49079 7.25626 4.64776C7.21226 4.75693 7.17837 4.8699 7.15502 4.98526C7.12483 5.30244 7.1515 5.62246 7.23377 5.93026C7.3009 6.25523 7.40273 6.57205 7.53751 6.87526C7.75066 7.27184 7.99917 7.64837 8.28001 8.00026C8.31473 8.02165 8.34217 8.05302 8.35876 8.09026" stroke="#004182" stroke-width="1.125" stroke-linecap="round" stroke-linejoin="round"/>
</svg>
