<svg width="19" height="18" viewBox="0 0 19 18" fill="none" xmlns="http://www.w3.org/2000/svg">
<path d="M8.82764 13.5H10.3276V12H8.82764V13.5ZM9.57764 1.5C5.43764 1.5 2.07764 4.86 2.07764 9C2.07764 13.14 5.43764 16.5 9.57764 16.5C13.7176 16.5 17.0776 13.14 17.0776 9C17.0776 4.86 13.7176 1.5 9.57764 1.5ZM9.57764 15C6.27014 15 3.57764 12.3075 3.57764 9C3.57764 5.6925 6.27014 3 9.57764 3C12.8851 3 15.5776 5.6925 15.5776 9C15.5776 12.3075 12.8851 15 9.57764 15ZM9.57764 4.5C7.92014 4.5 6.57764 5.8425 6.57764 7.5H8.07764C8.07764 6.675 8.75264 6 9.57764 6C10.4026 6 11.0776 6.675 11.0776 7.5C11.0776 9 8.82764 8.8125 8.82764 11.25H10.3276C10.3276 9.5625 12.5776 9.375 12.5776 7.5C12.5776 5.8425 11.2351 4.5 9.57764 4.5Z" fill="black"/>
</svg>
