<svg width="11" height="12" viewBox="0 0 11 12" fill="none" xmlns="http://www.w3.org/2000/svg">
<path d="M9.86662 6.71653H9.86665C10.2624 6.71653 10.5833 6.39568 10.5833 5.9999C10.5833 5.60411 10.2624 5.28326 9.86665 5.28326L6.38331 5.28323L6.38331 1.7999C6.38331 1.4041 6.06246 1.08325 5.66666 1.08325C5.27087 1.08325 4.95002 1.4041 4.95002 1.79989L4.94998 5.28323L1.46664 5.28326C1.07085 5.28326 0.75 5.60411 0.75 5.9999C0.75 6.39568 1.07085 6.71653 1.46664 6.71653H1.46667L4.94998 6.71607L4.95002 10.1999C4.95002 10.5957 5.27087 10.9166 5.66666 10.9166C6.06246 10.9166 6.38331 10.5957 6.38331 10.1999L6.38331 6.71607L9.86662 6.71653Z" fill="#0A66C2" stroke="#0A66C2" stroke-width="0.5"/>
</svg>
