<svg width="19" height="18" viewBox="0 0 19 18" fill="none" xmlns="http://www.w3.org/2000/svg">
<path d="M14.6964 0.13501H4.90613C3.75424 0.13501 3.16699 0.248413 2.55577 0.575294C1.99152 0.877057 1.54332 1.32526 1.24155 1.88951C0.914673 2.50073 0.80127 3.08798 0.80127 4.23987V10.0302C0.80127 11.182 0.914673 11.7693 1.24155 12.3805C1.54332 12.9448 1.99152 13.393 2.55577 13.6947L2.69667 13.7664C3.21367 14.0157 3.74594 14.1177 4.65006 14.133L4.90127 14.135V16.3499C4.90127 16.7817 5.07056 17.1964 5.37282 17.5048L5.48944 17.613C6.13218 18.1546 7.0936 18.1287 7.70615 17.5284L11.1673 14.135H14.6964C15.8483 14.135 16.4356 14.0216 17.0468 13.6947C17.611 13.393 18.0592 12.9448 18.361 12.3805C18.6879 11.7693 18.8013 11.182 18.8013 10.0302V4.23987C18.8013 3.08798 18.6879 2.50073 18.361 1.88951C18.0592 1.32526 17.611 0.877057 17.0468 0.575294C16.4356 0.248413 15.8483 0.13501 14.6964 0.13501ZM4.71293 1.93608L14.6964 1.93501C15.5766 1.93501 15.8831 1.9942 16.1979 2.16256C16.4485 2.29656 16.6397 2.48783 16.7737 2.73839C16.9421 3.05319 17.0013 3.35971 17.0013 4.23987V10.0302L16.9969 10.3978C16.9805 11.0048 16.9162 11.2653 16.7737 11.5316C16.6397 11.7822 16.4485 11.9735 16.1979 12.1075C15.8831 12.2758 15.5766 12.335 14.6964 12.335H10.8013L10.6845 12.3426C10.4919 12.3678 10.3115 12.4548 10.1713 12.5922L6.70127 15.992V13.235C6.70127 12.738 6.29833 12.335 5.80127 12.335H4.90613L4.53851 12.3306C3.93146 12.3142 3.67102 12.2499 3.40465 12.1075C3.15409 11.9735 2.96282 11.7822 2.82882 11.5316C2.66046 11.2168 2.60127 10.9103 2.60127 10.0302V4.23987L2.60565 3.87225C2.62207 3.2652 2.68636 3.00476 2.82882 2.73839C2.96282 2.48783 3.15409 2.29656 3.40465 2.16256C3.69523 2.00715 3.97877 1.94476 4.71293 1.93608Z" fill="#DBD1D1"/>
</svg>
