<svg width="19" height="19" viewBox="0 0 19 19" fill="none" xmlns="http://www.w3.org/2000/svg">
<path d="M14.6964 0.964355H4.90613C3.75424 0.964355 3.16699 1.07776 2.55577 1.40464C1.99152 1.7064 1.54332 2.15461 1.24155 2.71886C0.914673 3.33007 0.80127 3.91732 0.80127 5.06921V10.8595C0.80127 12.0114 0.914673 12.5986 1.24155 13.2099C1.54332 13.7741 1.99152 14.2223 2.55577 14.5241L2.69667 14.5958C3.21367 14.8451 3.74594 14.947 4.65006 14.9623L4.90127 14.9644V17.1792C4.90127 17.6111 5.07056 18.0257 5.37282 18.3341L5.48944 18.4423C6.13218 18.984 7.0936 18.958 7.70615 18.3577L11.1673 14.9644H14.6964C15.8483 14.9644 16.4356 14.851 17.0468 14.5241C17.611 14.2223 18.0592 13.7741 18.361 13.2099C18.6879 12.5986 18.8013 12.0114 18.8013 10.8595V5.06921C18.8013 3.91732 18.6879 3.33007 18.361 2.71886C18.0592 2.15461 17.611 1.7064 17.0468 1.40464C16.4356 1.07776 15.8483 0.964355 14.6964 0.964355ZM4.71293 2.76543L14.6964 2.76436C15.5766 2.76436 15.8831 2.82355 16.1979 2.9919C16.4485 3.12591 16.6397 3.31717 16.7737 3.56774C16.9421 3.88253 17.0013 4.18906 17.0013 5.06921V10.8595L16.9969 11.2271C16.9805 11.8342 16.9162 12.0946 16.7737 12.361C16.6397 12.6115 16.4485 12.8028 16.1979 12.9368C15.8831 13.1052 15.5766 13.1644 14.6964 13.1644H10.8013L10.6845 13.172C10.4919 13.1972 10.3115 13.2842 10.1713 13.4216L6.70127 16.8214V14.0644C6.70127 13.5673 6.29833 13.1644 5.80127 13.1644H4.90613L4.53851 13.16C3.93146 13.1436 3.67102 13.0793 3.40465 12.9368C3.15409 12.8028 2.96282 12.6115 2.82882 12.361C2.66046 12.0462 2.60127 11.7397 2.60127 10.8595V5.06921L2.60565 4.7016C2.62207 4.09455 2.68636 3.8341 2.82882 3.56774C2.96282 3.31717 3.15409 3.12591 3.40465 2.9919C3.69523 2.8365 3.97877 2.77411 4.71293 2.76543Z" fill="#DBD1D1"/>
</svg>
