<svg width="21" height="18" viewBox="0 0 21 18" fill="none" xmlns="http://www.w3.org/2000/svg">
<path d="M10.6977 0.8345C9.58197 0.91323 8.70127 1.84332 8.70127 2.9791L8.70027 5.09617L8.67984 5.10107C4.14755 6.04006 0.80127 10.0562 0.80127 14.7945C0.80127 15.1388 0.818877 15.4819 0.853703 15.8221C0.936726 16.6333 1.96937 16.9248 2.46429 16.2768L2.65109 16.0403C4.11041 14.2538 6.18811 13.082 8.48678 12.775L8.70027 12.7492L8.70127 15.2435C8.70127 15.7241 8.86247 16.1911 9.1591 16.5695C9.89159 17.5041 11.243 17.6679 12.1776 16.9354L20.0012 10.8033C20.1375 10.6966 20.2603 10.5737 20.3671 10.4375C21.0996 9.50291 20.9358 8.1515 20.0012 7.419L12.1776 1.28693C11.7991 0.990299 11.3321 0.829102 10.8513 0.829102L10.6977 0.8345ZM10.8513 2.6291C10.9295 2.6291 11.0056 2.65534 11.0672 2.70363L18.8909 8.8357C19.043 8.95495 19.0697 9.17494 18.9504 9.32708C18.933 9.34926 18.913 9.36926 18.8909 9.38664L11.0672 15.5187C10.915 15.638 10.695 15.6113 10.5758 15.4592C10.5275 15.3975 10.5013 15.3215 10.5013 15.2432L10.5003 11.7959C10.5001 11.2932 10.0881 10.888 9.58548 10.8963L9.35233 10.9001L9.01011 10.9167C6.73602 11.0618 4.61337 11.9038 2.89157 13.2825L2.71727 13.4262L2.74107 13.2908C3.38389 9.87537 6.176 7.18546 9.70943 6.75456C10.1609 6.6995 10.5004 6.31625 10.5005 5.86142L10.5013 2.97935C10.5013 2.7858 10.658 2.6291 10.8513 2.6291Z" fill="#DBD1D1"/>
</svg>
