<svg width="19" height="18" viewBox="0 0 19 18" fill="none" xmlns="http://www.w3.org/2000/svg">
<path d="M14.6964 0.135254H4.90613C3.75424 0.135254 3.16699 0.248657 2.55577 0.575538C1.99152 0.877301 1.54332 1.32551 1.24155 1.88976C0.914673 2.50097 0.80127 3.08822 0.80127 4.24011V10.0304C0.80127 11.1823 0.914673 11.7695 1.24155 12.3808C1.54332 12.945 1.99152 13.3932 2.55577 13.695L2.69667 13.7667C3.21367 14.016 3.74594 14.1179 4.65006 14.1332L4.90127 14.1353V16.3501C4.90127 16.782 5.07056 17.1966 5.37282 17.505L5.48944 17.6132C6.13218 18.1549 7.0936 18.1289 7.70615 17.5286L11.1673 14.1353H14.6964C15.8483 14.1353 16.4356 14.0218 17.0468 13.695C17.611 13.3932 18.0592 12.945 18.361 12.3808C18.6879 11.7695 18.8013 11.1823 18.8013 10.0304V4.24011C18.8013 3.08822 18.6879 2.50097 18.361 1.88976C18.0592 1.32551 17.611 0.877301 17.0468 0.575538C16.4356 0.248657 15.8483 0.135254 14.6964 0.135254ZM4.71293 1.93633L14.6964 1.93525C15.5766 1.93525 15.8831 1.99445 16.1979 2.1628C16.4485 2.29681 16.6397 2.48807 16.7737 2.73864C16.9421 3.05343 17.0013 3.35996 17.0013 4.24011V10.0304L16.9969 10.398C16.9805 11.0051 16.9162 11.2655 16.7737 11.5319C16.6397 11.7824 16.4485 11.9737 16.1979 12.1077C15.8831 12.2761 15.5766 12.3353 14.6964 12.3353H10.8013L10.6845 12.3429C10.4919 12.368 10.3115 12.4551 10.1713 12.5925L6.70127 15.9923V13.2353C6.70127 12.7382 6.29833 12.3353 5.80127 12.3353H4.90613L4.53851 12.3309C3.93146 12.3145 3.67102 12.2502 3.40465 12.1077C3.15409 11.9737 2.96282 11.7824 2.82882 11.5319C2.66046 11.2171 2.60127 10.9106 2.60127 10.0304V4.24011L2.60565 3.8725C2.62207 3.26545 2.68636 3.005 2.82882 2.73864C2.96282 2.48807 3.15409 2.29681 3.40465 2.1628C3.69523 2.0074 3.97877 1.94501 4.71293 1.93633Z" fill="#DBD1D1"/>
</svg>
