<svg width="21" height="17" viewBox="0 0 21 17" fill="none" xmlns="http://www.w3.org/2000/svg">
<path d="M10.6977 0.00539827C9.58197 0.0841283 8.70127 1.01421 8.70127 2.15L8.70027 4.26707L8.67984 4.27197C4.14755 5.21096 0.80127 9.22711 0.80127 13.9654C0.80127 14.3097 0.818877 14.6528 0.853703 14.993C0.936726 15.8042 1.96937 16.0957 2.46429 15.4477L2.65109 15.2112C4.11041 13.4247 6.18811 12.2529 8.48678 11.9459L8.70027 11.9201L8.70127 14.4144C8.70127 14.895 8.86247 15.362 9.1591 15.7404C9.89159 16.675 11.243 16.8388 12.1776 16.1063L20.0012 9.97424C20.1375 9.86746 20.2603 9.74461 20.3671 9.60837C21.0996 8.67381 20.9358 7.3224 20.0012 6.5899L12.1776 0.45783C11.7991 0.161198 11.3321 0 10.8513 0L10.6977 0.00539827ZM10.8513 1.8C10.9295 1.8 11.0056 1.82624 11.0672 1.87453L18.8909 8.0066C19.043 8.12585 19.0697 8.34584 18.9504 8.49798C18.933 8.52016 18.913 8.54016 18.8909 8.55754L11.0672 14.6896C10.915 14.8089 10.695 14.7822 10.5758 14.6301C10.5275 14.5684 10.5013 14.4924 10.5013 14.4141L10.5003 10.9668C10.5001 10.4641 10.0881 10.0589 9.58548 10.0672L9.35233 10.071L9.01011 10.0876C6.73602 10.2327 4.61337 11.0747 2.89157 12.4534L2.71727 12.5971L2.74107 12.4617C3.38389 9.04627 6.176 6.35636 9.70943 5.92545C10.1609 5.8704 10.5004 5.48715 10.5005 5.03232L10.5013 2.15025C10.5013 1.9567 10.658 1.8 10.8513 1.8Z" fill="#DBD1D1"/>
</svg>
