<svg width="11" height="11" viewBox="0 0 11 11" fill="none" xmlns="http://www.w3.org/2000/svg">
<path d="M9.53312 6.21653H9.53315C9.92894 6.21653 10.2498 5.89568 10.2498 5.4999C10.2498 5.10411 9.92894 4.78326 9.53315 4.78326L6.04981 4.78323L6.04981 1.2999C6.04981 0.904104 5.72896 0.583252 5.33317 0.583252C4.93738 0.583252 4.61652 0.904105 4.61652 1.29989L4.61649 4.78323L1.13314 4.78326C0.737354 4.78326 0.416504 5.10411 0.416504 5.4999C0.416504 5.89568 0.737354 6.21653 1.13314 6.21653H1.13318L4.61649 6.21607L4.61652 9.69994C4.61652 10.0957 4.93738 10.4166 5.33317 10.4166C5.72896 10.4166 6.04981 10.0957 6.04981 9.69994L6.04981 6.21607L9.53312 6.21653Z" fill="#0A66C2" stroke="#0A66C2" stroke-width="0.5"/>
</svg>
