<svg width="11" height="12" viewBox="0 0 11 12" fill="none" xmlns="http://www.w3.org/2000/svg">
<path d="M9.86662 6.71678H9.86665C10.2624 6.71678 10.5833 6.39593 10.5833 6.00014C10.5833 5.60435 10.2624 5.2835 9.86665 5.2835L6.38331 5.28348L6.38331 1.80014C6.38331 1.40435 6.06246 1.0835 5.66666 1.0835C5.27087 1.0835 4.95002 1.40435 4.95002 1.80014L4.94998 5.28348L1.46664 5.2835C1.07085 5.2835 0.75 5.60435 0.75 6.00014C0.75 6.39593 1.07085 6.71678 1.46664 6.71678H1.46667L4.94998 6.71632L4.95002 10.2002C4.95002 10.596 5.27087 10.9168 5.66666 10.9168C6.06246 10.9168 6.38331 10.596 6.38331 10.2002L6.38331 6.71632L9.86662 6.71678Z" fill="#0A66C2" stroke="#0A66C2" stroke-width="0.5"/>
</svg>
