<svg width="19" height="19" viewBox="0 0 19 19" fill="none" xmlns="http://www.w3.org/2000/svg">
<path d="M14.6964 0.964111H4.90613C3.75424 0.964111 3.16699 1.07751 2.55577 1.4044C1.99152 1.70616 1.54332 2.15437 1.24155 2.71862C0.914673 3.32983 0.80127 3.91708 0.80127 5.06897V10.8593C0.80127 12.0111 0.914673 12.5984 1.24155 13.2096C1.54332 13.7739 1.99152 14.2221 2.55577 14.5238L2.69667 14.5955C3.21367 14.8448 3.74594 14.9468 4.65006 14.9621L4.90127 14.9641V17.179C4.90127 17.6108 5.07056 18.0255 5.37282 18.3339L5.48944 18.4421C6.13218 18.9837 7.0936 18.9578 7.70615 18.3575L11.1673 14.9641H14.6964C15.8483 14.9641 16.4356 14.8507 17.0468 14.5238C17.611 14.2221 18.0592 13.7739 18.361 13.2096C18.6879 12.5984 18.8013 12.0111 18.8013 10.8593V5.06897C18.8013 3.91708 18.6879 3.32983 18.361 2.71862C18.0592 2.15437 17.611 1.70616 17.0468 1.4044C16.4356 1.07751 15.8483 0.964111 14.6964 0.964111ZM4.71293 2.76518L14.6964 2.76411C15.5766 2.76411 15.8831 2.8233 16.1979 2.99166C16.4485 3.12566 16.6397 3.31693 16.7737 3.56749C16.9421 3.88229 17.0013 4.18882 17.0013 5.06897V10.8593L16.9969 11.2269C16.9805 11.8339 16.9162 12.0944 16.7737 12.3607C16.6397 12.6113 16.4485 12.8026 16.1979 12.9366C15.8831 13.1049 15.5766 13.1641 14.6964 13.1641H10.8013L10.6845 13.1717C10.4919 13.1969 10.3115 13.2839 10.1713 13.4213L6.70127 16.8211V14.0641C6.70127 13.5671 6.29833 13.1641 5.80127 13.1641H4.90613L4.53851 13.1597C3.93146 13.1433 3.67102 13.079 3.40465 12.9366C3.15409 12.8026 2.96282 12.6113 2.82882 12.3607C2.66046 12.0459 2.60127 11.7394 2.60127 10.8593V5.06897L2.60565 4.70136C2.62207 4.0943 2.68636 3.83386 2.82882 3.56749C2.96282 3.31693 3.15409 3.12566 3.40465 2.99166C3.69523 2.83625 3.97877 2.77386 4.71293 2.76518Z" fill="#DBD1D1"/>
</svg>
