<svg width="10" height="11" viewBox="0 0 10 11" fill="none" xmlns="http://www.w3.org/2000/svg">
<path d="M4.875 0.625C7.56675 0.625 9.75 2.8075 9.75 5.5C9.75 8.1925 7.56675 10.375 4.875 10.375C2.1825 10.375 0 8.1925 0 5.5C0 2.8075 2.1825 0.625 4.875 0.625ZM4.875 1.75C2.80382 1.75 1.125 3.42882 1.125 5.5C1.125 7.57118 2.80382 9.25 4.875 9.25C6.94572 9.25 8.625 7.57089 8.625 5.5C8.625 3.42911 6.94572 1.75 4.875 1.75ZM4.55269 3.01C4.86335 3.01 5.11519 3.26184 5.11519 3.5725V5.37932L6.89756 5.9827C7.19181 6.08232 7.3496 6.40161 7.24999 6.69587C7.15037 6.99012 6.83107 7.14791 6.53682 7.0483L4.37232 6.31555C4.1439 6.23822 3.99019 6.0239 3.99019 5.78275V3.5725C3.99019 3.26184 4.24203 3.01 4.55269 3.01Z" fill="#DBD1D1"/>
</svg>
