<svg width="11" height="10" viewBox="0 0 11 10" fill="none" xmlns="http://www.w3.org/2000/svg">
<path d="M5.625 0.125C4.66082 0.125 3.71829 0.410914 2.9166 0.946585C2.11491 1.48226 1.49007 2.24363 1.12109 3.13442C0.752112 4.02521 0.655571 5.00541 0.843674 5.95106C1.03178 6.89672 1.49608 7.76536 2.17786 8.44714C2.85964 9.12892 3.72828 9.59322 4.67394 9.78133C5.61959 9.96943 6.59979 9.87289 7.49058 9.50391C8.38137 9.13493 9.14274 8.51009 9.67841 7.7084C10.2141 6.90671 10.5 5.96418 10.5 5C10.5 3.70707 9.98639 2.46709 9.07215 1.55285C8.15791 0.638614 6.91793 0.125 5.625 0.125ZM2.14286 5C2.14286 4.24657 2.38723 3.51346 2.83929 2.91071L3.22232 3.29375C3.32145 3.39091 3.40021 3.50685 3.45402 3.6348C3.50783 3.76274 3.5356 3.90013 3.53572 4.03893V4.78411C3.53584 4.92259 3.59095 5.05535 3.68893 5.15321L4.07893 5.54321C4.17679 5.6412 4.30956 5.69631 4.44804 5.69643H4.92857V6.17696C4.92869 6.31544 4.9838 6.44821 5.08179 6.54607L5.47179 6.93607C5.56977 7.03393 5.62488 7.1667 5.625 7.30518V8.48214C4.70148 8.48214 3.81578 8.11527 3.16275 7.46224C2.50973 6.80922 2.14286 5.92352 2.14286 5ZM6.48857 8.36375L7.88143 6.65053C7.94376 6.57323 7.98276 6.47976 7.99386 6.38109C8.00496 6.28241 7.9877 6.18261 7.94411 6.09339L7.54018 5.28553C7.49179 5.19105 7.41611 5.1133 7.32296 5.06238C7.22982 5.01146 7.12351 4.98973 7.01786 5H4.92857V4.86768C4.92924 4.80259 4.94778 4.73893 4.98217 4.68366C5.01656 4.62839 5.06547 4.58364 5.12357 4.55429L5.38822 4.42196C5.4614 4.3841 5.5426 4.36435 5.625 4.36435C5.7074 4.36435 5.7886 4.3841 5.86179 4.42196L6.32143 4.65178L6.58607 4.16429C6.64149 4.06162 6.67023 3.94667 6.66964 3.83V3.23803C6.67007 3.10095 6.72232 2.9691 6.81589 2.86893L7.56107 2.10982C8.12007 2.48369 8.55886 3.01144 8.8244 3.62929C9.08995 4.24715 9.1709 4.92869 9.05748 5.59156C8.94405 6.25443 8.6411 6.87028 8.18523 7.36469C7.72936 7.85911 7.14008 8.21094 6.48857 8.37768V8.36375Z" fill="#DBD1D1"/>
</svg>
