<svg width="26" height="26" viewBox="0 0 26 26" fill="none" xmlns="http://www.w3.org/2000/svg">
<path d="M13.0057 0C18.6158 0 22.9048 4.58817 22.9048 10.3776L22.8991 12.5866C22.8996 12.9582 23.1457 13.3878 23.8129 14.1549C23.8967 14.2512 23.9756 14.3405 24.1481 14.5352C25.4731 16.0325 26 16.8994 26 18.2462C26 18.8522 25.9295 19.3229 25.6355 19.8877C25.009 21.0914 23.6702 21.7674 21.6667 21.7674L18.4462 21.7683C17.6193 24.5059 15.7391 26 13 26C10.2609 26 8.38073 24.5059 7.5538 21.7683L4.33333 21.7674C2.27169 21.7674 0.918703 21.0731 0.319397 19.828C0.0594533 19.288 0 18.85 0 18.2462C0 16.9 0.525885 16.0332 1.84827 14.536C2.02046 14.3414 2.09921 14.2521 2.18286 14.1557C2.84973 13.3877 3.09524 12.9578 3.09524 12.5854V10.3745C3.09524 4.59016 7.39393 0 13.0057 0ZM15.8221 21.7684H10.1779C10.736 23.029 11.6364 23.5814 13 23.5814C14.3636 23.5814 15.264 23.029 15.8221 21.7684Z" fill="white"/>
</svg>
