<svg width="24" height="24" viewBox="0 0 24 24" fill="none" xmlns="http://www.w3.org/2000/svg">
<path d="M10.65 13.3488L10.6501 21.9001C10.6501 22.6456 11.2545 23.25 12 23.25C12.7456 23.25 13.35 22.6456 13.35 21.9001L13.35 13.3488L21.9 13.3499H21.9001C22.6456 13.3499 23.25 12.7455 23.25 11.9999C23.25 11.2544 22.6456 10.65 21.9001 10.65L13.35 10.65L13.35 2.09995C13.35 1.35439 12.7456 0.75 12 0.75C11.2545 0.75 10.6501 1.35439 10.6501 2.09994L10.65 10.65L2.09994 10.65C1.35439 10.65 0.75 11.2544 0.75 11.9999C0.75 12.7455 1.35439 13.3499 2.09994 13.3499H2.09997L10.65 13.3488Z" fill="#15C1DA" stroke="#15C1DA" stroke-width="0.5"/>
</svg>
