<svg width="10" height="10" viewBox="0 0 10 10" fill="none" xmlns="http://www.w3.org/2000/svg">
<path d="M4.875 0.125C7.56675 0.125 9.75 2.3075 9.75 5C9.75 7.6925 7.56675 9.875 4.875 9.875C2.1825 9.875 0 7.6925 0 5C0 2.3075 2.1825 0.125 4.875 0.125ZM4.875 1.25C2.80382 1.25 1.125 2.92882 1.125 5C1.125 7.07118 2.80382 8.75 4.875 8.75C6.94572 8.75 8.625 7.07089 8.625 5C8.625 2.92911 6.94572 1.25 4.875 1.25ZM4.55269 2.51C4.86335 2.51 5.11519 2.76184 5.11519 3.0725V4.87932L6.89756 5.4827C7.19181 5.58232 7.3496 5.90161 7.24999 6.19587C7.15037 6.49012 6.83107 6.64791 6.53682 6.5483L4.37232 5.81555C4.1439 5.73822 3.99019 5.5239 3.99019 5.28275V3.0725C3.99019 2.76184 4.24203 2.51 4.55269 2.51Z" fill="#DBD1D1"/>
</svg>
