<svg width="11" height="11" viewBox="0 0 11 11" fill="none" xmlns="http://www.w3.org/2000/svg">
<path d="M9.53361 6.21653H9.53364C9.92943 6.21653 10.2503 5.89568 10.2503 5.4999C10.2503 5.10411 9.92943 4.78326 9.53364 4.78326L6.0503 4.78323L6.0503 1.2999C6.0503 0.904104 5.72945 0.583252 5.33366 0.583252C4.93786 0.583252 4.61701 0.904105 4.61701 1.29989L4.61697 4.78323L1.13363 4.78326C0.737842 4.78326 0.416992 5.10411 0.416992 5.4999C0.416992 5.89568 0.737842 6.21653 1.13363 6.21653H1.13366L4.61697 6.21607L4.61701 9.69994C4.61701 10.0957 4.93786 10.4166 5.33366 10.4166C5.72945 10.4166 6.0503 10.0957 6.0503 9.69994L6.0503 6.21607L9.53361 6.21653Z" fill="#0A66C2" stroke="#0A66C2" stroke-width="0.5"/>
</svg>
