<svg width="30" height="30" viewBox="0 0 30 30" fill="none" xmlns="http://www.w3.org/2000/svg">
<path d="M4.97674 15.0478C4.98791 15.3366 4.98791 15.6262 5.01283 15.9132C5.04892 16.3248 5.09447 16.7356 5.19673 17.1377C5.26719 17.4136 5.32476 17.6928 5.39867 17.9678C5.49921 18.3434 5.6367 18.706 5.7845 19.066C5.95723 19.4854 6.15573 19.891 6.38603 20.282C6.78132 20.9548 7.23247 21.5882 7.76697 22.1579C8.20952 22.6288 8.68387 23.0688 9.20634 23.4538C9.83536 23.9169 10.4962 24.3268 11.212 24.6405C11.8178 24.906 12.4374 25.1355 13.0853 25.2764C13.5562 25.3787 14.0297 25.4672 14.511 25.5144C15.0472 25.5668 15.5842 25.5703 16.1187 25.5445C16.6275 25.5196 17.1345 25.4526 17.6363 25.3451C18.1124 25.2437 18.5781 25.1105 19.037 24.9524C19.538 24.7797 20.0184 24.5614 20.485 24.3114C21.047 24.0097 21.5729 23.6531 22.0722 23.257C22.7665 22.707 23.38 22.0788 23.9111 21.369C24.1577 21.0399 24.388 20.7013 24.5943 20.3464C24.6347 20.2768 24.6699 20.3078 24.7146 20.3336C25.1503 20.5862 25.5859 20.838 26.0225 21.0898C26.2115 21.1989 26.4014 21.3054 26.5905 21.4129C26.6824 21.4653 26.6859 21.479 26.6326 21.5718C26.4143 21.9534 26.1677 22.316 25.8987 22.664C25.7286 22.884 25.5627 23.1083 25.3874 23.324C25.2637 23.4761 25.1339 23.6248 24.9947 23.7631C24.6922 24.0665 24.3941 24.375 24.0735 24.6594C23.6267 25.0547 23.1549 25.4199 22.6574 25.7516C22.1392 26.0962 21.6021 26.4098 21.0384 26.6719C20.6766 26.8395 20.3045 26.9864 19.9342 27.1351C19.3498 27.3697 18.7397 27.5175 18.1244 27.6464C17.6234 27.7512 17.1181 27.8209 16.6077 27.8664C15.9967 27.9205 15.3857 27.9111 14.7739 27.8905C14.175 27.8698 13.5855 27.7813 12.9985 27.6688C12.2183 27.5192 11.4578 27.2967 10.7213 26.9976C10.2676 26.8137 9.82677 26.6049 9.39367 26.3763C8.46474 25.8857 7.62518 25.2721 6.84062 24.5786C6.46595 24.2469 6.1162 23.8894 5.79482 23.5062C5.52413 23.1839 5.26461 22.8514 5.00853 22.518C4.85987 22.3246 4.72066 22.1235 4.58918 21.919C4.45942 21.7171 4.33482 21.51 4.22397 21.2977C3.94555 20.7641 3.68775 20.2227 3.4712 19.6598C3.28387 19.1735 3.13091 18.6785 3.00716 18.1741C2.88686 17.6825 2.80179 17.1841 2.7296 16.6823C2.63164 15.9957 2.61617 15.3082 2.63164 14.6199C2.64195 14.1782 2.66859 13.7374 2.75194 13.3008C2.82585 12.9124 2.87998 12.5206 2.96076 12.1339C3.05958 11.6595 3.1902 11.1929 3.36808 10.7418C3.53565 10.3181 3.70408 9.89275 3.89828 9.48114C4.16811 8.91054 4.47145 8.35542 4.83667 7.83897C5.23883 7.27009 5.66849 6.72356 6.14972 6.21656C6.60172 5.74135 7.08638 5.30481 7.60284 4.90351C8.0282 4.57267 8.47333 4.27105 8.94252 4.00122C9.38679 3.746 9.83622 3.50281 10.3046 3.29571C10.8064 3.07401 11.3177 2.86949 11.8479 2.72512C12.3257 2.5945 12.8112 2.48623 13.2984 2.39342C13.6516 2.32553 14.0125 2.29546 14.3709 2.25335C14.9054 2.19148 15.4425 2.20781 15.9787 2.2121C16.2219 2.21468 16.4651 2.23358 16.7065 2.25765C17.0159 2.28944 17.327 2.31694 17.6312 2.37709C18.1253 2.4742 18.6168 2.58333 19.104 2.70965C19.6575 2.85316 20.1859 3.07229 20.7127 3.29399C21.2773 3.53202 21.8144 3.82248 22.3342 4.143C22.629 4.32432 22.9134 4.52369 23.1893 4.7325C23.5107 4.97569 23.8235 5.23091 24.1302 5.49301C24.4284 5.74823 24.7189 6.0129 24.9724 6.31538C25.225 6.61615 25.494 6.90316 25.7363 7.21166C26.1445 7.73155 26.502 8.28667 26.8251 8.86328C26.954 9.09358 27.0932 9.31786 27.2298 9.54387C27.2848 9.63495 27.2805 9.65644 27.1843 9.70972C26.7606 9.94775 26.3361 10.1832 25.9142 10.4238C25.6504 10.5742 25.3917 10.7315 25.1279 10.8827C24.4877 11.2505 23.8449 11.6157 23.2047 11.9844C22.6909 12.28 22.1804 12.5816 21.6666 12.8772C21.3228 13.0748 20.9765 13.2673 20.6328 13.465C20.2392 13.691 19.8474 13.9187 19.4546 14.1456C19.0869 14.3578 18.7182 14.5692 18.3504 14.7823C17.9955 14.9877 17.6432 15.1982 17.2866 15.4019C16.8681 15.6408 16.4479 15.8771 16.0251 16.1083C15.7321 16.2681 15.4218 16.2724 15.1125 16.1658C14.5694 15.9776 14.3314 15.511 14.3417 15.0487C14.3511 14.6225 14.5273 14.2684 14.9131 14.045C15.4382 13.7408 15.9641 13.4375 16.4908 13.1341C17.1749 12.7406 17.8597 12.3478 18.5446 11.9551C18.7835 11.8185 19.0224 11.6827 19.2613 11.547C19.3412 11.5014 19.3438 11.4885 19.2793 11.4215C18.8806 11.0099 18.4312 10.667 17.9208 10.4023C17.4911 10.1798 17.0425 10.0105 16.5699 9.91681C16.0251 9.80854 15.4743 9.763 14.9174 9.84635C14.6132 9.89189 14.3099 9.9383 14.0151 10.0251C13.6301 10.1385 13.2658 10.2992 12.916 10.496C12.6445 10.6498 12.3876 10.8243 12.1521 11.0279C11.7285 11.394 11.3512 11.8048 11.0556 12.2817C10.6629 12.9159 10.3974 13.6007 10.3003 14.3441C10.259 14.6586 10.2195 14.9739 10.2487 15.2928C10.2848 15.6837 10.3363 16.0704 10.4438 16.4503C10.6036 17.0105 10.8451 17.5313 11.1742 18.0117C11.4629 18.4327 11.8118 18.8005 12.2045 19.1245C12.6969 19.5301 13.2512 19.8308 13.8561 20.0362C14.26 20.1737 14.6759 20.2545 15.1022 20.2897C15.7553 20.3439 16.3946 20.2717 17.0193 20.0843C17.9293 19.8111 18.7053 19.3213 19.3558 18.6295C19.5921 18.3786 19.7967 18.1045 19.9814 17.8157C20.21 17.46 20.387 17.0793 20.5211 16.6788C20.5709 16.5302 20.6079 16.3781 20.6474 16.2268C20.6646 16.1607 20.6955 16.1134 20.7574 16.0782C21.1948 15.8281 21.6296 15.5746 22.0653 15.322C22.3669 15.1467 22.6668 14.9688 22.9693 14.7943C23.014 14.7686 23.0664 14.7557 23.1154 14.7376C23.1197 14.7857 23.1308 14.8339 23.1283 14.882C23.1111 15.2738 23.1076 15.6674 23.0681 16.0567C23.0398 16.342 22.9727 16.6256 22.9074 16.9057C22.7622 17.5304 22.5259 18.1225 22.2182 18.6845C21.9218 19.225 21.5643 19.7209 21.1484 20.1772C20.8468 20.5089 20.5185 20.8096 20.161 21.0777C19.7288 21.4017 19.2819 21.7033 18.7818 21.9164C18.5756 22.0049 18.3753 22.1098 18.1639 22.1837C17.8855 22.2816 17.6011 22.3659 17.3149 22.4406C16.6704 22.609 16.0122 22.6683 15.3488 22.6546C14.8048 22.6434 14.266 22.5781 13.735 22.4509C13.0673 22.2911 12.434 22.0453 11.8333 21.7179C11.3512 21.4558 10.9009 21.1439 10.4919 20.7804C9.98317 20.3284 9.52085 19.8326 9.16079 19.2517C9.02416 19.0308 8.88065 18.8125 8.75863 18.5831C8.46818 18.0323 8.25506 17.4522 8.10812 16.8464C7.94399 16.1727 7.88384 15.4887 7.90274 14.7986C7.91907 14.2134 8.0093 13.636 8.16054 13.068C8.34959 12.3556 8.65035 11.6922 9.03103 11.0649C9.4564 10.3637 9.99348 9.75612 10.6234 9.22677C11.0943 8.83063 11.6073 8.50236 12.1581 8.23426C12.6978 7.9713 13.2589 7.75905 13.8544 7.65077C14.1174 7.60265 14.3795 7.53648 14.645 7.50984C15.1649 7.45828 15.6856 7.44196 16.209 7.49352C16.7916 7.55023 17.3613 7.66023 17.9165 7.84326C18.3435 7.98419 18.7595 8.15692 19.153 8.37432C19.5234 8.5797 19.8835 8.80399 20.2109 9.07725C20.5047 9.32302 20.8021 9.56449 21.0607 9.84807C21.1578 9.95462 21.2524 10.0655 21.3452 10.1755C21.4285 10.2734 21.4603 10.2769 21.572 10.2116C21.8779 10.0345 22.1847 9.85924 22.4924 9.68394C22.9573 9.41841 23.423 9.15287 23.8888 8.8882C23.9042 8.87961 23.9188 8.86844 23.9352 8.8607C23.9945 8.8332 23.9919 8.80141 23.9524 8.75501C23.7066 8.47229 23.4694 8.18184 23.2151 7.90599C22.8077 7.4643 22.3626 7.06042 21.8797 6.70208C21.4895 6.41249 21.0934 6.13063 20.6594 5.9072C20.3673 5.75682 20.082 5.59183 19.7812 5.46121C19.4349 5.31083 19.0774 5.18451 18.7199 5.06077C18.2705 4.90523 17.8082 4.79523 17.339 4.71446C16.9798 4.65345 16.6197 4.59329 16.2537 4.5847C15.8386 4.57525 15.4236 4.5529 15.0094 4.56579C14.4878 4.58126 13.9704 4.6543 13.4574 4.75484C12.9685 4.85109 12.4907 4.98085 12.0223 5.14584C11.5849 5.30052 11.1596 5.48613 10.7454 5.69667C10.1894 5.97853 9.66092 6.30335 9.16595 6.68145C8.71652 7.02432 8.30147 7.40501 7.90876 7.81061C7.54698 8.1827 7.22645 8.58916 6.92225 9.00851C6.55704 9.51293 6.23823 10.0457 5.97957 10.6111C5.82145 10.9575 5.6831 11.3132 5.55163 11.6707C5.34195 12.2404 5.20618 12.8316 5.10907 13.4306C5.02228 13.966 4.96643 14.5056 4.98189 15.0504L4.97674 15.0478Z" fill="#7CB82F"/>
</svg>
