<svg width="36" height="36" viewBox="0 0 36 36" fill="none" xmlns="http://www.w3.org/2000/svg">
<path fill-rule="evenodd" clip-rule="evenodd" d="M3.26348 17.3558C3.26348 10.0787 10.0636 4.5 18.0255 4.5C25.9874 4.5 32.7875 10.0787 32.7875 17.3558C32.7875 24.6328 25.9874 30.2116 18.0255 30.2116C16.26 30.2116 14.5631 29.9417 12.9881 29.4446C11.1304 31.1783 8.43132 32.0117 5.12958 32.1414C3.78459 32.1943 2.81381 30.7954 3.37699 29.5431C4.17593 27.7542 5.20823 25.7033 5.33064 23.9146C4.02329 22.0108 3.26348 19.7641 3.26348 17.3558ZM18.0255 7.07143C11.1019 7.07143 5.83491 11.8529 5.83491 17.3558C5.83491 19.3319 6.49658 21.1858 7.66301 22.7566C7.82761 22.9782 7.91648 23.247 7.91648 23.5231C7.91648 25.6237 7.07914 27.6055 6.2265 29.4865C8.87002 29.2057 10.6042 28.3592 11.65 27.1286C12.0012 26.7153 12.574 26.5668 13.0817 26.7575C14.5889 27.3235 16.2607 27.6402 18.0255 27.6402C24.9492 27.6402 30.2161 22.8587 30.2161 17.3558C30.2161 11.8529 24.9492 7.07143 18.0255 7.07143Z" fill="#01BBD6"/>
</svg>
