<svg width="36" height="36" viewBox="0 0 36 36" fill="none" xmlns="http://www.w3.org/2000/svg">
<path fill-rule="evenodd" clip-rule="evenodd" d="M3.26397 17.3558C3.26397 10.0787 10.0641 4.5 18.026 4.5C25.9879 4.5 32.788 10.0787 32.788 17.3558C32.788 24.6328 25.9879 30.2116 18.026 30.2116C16.2605 30.2116 14.5635 29.9417 12.9886 29.4446C11.1309 31.1783 8.43181 32.0117 5.13007 32.1414C3.78508 32.1943 2.8143 30.7954 3.37747 29.5431C4.17642 27.7542 5.20872 25.7033 5.33113 23.9146C4.02377 22.0108 3.26397 19.7641 3.26397 17.3558ZM18.026 7.07143C11.1023 7.07143 5.83539 11.8529 5.83539 17.3558C5.83539 19.3319 6.49707 21.1858 7.6635 22.7566C7.82809 22.9782 7.91697 23.247 7.91697 23.5231C7.91697 25.6237 7.07963 27.6055 6.22699 29.4865C8.87051 29.2057 10.6047 28.3592 11.6505 27.1286C12.0017 26.7153 12.5745 26.5668 13.0822 26.7575C14.5894 27.3235 16.2612 27.6402 18.026 27.6402C24.9497 27.6402 30.2166 22.8587 30.2166 17.3558C30.2166 11.8529 24.9497 7.07143 18.026 7.07143Z" fill="#565656"/>
</svg>
