<svg width="109" height="24" viewBox="0 0 109 24" fill="none" xmlns="http://www.w3.org/2000/svg">
<g clip-path="url(#clip0_289_4481)">
<path d="M45.4135 4.5999V18.3999H43.0135V7.5829H42.9775L38.6965 18.3999H37.1085L32.7195 7.5829H32.6905V18.3999H30.4775V4.5999H33.9135L37.8775 14.8299H37.9355L42.1225 4.5999H45.4135ZM47.4135 5.6489C47.41 5.4671 47.4455 5.28665 47.5178 5.1198C47.5901 4.95296 47.6974 4.80361 47.8325 4.6819C48.1016 4.42542 48.4609 4.2853 48.8325 4.2919C49.0208 4.28611 49.2082 4.31857 49.3835 4.38732C49.5589 4.45608 49.7184 4.55969 49.8525 4.6919C49.9815 4.81553 50.0835 4.96441 50.1523 5.12924C50.2211 5.29406 50.2553 5.4713 50.2525 5.6499C50.256 5.82916 50.2209 6.00708 50.1494 6.17153C50.078 6.33598 49.972 6.48311 49.8385 6.6029C49.5653 6.85861 49.2026 6.99686 48.8285 6.9879C48.6444 6.99226 48.4611 6.96024 48.2894 6.89366C48.1176 6.82708 47.9607 6.72725 47.8275 6.5999C47.6963 6.47968 47.5921 6.33306 47.5216 6.16967C47.4511 6.00628 47.416 5.82983 47.4185 5.6519M49.9875 18.3999H47.6585V8.5069H49.9875V18.3999ZM57.0515 16.7059C57.4447 16.6963 57.8328 16.6146 58.1965 16.4649C58.6088 16.3072 58.9975 16.0935 59.3515 15.8299V17.9999C58.9552 18.221 58.5287 18.383 58.0855 18.4809C57.5754 18.5944 57.0541 18.6494 56.5315 18.6449C55.8786 18.6748 55.2266 18.5684 54.617 18.3325C54.0075 18.0966 53.4537 17.7363 52.9911 17.2746C52.5284 16.8129 52.167 16.2599 51.9298 15.6508C51.6927 15.0417 51.5849 14.3899 51.6135 13.7369C51.5603 12.2954 52.0613 10.8884 53.0135 9.8049C53.5213 9.27595 54.138 8.86379 54.821 8.597C55.5039 8.33022 56.2367 8.21519 56.9685 8.2599C57.4151 8.26108 57.8598 8.31751 58.2925 8.4279C58.6621 8.5119 59.0193 8.64297 59.3555 8.8179V11.0509C59.0175 10.7995 58.6476 10.594 58.2555 10.4399C57.8889 10.2971 57.499 10.2236 57.1055 10.2229C56.6924 10.2069 56.2806 10.2789 55.8973 10.4341C55.5141 10.5892 55.1682 10.824 54.8825 11.1229C54.2934 11.7855 53.9891 12.6535 54.0355 13.5389C54.0099 13.963 54.0685 14.388 54.2081 14.7892C54.3476 15.1905 54.5653 15.5602 54.8485 15.8769C55.1387 16.1618 55.4849 16.3833 55.8651 16.5274C56.2454 16.6714 56.6514 16.735 57.0575 16.7139M65.9775 8.3429C66.145 8.34169 66.3123 8.35474 66.4775 8.3819C66.6054 8.40358 66.7309 8.43706 66.8525 8.4819V10.8399C66.6879 10.7294 66.508 10.6435 66.3185 10.5849C66.043 10.4987 65.7552 10.4581 65.4665 10.4649C65.1857 10.4645 64.9086 10.5296 64.6573 10.6549C64.4059 10.7802 64.1872 10.9624 64.0185 11.1869C63.574 11.8389 63.3651 12.6231 63.4265 13.4099V18.3999H61.1025V8.5069H63.4315V10.0659H63.4695C63.6577 9.55763 63.993 9.11691 64.4325 8.7999C64.8865 8.4885 65.4272 8.32855 65.9775 8.3429ZM66.9775 13.5969C66.941 12.8891 67.0452 12.1811 67.2841 11.5139C67.523 10.8467 67.892 10.2335 68.3695 9.7099C68.8768 9.21698 69.481 8.83494 70.1438 8.58807C70.8065 8.3412 71.5134 8.23489 72.2195 8.2759C72.8866 8.23784 73.5543 8.34119 74.1786 8.57919C74.803 8.81718 75.37 9.18444 75.8425 9.6569C76.7482 10.6813 77.2151 12.0205 77.1425 13.3859C77.1779 14.0844 77.0735 14.7829 76.8355 15.4406C76.5975 16.0982 76.2307 16.7018 75.7565 17.2159C75.2604 17.7011 74.6691 18.0782 74.0198 18.3233C73.3706 18.5684 72.6776 18.6762 71.9845 18.6399C71.3159 18.674 70.6474 18.5718 70.0195 18.3394C69.3917 18.1069 68.8177 17.7492 68.3325 17.2879C67.8698 16.7965 67.5116 16.2162 67.2797 15.5823C67.0479 14.9483 66.9471 14.2739 66.9835 13.5999M69.4085 13.5229C69.3496 14.3707 69.5981 15.2114 70.1085 15.8909C70.3609 16.1694 70.6727 16.3875 71.0208 16.5291C71.3689 16.6707 71.7444 16.7321 72.1195 16.7089C72.4833 16.7322 72.8475 16.6705 73.1832 16.5285C73.5189 16.3865 73.8169 16.1682 74.0535 15.8909C74.5449 15.1819 74.7792 14.3263 74.7175 13.4659C74.78 12.6062 74.5363 11.7522 74.0295 11.0549C73.7908 10.7818 73.4931 10.5667 73.1588 10.4259C72.8246 10.285 72.4627 10.2221 72.1005 10.2419C71.726 10.2215 71.3518 10.2878 71.007 10.4356C70.6622 10.5834 70.3561 10.8086 70.1125 11.0939C69.5991 11.7959 69.3489 12.656 69.4055 13.5239M80.6055 11.1079C80.5979 11.254 80.6224 11.4001 80.6773 11.5357C80.7323 11.6714 80.8163 11.7933 80.9235 11.8929C81.3529 12.1986 81.8245 12.4402 82.3235 12.6099C83.0703 12.8603 83.7433 13.2918 84.2825 13.8659C84.6631 14.3451 84.8625 14.9432 84.8455 15.5549C84.8582 15.9861 84.7679 16.4141 84.5822 16.8035C84.3965 17.1929 84.1206 17.5324 83.7775 17.7939C82.9353 18.3977 81.9124 18.6965 80.8775 18.6409C80.4198 18.636 79.9636 18.5861 79.5155 18.4919C79.0813 18.4118 78.6571 18.2844 78.2505 18.1119V15.8219C78.6727 16.1155 79.1325 16.3509 79.6175 16.5219C80.0422 16.6834 80.4913 16.7713 80.9455 16.7819C81.346 16.8082 81.7466 16.7321 82.1095 16.5609C82.2347 16.4844 82.336 16.3745 82.4023 16.2436C82.4685 16.1128 82.497 15.966 82.4845 15.8199C82.4855 15.6637 82.4509 15.5093 82.3833 15.3684C82.3158 15.2275 82.217 15.1039 82.0945 15.0069C81.6418 14.6819 81.1442 14.4242 80.6175 14.2419C79.9183 13.9923 79.2905 13.576 78.7885 13.0289C78.4154 12.5378 78.2248 11.9322 78.2495 11.3159C78.2418 10.8915 78.3339 10.4713 78.5186 10.0891C78.7033 9.70691 78.9752 9.37354 79.3125 9.1159C80.1048 8.51387 81.0835 8.20947 82.0775 8.2559C82.4682 8.26003 82.8577 8.29852 83.2415 8.3709C83.6107 8.43153 83.9721 8.53212 84.3195 8.6709V10.8849C83.9829 10.6657 83.6209 10.488 83.2415 10.3559C82.8501 10.212 82.4366 10.1372 82.0195 10.1349C81.6564 10.1139 81.2956 10.2047 80.9855 10.3949C80.8681 10.4721 80.7724 10.578 80.7075 10.7027C80.6425 10.8273 80.6105 10.9664 80.6145 11.1069M85.8555 13.5999C85.8178 12.8921 85.9208 12.1837 86.1587 11.516C86.3966 10.8483 86.7647 10.2344 87.2415 9.7099C87.7486 9.2171 88.3527 8.83514 89.0153 8.58828C89.6779 8.34141 90.3846 8.23503 91.0905 8.2759C91.7578 8.23776 92.4256 8.34107 93.0501 8.57907C93.6747 8.81706 94.2419 9.18436 94.7145 9.6569C95.6202 10.6813 96.0871 12.0205 96.0145 13.3859C96.0498 14.0844 95.9454 14.7829 95.7074 15.4405C95.4694 16.0982 95.1026 16.7017 94.6285 17.2159C94.1323 17.7012 93.5407 18.0783 92.8913 18.3234C92.2419 18.5685 91.5487 18.6763 90.8555 18.6399C90.1869 18.6741 89.5184 18.5719 88.8905 18.3394C88.2627 18.107 87.6887 17.7492 87.2035 17.2879C86.741 16.7964 86.383 16.2161 86.1513 15.5822C85.9196 14.9482 85.819 14.2739 85.8555 13.5999ZM88.2805 13.5229C88.2218 14.3707 88.4703 15.2113 88.9805 15.8909C89.233 16.1693 89.5448 16.3874 89.8929 16.529C90.241 16.6706 90.6165 16.7321 90.9915 16.7089C91.3553 16.7322 91.7195 16.6705 92.0552 16.5285C92.3909 16.3865 92.6889 16.1682 92.9255 15.8909C93.4169 15.1819 93.6512 14.3263 93.5895 13.4659C93.652 12.6062 93.4083 11.7522 92.9015 11.0549C92.6627 10.7818 92.3647 10.5666 92.0303 10.4257C91.6959 10.2849 91.3338 10.222 90.9715 10.2419C90.5971 10.2216 90.2231 10.2879 89.8785 10.4357C89.5339 10.5835 89.228 10.8087 88.9845 11.0939C88.4711 11.7959 88.2209 12.656 88.2775 13.5239M103.742 10.4149H100.278V18.3999H97.9185V10.4119H96.2635V8.5069H97.9185V7.1299C97.9019 6.65699 97.9836 6.18578 98.1583 5.74602C98.333 5.30625 98.5969 4.90749 98.9335 4.5749C99.2775 4.24204 99.685 3.98193 100.132 3.81011C100.578 3.63829 101.055 3.5583 101.534 3.5749C101.785 3.57298 102.035 3.58735 102.285 3.6179C102.481 3.64207 102.674 3.68562 102.862 3.7479V5.7639C102.733 5.69742 102.599 5.64253 102.462 5.5999C102.247 5.53128 102.023 5.49752 101.798 5.4999C101.588 5.48708 101.378 5.52148 101.183 5.60057C100.988 5.67965 100.813 5.80141 100.672 5.9569C100.381 6.34666 100.241 6.82819 100.278 7.3129V8.5069H103.747V6.2829L106.086 5.5709V8.5069H108.444V10.4129H106.086V15.0419C106.041 15.4975 106.159 15.9542 106.418 16.3319C106.554 16.4661 106.718 16.5691 106.898 16.6338C107.079 16.6986 107.271 16.7235 107.462 16.7069C107.628 16.6998 107.792 16.666 107.948 16.6069C108.123 16.5503 108.291 16.4727 108.448 16.3759V18.2999C108.214 18.4113 107.967 18.489 107.712 18.5309C107.378 18.6006 107.038 18.6361 106.697 18.6369C106.294 18.6679 105.889 18.6142 105.509 18.4792C105.128 18.3441 104.78 18.1308 104.488 17.8529C103.949 17.1885 103.685 16.3427 103.752 15.4899L103.742 10.4149Z" fill="#737373"/>
<path d="M11.5086 0H0.577637V10.931H11.5086V0Z" fill="#F25022"/>
<path d="M23.5775 0H12.6465V10.931H23.5775V0Z" fill="#7FBA00"/>
<path d="M11.5086 12.0691H0.577637V23.0001H11.5086V12.0691Z" fill="#00A4EF"/>
<path d="M23.5775 12.0691H12.6465V23.0001H23.5775V12.0691Z" fill="#FFB900"/>
</g>
<defs>
<clipPath id="clip0_289_4481">
<rect width="108" height="24" fill="white" transform="translate(0.577637)"/>
</clipPath>
</defs>
</svg>
