<svg width="108" height="25" viewBox="0 0 108 25" fill="none" xmlns="http://www.w3.org/2000/svg">
<g clip-path="url(#clip0_289_4562)">
<path d="M44.8359 5.48173V19.2817H42.4359V8.46473H42.3999L38.1189 19.2817H36.5309L32.1419 8.46473H32.1129V19.2817H29.8999V5.48173H33.3359L37.2999 15.7117H37.3579L41.5449 5.48173H44.8359ZM46.8359 6.53073C46.8323 6.34893 46.8679 6.16849 46.9402 6.00164C47.0125 5.83479 47.1198 5.68545 47.2549 5.56373C47.524 5.30726 47.8832 5.16714 48.2549 5.17373C48.4431 5.16794 48.6306 5.20041 48.8059 5.26916C48.9812 5.33791 49.1408 5.44153 49.2749 5.57373C49.4038 5.69737 49.5059 5.84625 49.5747 6.01107C49.6435 6.1759 49.6776 6.35314 49.6749 6.53173C49.6784 6.711 49.6432 6.88891 49.5718 7.05337C49.5004 7.21782 49.3943 7.36495 49.2609 7.48473C48.9877 7.74045 48.625 7.87869 48.2509 7.86973C48.0667 7.8741 47.8835 7.84208 47.7117 7.77549C47.54 7.70891 47.383 7.60909 47.2499 7.48173C47.1187 7.36152 47.0144 7.2149 46.9439 7.05151C46.8734 6.88812 46.8383 6.71166 46.8409 6.53373M49.4099 19.2817H47.0809V9.38873H49.4099V19.2817ZM56.4739 17.5877C56.8671 17.5782 57.2552 17.4965 57.6189 17.3467C58.0312 17.1891 58.4199 16.9754 58.7739 16.7117V18.8817C58.3775 19.1028 57.9511 19.2648 57.5079 19.3627C56.9978 19.4762 56.4764 19.5312 55.9539 19.5267C55.301 19.5567 54.6489 19.4503 54.0394 19.2143C53.4298 18.9784 52.8761 18.6181 52.4134 18.1564C51.9508 17.6947 51.5894 17.1417 51.3522 16.5326C51.115 15.9235 51.0073 15.2717 51.0359 14.6187C50.9827 13.1773 51.4837 11.7702 52.4359 10.6867C52.9436 10.1578 53.5604 9.74563 54.2433 9.47884C54.9263 9.21205 55.6591 9.09702 56.3909 9.14173C56.8375 9.14291 57.2822 9.19934 57.7149 9.30973C58.0845 9.39374 58.4417 9.52481 58.7779 9.69973V11.9327C58.4399 11.6813 58.07 11.4759 57.6779 11.3217C57.3113 11.179 56.9214 11.1054 56.5279 11.1047C56.1148 11.0888 55.7029 11.1607 55.3197 11.3159C54.9365 11.471 54.5906 11.7058 54.3049 12.0047C53.7157 12.6673 53.4114 13.5353 53.4579 14.4207C53.4323 14.8448 53.4909 15.2698 53.6305 15.6711C53.77 16.0724 53.9877 16.442 54.2709 16.7587C54.5611 17.0436 54.9073 17.2651 55.2875 17.4092C55.6678 17.5533 56.0738 17.6168 56.4799 17.5957M65.3999 9.22473C65.5674 9.22353 65.7346 9.23657 65.8999 9.26373C66.0277 9.28542 66.1533 9.3189 66.2749 9.36373V11.7217C66.1102 11.6112 65.9303 11.5253 65.7409 11.4667C65.4653 11.3805 65.1775 11.34 64.8889 11.3467C64.608 11.3463 64.331 11.4114 64.0796 11.5367C63.8283 11.662 63.6096 11.8442 63.4409 12.0687C62.9963 12.7208 62.7875 13.505 62.8489 14.2917V19.2817H60.5249V9.38873H62.8539V10.9477H62.8919C63.0801 10.4395 63.4153 9.99875 63.8549 9.68173C64.3089 9.37034 64.8496 9.21039 65.3999 9.22473ZM66.3999 14.4787C66.3633 13.771 66.4675 13.063 66.7065 12.3958C66.9454 11.7286 67.3143 11.1154 67.7919 10.5917C68.2991 10.0988 68.9033 9.71678 69.5661 9.46991C70.2289 9.22304 70.9358 9.11673 71.6419 9.15773C72.309 9.11967 72.9766 9.22303 73.601 9.46102C74.2254 9.69902 74.7924 10.0663 75.2649 10.5387C76.1706 11.5631 76.6375 12.9023 76.5649 14.2677C76.6003 14.9662 76.4959 15.6648 76.2579 16.3224C76.0199 16.9801 75.6531 17.5836 75.1789 18.0977C74.6828 18.583 74.0914 18.96 73.4422 19.2051C72.7929 19.4502 72.0999 19.558 71.4069 19.5217C70.7383 19.5559 70.0697 19.4536 69.4419 19.2212C68.8141 18.9888 68.2401 18.631 67.7549 18.1697C67.2922 17.6783 66.934 17.098 66.7021 16.4641C66.4702 15.8302 66.3695 15.1558 66.4059 14.4817M68.8309 14.4047C68.772 15.2525 69.0205 16.0932 69.5309 16.7727C69.7833 17.0512 70.0951 17.2693 70.4432 17.4109C70.7913 17.5525 71.1668 17.614 71.5419 17.5907C71.9057 17.6141 72.2699 17.5523 72.6056 17.4103C72.9413 17.2683 73.2393 17.05 73.4759 16.7727C73.9672 16.0637 74.2015 15.2081 74.1399 14.3477C74.2024 13.488 73.9586 12.634 73.4519 11.9367C73.2132 11.6637 72.9154 11.4486 72.5812 11.3077C72.247 11.1668 71.8851 11.1039 71.5229 11.1237C71.1483 11.1034 70.7741 11.1697 70.4293 11.3174C70.0846 11.4652 69.7785 11.6905 69.5349 11.9757C69.0215 12.6777 68.7712 13.5379 68.8279 14.4057M80.0279 11.9897C80.0202 12.1359 80.0447 12.2819 80.0997 12.4176C80.1546 12.5532 80.2387 12.6751 80.3459 12.7747C80.7753 13.0805 81.2469 13.322 81.7459 13.4917C82.4926 13.7421 83.1657 14.1737 83.7049 14.7477C84.0855 15.2269 84.2848 15.825 84.2679 16.4367C84.2806 16.8679 84.1903 17.296 84.0046 17.6853C83.8188 18.0747 83.543 18.4142 83.1999 18.6757C82.3576 19.2795 81.3348 19.5783 80.2999 19.5227C79.8421 19.5179 79.3859 19.468 78.9379 19.3737C78.5036 19.2936 78.0794 19.1662 77.6729 18.9937V16.7037C78.0951 16.9973 78.5549 17.2328 79.0399 17.4037C79.4646 17.5652 79.9137 17.6531 80.3679 17.6637C80.7684 17.69 81.1689 17.614 81.5319 17.4427C81.657 17.3662 81.7584 17.2564 81.8246 17.1255C81.8909 16.9946 81.9193 16.8479 81.9069 16.7017C81.9079 16.5455 81.8733 16.3911 81.8057 16.2502C81.7381 16.1094 81.6394 15.9857 81.5169 15.8887C81.0641 15.5637 80.5666 15.306 80.0399 15.1237C79.3406 14.8742 78.7128 14.4578 78.2109 13.9107C77.8377 13.4197 77.6471 12.814 77.6719 12.1977C77.6641 11.7734 77.7563 11.3531 77.941 10.9709C78.1256 10.5888 78.3976 10.2554 78.7349 9.99773C79.5272 9.39571 80.5059 9.0913 81.4999 9.13773C81.8905 9.14187 82.28 9.18035 82.6639 9.25273C83.033 9.31337 83.3945 9.41396 83.7419 9.55273V11.7667C83.4052 11.5475 83.0433 11.3699 82.6639 11.2377C82.2724 11.0938 81.859 11.0191 81.4419 11.0167C81.0788 10.9958 80.7179 11.0865 80.4079 11.2767C80.2905 11.3539 80.1948 11.4599 80.1298 11.5845C80.0649 11.7091 80.0329 11.8483 80.0369 11.9887M85.2779 14.4817C85.2401 13.7739 85.3432 13.0656 85.5811 12.3978C85.819 11.7301 86.187 11.1162 86.6639 10.5917C87.171 10.0989 87.775 9.71698 88.4377 9.47011C89.1003 9.22325 89.807 9.11687 90.5129 9.15773C91.1802 9.11959 91.848 9.22291 92.4725 9.4609C93.097 9.6989 93.6642 10.0662 94.1369 10.5387C95.0426 11.5631 95.5095 12.9023 95.4369 14.2677C95.4721 14.9662 95.3677 15.6647 95.1297 16.3224C94.8918 16.98 94.525 17.5836 94.0509 18.0977C93.5546 18.583 92.9631 18.9602 92.3137 19.2053C91.6643 19.4504 90.9711 19.5581 90.2779 19.5217C89.6093 19.5559 88.9407 19.4537 88.3129 19.2213C87.685 18.9888 87.1111 18.6311 86.6259 18.1697C86.1633 17.6782 85.8054 17.0979 85.5736 16.464C85.3419 15.8301 85.2413 15.1557 85.2779 14.4817ZM87.7029 14.4047C87.6442 15.2525 87.8927 16.0931 88.4029 16.7727C88.6553 17.0511 88.9671 17.2692 89.3152 17.4108C89.6633 17.5524 90.0388 17.6139 90.4139 17.5907C90.7777 17.6141 91.1419 17.5523 91.4776 17.4103C91.8133 17.2683 92.1113 17.05 92.3479 16.7727C92.8392 16.0637 93.0735 15.2081 93.0119 14.3477C93.0744 13.488 92.8306 12.634 92.3239 11.9367C92.085 11.6636 91.7871 11.4484 91.4527 11.3076C91.1183 11.1667 90.7562 11.1038 90.3939 11.1237C90.0195 11.1035 89.6455 11.1698 89.3008 11.3175C88.9562 11.4653 88.6503 11.6905 88.4069 11.9757C87.8935 12.6777 87.6432 13.5379 87.6999 14.4057M103.164 11.2967H99.6999V19.2817H97.3409V11.2937H95.6859V9.38873H97.3409V8.01173C97.3243 7.53883 97.4059 7.06762 97.5806 6.62785C97.7553 6.18809 98.0193 5.78932 98.3559 5.45673C98.6998 5.12387 99.1073 4.86376 99.5541 4.69195C100.001 4.52013 100.478 4.44013 100.956 4.45673C101.207 4.45482 101.458 4.46918 101.707 4.49973C101.903 4.52391 102.096 4.56745 102.284 4.62973V6.64573C102.156 6.57925 102.022 6.52437 101.884 6.48173C101.669 6.41312 101.445 6.37936 101.22 6.38173C101.01 6.36892 100.8 6.40332 100.605 6.4824C100.41 6.56149 100.236 6.68325 100.094 6.83873C99.8035 7.22849 99.6636 7.71002 99.6999 8.19473V9.38873H103.169V7.16473L105.508 6.45273V9.38873H107.866V11.2947H105.508V15.9237C105.464 16.3794 105.581 16.836 105.84 17.2137C105.977 17.3479 106.141 17.4509 106.321 17.5157C106.501 17.5804 106.693 17.6053 106.884 17.5887C107.05 17.5816 107.214 17.5478 107.37 17.4887C107.545 17.4321 107.713 17.3545 107.87 17.2577V19.1817C107.637 19.2931 107.389 19.3709 107.134 19.4127C106.8 19.4824 106.46 19.5179 106.119 19.5187C105.716 19.5498 105.312 19.4961 104.931 19.361C104.551 19.226 104.203 19.0126 103.91 18.7347C103.371 18.0703 103.108 17.2246 103.174 16.3717L103.164 11.2967Z" fill="#737373"/>
<path d="M10.931 0.881836H0V11.8128H10.931V0.881836Z" fill="#F25022"/>
<path d="M23.0001 0.881836H12.0691V11.8128H23.0001V0.881836Z" fill="#7FBA00"/>
<path d="M10.931 12.9509H0V23.8819H10.931V12.9509Z" fill="#00A4EF"/>
<path d="M23.0001 12.9509H12.0691V23.8819H23.0001V12.9509Z" fill="#FFB900"/>
</g>
<defs>
<clipPath id="clip0_289_4562">
<rect width="108" height="24" fill="white" transform="translate(0 0.881836)"/>
</clipPath>
</defs>
</svg>
