<svg width="22" height="22" viewBox="0 0 22 22" fill="none" xmlns="http://www.w3.org/2000/svg">
<path d="M8.93758 1.375C13.1143 1.375 16.5002 4.76103 16.5002 8.9379C16.5002 10.6544 15.9283 12.2374 14.9648 13.5067L20.3212 18.8696C20.7237 19.2725 20.7234 19.9255 20.3204 20.328C19.9174 20.7305 19.2645 20.7301 18.862 20.3271L13.5062 14.9653C12.2369 15.9289 10.654 16.5008 8.93758 16.5008C4.76088 16.5008 1.375 13.1148 1.375 8.9379C1.375 4.76103 4.76088 1.375 8.93758 1.375ZM8.93758 3.4375C5.89999 3.4375 3.4375 5.90009 3.4375 8.9379C3.4375 11.9757 5.89999 14.4383 8.93758 14.4383C11.9752 14.4383 14.4377 11.9757 14.4377 8.9379C14.4377 5.90009 11.9752 3.4375 8.93758 3.4375Z" fill="#DBD1D1"/>
</svg>
