<svg width="48" height="49" viewBox="0 0 48 49" fill="none" xmlns="http://www.w3.org/2000/svg">
<path d="M35.8368 29.14C35.3188 29.642 35.0808 30.368 35.1988 31.08L36.9768 40.92C37.1268 41.754 36.7748 42.598 36.0768 43.08C35.3928 43.58 34.4828 43.64 33.7368 43.24L24.8788 38.62C24.5708 38.456 24.2288 38.368 23.8788 38.358H23.3368C23.1488 38.386 22.9648 38.446 22.7968 38.538L13.9368 43.18C13.4988 43.4 13.0028 43.478 12.5168 43.4C11.3328 43.176 10.5428 42.048 10.7368 40.858L12.5168 31.018C12.6348 30.3 12.3968 29.57 11.8788 29.06L4.65678 22.06C4.05278 21.474 3.84278 20.594 4.11878 19.8C4.38678 19.008 5.07078 18.43 5.89678 18.3L15.8368 16.858C16.5928 16.78 17.2568 16.32 17.5968 15.64L21.9768 6.66C22.0808 6.46 22.2148 6.276 22.3768 6.12L22.5568 5.98C22.6508 5.876 22.7588 5.79 22.8788 5.72L23.0968 5.64L23.4368 5.5H24.2788C25.0308 5.578 25.6928 6.028 26.0388 6.7L30.4768 15.64C30.7968 16.294 31.4188 16.748 32.1368 16.858L42.0768 18.3C42.9168 18.42 43.6188 19 43.8968 19.8C44.1588 20.602 43.9328 21.482 43.3168 22.06L35.8368 29.14Z" fill="#DEDEDE"/>
</svg>
