<svg width="48" height="49" viewBox="0 0 48 49" fill="none" xmlns="http://www.w3.org/2000/svg">
<path d="M35.8378 29.14C35.3198 29.642 35.0818 30.368 35.1998 31.08L36.9778 40.92C37.1278 41.754 36.7758 42.598 36.0778 43.08C35.3938 43.58 34.4838 43.64 33.7378 43.24L24.8798 38.62C24.5718 38.456 24.2298 38.368 23.8798 38.358H23.3378C23.1498 38.386 22.9658 38.446 22.7978 38.538L13.9378 43.18C13.4998 43.4 13.0038 43.478 12.5178 43.4C11.3338 43.176 10.5438 42.048 10.7378 40.858L12.5178 31.018C12.6358 30.3 12.3978 29.57 11.8798 29.06L4.65775 22.06C4.05375 21.474 3.84375 20.594 4.11975 19.8C4.38775 19.008 5.07175 18.43 5.89775 18.3L15.8378 16.858C16.5938 16.78 17.2578 16.32 17.5978 15.64L21.9778 6.66C22.0818 6.46 22.2158 6.276 22.3778 6.12L22.5578 5.98C22.6518 5.876 22.7598 5.79 22.8798 5.72L23.0978 5.64L23.4378 5.5H24.2798C25.0318 5.578 25.6938 6.028 26.0398 6.7L30.4778 15.64C30.7978 16.294 31.4198 16.748 32.1378 16.858L42.0778 18.3C42.9178 18.42 43.6198 19 43.8978 19.8C44.1598 20.602 43.9338 21.482 43.3178 22.06L35.8378 29.14Z" fill="#FBBC05"/>
</svg>
