<svg width="48" height="49" viewBox="0 0 48 49" fill="none" xmlns="http://www.w3.org/2000/svg">
<path d="M35.837 29.14C35.319 29.642 35.081 30.368 35.199 31.08L36.977 40.92C37.127 41.754 36.775 42.598 36.077 43.08C35.393 43.58 34.483 43.64 33.737 43.24L24.879 38.62C24.571 38.456 24.229 38.368 23.879 38.358H23.337C23.149 38.386 22.965 38.446 22.797 38.538L13.937 43.18C13.499 43.4 13.003 43.478 12.517 43.4C11.333 43.176 10.543 42.048 10.737 40.858L12.517 31.018C12.635 30.3 12.397 29.57 11.879 29.06L4.65702 22.06C4.05302 21.474 3.84302 20.594 4.11902 19.8C4.38702 19.008 5.07102 18.43 5.89702 18.3L15.837 16.858C16.593 16.78 17.257 16.32 17.597 15.64L21.977 6.66C22.081 6.46 22.215 6.276 22.377 6.12L22.557 5.98C22.651 5.876 22.759 5.79 22.879 5.72L23.097 5.64L23.437 5.5H24.279C25.031 5.578 25.693 6.028 26.039 6.7L30.477 15.64C30.797 16.294 31.419 16.748 32.137 16.858L42.077 18.3C42.917 18.42 43.619 19 43.897 19.8C44.159 20.602 43.933 21.482 43.317 22.06L35.837 29.14Z" fill="#DEDEDE"/>
</svg>
