<svg width="16" height="11" viewBox="0 0 16 11" fill="none" xmlns="http://www.w3.org/2000/svg">
<path fill-rule="evenodd" clip-rule="evenodd" d="M14.1826 5.45746C14.1826 7.28042 12.7048 8.75821 10.8818 8.75821C10.281 8.75821 9.71776 8.59771 9.23251 8.31725C9.80085 7.50784 10.1345 6.52162 10.1345 5.45749C10.1345 4.39334 9.80083 3.4071 9.23248 2.59768C9.71774 2.31721 10.281 2.15671 10.8818 2.15671C12.7048 2.15671 14.1826 3.6345 14.1826 5.45746ZM8.01698 1.3807C8.82734 0.810197 9.81545 0.475191 10.8818 0.475191C13.6334 0.475191 15.8641 2.70583 15.8641 5.45746C15.8641 8.20909 13.6334 10.4397 10.8818 10.4397C9.81547 10.4397 8.82737 10.1047 8.01702 9.53424C7.20666 10.1048 6.21855 10.4398 5.15219 10.4398C2.40056 10.4398 0.169922 8.20912 0.169922 5.45749C0.169922 2.70586 2.40056 0.47522 5.15219 0.47522C6.21853 0.47522 7.20662 0.810214 8.01698 1.3807ZM6.80152 8.31726C6.31626 8.59773 5.75297 8.75824 5.15219 8.75824C3.32924 8.75824 1.85144 7.28044 1.85144 5.45749C1.85144 3.63453 3.32924 2.15674 5.15219 2.15674C5.75296 2.15674 6.31624 2.31724 6.80149 2.5977C6.23315 3.40711 5.89954 4.39332 5.89954 5.45746C5.89954 6.52161 6.23316 7.50784 6.80152 8.31726ZM8.017 7.09807C7.73964 6.61478 7.58105 6.05464 7.58105 5.45746C7.58105 4.86029 7.73964 4.30016 8.01699 3.81688C8.29435 4.30016 8.45294 4.86031 8.45294 5.45749C8.45294 6.05466 8.29436 6.61479 8.017 7.09807Z" fill="#DBD1D1"/>
</svg>
