<svg width="16" height="11" viewBox="0 0 16 11" fill="none" xmlns="http://www.w3.org/2000/svg">
<path fill-rule="evenodd" clip-rule="evenodd" d="M14.1823 5.45685C14.1823 7.2798 12.7045 8.7576 10.8816 8.7576C10.2808 8.7576 9.71751 8.5971 9.23226 8.31664C9.8006 7.50723 10.1342 6.52101 10.1342 5.45688C10.1342 4.39273 9.80059 3.40649 9.23223 2.59707C9.71749 2.3166 10.2808 2.1561 10.8816 2.1561C12.7045 2.1561 14.1823 3.63389 14.1823 5.45685ZM8.01673 1.38009C8.82709 0.809586 9.8152 0.47458 10.8816 0.47458C13.6332 0.47458 15.8638 2.70522 15.8638 5.45685C15.8638 8.20848 13.6332 10.4391 10.8816 10.4391C9.81522 10.4391 8.82713 10.1041 8.01677 9.53363C7.20641 10.1041 6.2183 10.4391 5.15195 10.4391C2.40032 10.4391 0.169678 8.20851 0.169678 5.45688C0.169678 2.70525 2.40032 0.474609 5.15195 0.474609C6.21828 0.474609 7.20638 0.809604 8.01673 1.38009ZM6.80127 8.31665C6.31601 8.59712 5.75273 8.75763 5.15195 8.75763C3.32899 8.75763 1.85119 7.27983 1.85119 5.45688C1.85119 3.63392 3.32899 2.15613 5.15195 2.15613C5.75271 2.15613 6.31599 2.31663 6.80124 2.59709C6.2329 3.4065 5.89929 4.39271 5.89929 5.45685C5.89929 6.521 6.23291 7.50723 6.80127 8.31665ZM8.01676 7.09746C7.7394 6.61417 7.58081 6.05403 7.58081 5.45685C7.58081 4.85968 7.73939 4.29955 8.01674 3.81627C8.29411 4.29955 8.4527 4.8597 8.4527 5.45688C8.4527 6.05405 8.29411 6.61418 8.01676 7.09746Z" fill="#DBD1D1"/>
</svg>
