<svg width="16" height="11" viewBox="0 0 16 11" fill="none" xmlns="http://www.w3.org/2000/svg">
<path fill-rule="evenodd" clip-rule="evenodd" d="M14.1826 5.45749C14.1826 7.28044 12.7048 8.75824 10.8818 8.75824C10.281 8.75824 9.71776 8.59774 9.23251 8.31728C9.80085 7.50787 10.1345 6.52165 10.1345 5.45752C10.1345 4.39337 9.80083 3.40713 9.23248 2.59771C9.71774 2.31724 10.281 2.15674 10.8818 2.15674C12.7048 2.15674 14.1826 3.63453 14.1826 5.45749ZM8.01698 1.38073C8.82734 0.810226 9.81545 0.47522 10.8818 0.47522C13.6334 0.47522 15.8641 2.70586 15.8641 5.45749C15.8641 8.20912 13.6334 10.4398 10.8818 10.4398C9.81547 10.4398 8.82737 10.1048 8.01702 9.53427C7.20666 10.1048 6.21855 10.4398 5.15219 10.4398C2.40056 10.4398 0.169922 8.20915 0.169922 5.45752C0.169922 2.70589 2.40056 0.475249 5.15219 0.475249C6.21853 0.475249 7.20662 0.810244 8.01698 1.38073ZM6.80152 8.31729C6.31626 8.59776 5.75297 8.75827 5.15219 8.75827C3.32924 8.75827 1.85144 7.28047 1.85144 5.45752C1.85144 3.63456 3.32924 2.15676 5.15219 2.15676C5.75296 2.15676 6.31624 2.31727 6.80149 2.59773C6.23315 3.40714 5.89954 4.39335 5.89954 5.45749C5.89954 6.52164 6.23316 7.50787 6.80152 8.31729ZM8.017 7.09809C7.73964 6.61481 7.58105 6.05467 7.58105 5.45749C7.58105 4.86032 7.73964 4.30019 8.01699 3.81691C8.29435 4.30019 8.45294 4.86034 8.45294 5.45752C8.45294 6.05469 8.29436 6.61482 8.017 7.09809Z" fill="#DBD1D1"/>
</svg>
