<svg width="14" height="8" viewBox="0 0 14 8" fill="none" xmlns="http://www.w3.org/2000/svg">
<path d="M13.5677 1.31694L7.31768 7.56694C7.25963 7.62505 7.1907 7.67115 7.11483 7.70261C7.03896 7.73406 6.95763 7.75025 6.87549 7.75025C6.79336 7.75025 6.71203 7.73406 6.63615 7.70261C6.56028 7.67115 6.49135 7.62505 6.4333 7.56694L0.183305 1.31694C0.0957976 1.22953 0.0361929 1.11813 0.0120364 0.996823C-0.0121201 0.87552 0.000257809 0.749776 0.0476031 0.635512C0.0949484 0.521248 0.175132 0.4236 0.278003 0.354931C0.380875 0.286262 0.501807 0.249659 0.625492 0.249756H13.1255C13.2492 0.249659 13.3701 0.286262 13.473 0.354931C13.5759 0.4236 13.656 0.521248 13.7034 0.635512C13.7507 0.749776 13.7631 0.87552 13.7389 0.996823C13.7148 1.11813 13.6552 1.22953 13.5677 1.31694Z" fill="#DBD1D1"/>
</svg>
