<svg width="1473" height="553" viewBox="0 0 1473 553" fill="none" xmlns="http://www.w3.org/2000/svg">
<path fill-rule="evenodd" clip-rule="evenodd" d="M0 483.425L61.375 460.633C122.75 437.842 245.5 392.258 368.25 322.683C491 253.108 613.75 161.941 736.5 184.733C859.25 207.525 982 345.475 1104.75 334.679C1227.5 322.683 1350.25 161.941 1411.62 80.3709L1473 0V553H1411.62C1350.25 553 1227.5 553 1104.75 553C982 553 859.25 553 736.5 553C613.75 553 491 553 368.25 553C245.5 553 122.75 553 61.375 553H0V483.425Z" fill="#01BBD6"/>
</svg>
