<svg width="18" height="20" viewBox="0 0 18 20" fill="none" xmlns="http://www.w3.org/2000/svg">
<path d="M7.83664 8.07579H2.24654C2.03373 8.0738 1.82298 8.11768 1.62864 8.20444C1.43431 8.2912 1.26094 8.41881 1.12035 8.57858C0.979751 8.73835 0.875221 8.92653 0.813873 9.13032C0.752524 9.33411 0.735796 9.54872 0.764827 9.75955C0.798825 10.1495 0.979215 10.5122 1.26972 10.7746C1.56023 11.037 1.93931 11.1797 2.33073 11.1739H2.60013C2.25147 11.1868 1.9206 11.3311 1.67406 11.578C1.55521 11.7037 1.4627 11.8518 1.40198 12.0137C1.34125 12.1757 1.31354 12.3481 1.32047 12.5209C1.32666 12.8609 1.45662 13.187 1.68599 13.4381C1.91535 13.6891 2.22839 13.848 2.56645 13.8848C2.40544 14.0111 2.27491 14.172 2.18456 14.3557C2.0942 14.5393 2.04633 14.7409 2.04449 14.9455C2.04216 15.2622 2.1501 15.5698 2.3498 15.8156C2.54949 16.0614 2.82849 16.23 3.13893 16.2926C2.97189 16.5767 2.9178 16.9133 2.9874 17.2355C3.07674 17.5434 3.26573 17.8129 3.52474 18.0018C3.78375 18.1907 4.09813 18.2884 4.4186 18.2794H8.27442C8.77949 18.277 9.28251 18.2149 9.77297 18.0942L12.1639 17.3028H15.3631C17.0468 17.3028 17.5014 9.49015 15.3631 9.49015C15.0546 9.50714 14.7455 9.50714 14.437 9.49015C14.437 9.49015 14.1844 9.17024 13.7635 8.71562C13.1405 8.04211 12.4502 7.18339 11.9619 6.71194C10.7633 5.65383 9.7899 4.36546 9.09946 2.92347C8.96263 2.60736 8.78118 2.31251 8.56066 2.04791C8.28023 1.81208 7.91839 1.69582 7.55308 1.72416C7.18776 1.7525 6.84819 1.92319 6.60749 2.19945C6.43299 2.38817 6.29078 2.60434 6.18655 2.83928C6.12069 3.00267 6.06996 3.17175 6.03501 3.34441C5.98983 3.81912 6.02975 4.29809 6.15287 4.75877C6.25335 5.24514 6.40576 5.71931 6.60749 6.17314C6.9265 6.76669 7.29844 7.33023 7.71877 7.8569C7.77073 7.88891 7.81181 7.93586 7.83664 7.9916" stroke="#DBD1D1" stroke-width="1.5" stroke-linecap="round" stroke-linejoin="round"/>
</svg>
