<svg width="24" height="20" viewBox="0 0 24 20" fill="none" xmlns="http://www.w3.org/2000/svg">
<path d="M23.5546 2.77553C22.7975 3.10181 22 3.3251 21.1836 3.43944C21.5629 3.43944 22.1083 2.7044 22.3691 2.43173C22.7119 2.01822 22.9734 1.54356 23.1397 1.0328C23.1397 1.0328 23.1397 0.93796 23.1397 0.91425C23.1199 0.902804 23.0973 0.896784 23.0744 0.896784C23.0516 0.896784 23.0291 0.902804 23.0093 0.91425C22.1426 1.37282 21.2228 1.72321 20.2707 1.95752C20.2423 1.97542 20.2095 1.98492 20.1759 1.98492C20.1423 1.98492 20.1094 1.97542 20.081 1.95752C20.0081 1.86891 19.9289 1.78569 19.8439 1.70855C19.4498 1.36706 19.0009 1.09451 18.5161 0.902392C17.8715 0.634437 17.1733 0.520768 16.477 0.570445C15.8015 0.619667 15.1431 0.805869 14.5418 1.11771C13.9405 1.42954 13.4091 1.86048 12.9797 2.3843C12.5361 2.93219 12.2201 3.57209 12.055 4.25745C11.9247 4.90697 11.9247 5.57591 12.055 6.22543C12.055 6.33213 12.0549 6.34398 11.9601 6.33212C8.33957 5.97321 4.98114 4.2834 2.53519 1.59C2.4285 1.45959 2.36919 1.45959 2.28621 1.59C1.78778 2.49215 1.59682 3.53213 1.74228 4.55249C1.88775 5.57285 2.3617 6.51805 3.09236 7.24499L3.67326 7.75477C3.04216 7.69929 2.42703 7.5264 1.85943 7.24499C1.74088 7.17385 1.69343 7.24498 1.68158 7.33982C1.66414 7.51722 1.66414 7.69591 1.68158 7.87332C1.79376 8.72256 2.12946 9.52677 2.65437 10.2037C3.17928 10.8807 3.87459 11.4061 4.66913 11.7263C4.86204 11.8143 5.06515 11.878 5.27377 11.916C4.68069 12.0092 4.07668 12.0092 3.4836 11.916C3.3532 11.916 3.30579 11.916 3.35321 12.0819C3.6577 12.8818 4.1618 13.5903 4.81754 14.1403C5.47329 14.6902 6.25883 15.0631 7.09946 15.2236C7.27088 15.235 7.44124 15.2587 7.60923 15.2947C6.88174 15.9543 6.00184 16.4228 5.04851 16.6581C3.80299 17.1008 2.47682 17.2706 1.15994 17.156C0.946544 17.156 0.910966 17.156 0.85169 17.156C0.792413 17.156 0.851747 17.239 0.911024 17.2983C1.17184 17.4643 1.4445 17.6184 1.71718 17.7725C2.5423 18.2132 3.41284 18.563 4.31349 18.8158C6.62481 19.5057 9.07612 19.581 11.4254 19.0343C13.7748 18.4875 15.9409 17.3375 17.71 15.6978C18.9824 14.316 19.9661 12.694 20.6033 10.9269C21.2405 9.15985 21.5184 7.28331 21.4207 5.40741C21.4207 5.26515 21.5985 5.18216 21.7052 5.09917C22.4012 4.55732 23.016 3.91855 23.5309 3.20232C23.6103 3.09649 23.6521 2.96712 23.6495 2.83481C23.6495 2.83481 23.6495 2.73997 23.5546 2.77553Z" fill="white"/>
</svg>
