<svg width="18" height="19" viewBox="0 0 18 19" fill="none" xmlns="http://www.w3.org/2000/svg">
<path d="M7.83664 7.90513H2.24654C2.03373 7.90315 1.82298 7.94702 1.62864 8.03379C1.43431 8.12055 1.26094 8.24815 1.12035 8.40792C0.979751 8.56769 0.875221 8.75587 0.813873 8.95966C0.752524 9.16345 0.735796 9.37806 0.764827 9.5889C0.798825 9.97888 0.979215 10.3415 1.26972 10.6039C1.56023 10.8663 1.93931 11.009 2.33073 11.0033H2.60013C2.25147 11.0161 1.9206 11.1605 1.67406 11.4074C1.55521 11.533 1.4627 11.6812 1.40198 11.8431C1.34125 12.005 1.31354 12.1775 1.32047 12.3503C1.32666 12.6903 1.45662 13.0164 1.68599 13.2674C1.91535 13.5185 2.22839 13.6773 2.56645 13.7141C2.40544 13.8404 2.27491 14.0014 2.18456 14.185C2.0942 14.3686 2.04633 14.5702 2.04449 14.7749C2.04216 15.0916 2.1501 15.3992 2.3498 15.645C2.54949 15.8907 2.82849 16.0594 3.13893 16.1219C2.97189 16.4061 2.9178 16.7426 2.9874 17.0648C3.07674 17.3727 3.26573 17.6422 3.52474 17.8312C3.78375 18.0201 4.09813 18.1177 4.4186 18.1087H8.27442C8.77949 18.1064 9.28251 18.0442 9.77297 17.9235L12.1639 17.1322H15.3631C17.0468 17.1322 17.5014 9.3195 15.3631 9.3195C15.0546 9.33649 14.7455 9.33649 14.437 9.3195C14.437 9.3195 14.1844 8.99958 13.7635 8.54496C13.1405 7.87146 12.4502 7.01274 11.9619 6.54129C10.7633 5.48318 9.7899 4.1948 9.09946 2.75281C8.96263 2.43671 8.78118 2.14186 8.56066 1.87726C8.28023 1.64143 7.91839 1.52516 7.55308 1.55351C7.18776 1.58185 6.84819 1.75253 6.60749 2.0288C6.43299 2.21751 6.29078 2.43368 6.18655 2.66863C6.12069 2.83201 6.06996 3.0011 6.03501 3.17376C5.98983 3.64847 6.02975 4.12743 6.15287 4.58812C6.25335 5.07449 6.40576 5.54866 6.60749 6.00248C6.9265 6.59603 7.29844 7.15957 7.71877 7.68625C7.77073 7.71826 7.81181 7.7652 7.83664 7.82095" stroke="#DBD1D1" stroke-width="1.5" stroke-linecap="round" stroke-linejoin="round"/>
</svg>
