<svg width="24" height="17" viewBox="0 0 24 17" fill="none" xmlns="http://www.w3.org/2000/svg">
<path d="M23.199 6.01946C23.199 4.68317 22.6682 3.40159 21.7233 2.45668C20.7784 1.51178 19.4968 0.980957 18.1605 0.980957H5.2857C3.9494 0.980957 2.66779 1.51178 1.72288 2.45668C0.77798 3.40159 0.247192 4.68317 0.247192 6.01946V11.9471C0.247192 13.2834 0.77798 14.565 1.72288 15.5099C2.66779 16.4548 3.9494 16.9856 5.2857 16.9856H18.1605C19.4968 16.9856 20.7784 16.4548 21.7233 15.5099C22.6682 14.565 23.199 13.2834 23.199 11.9471V6.01946ZM15.6235 9.45749L9.84996 12.3146C9.62471 12.445 8.85408 12.3146 8.85408 12.0182V6.14985C8.85408 5.88904 9.63658 5.72306 9.86183 5.85347L15.3864 8.86473C15.6235 8.95957 15.8606 9.29152 15.6235 9.42193V9.45749Z" fill="white"/>
</svg>
