<svg width="14" height="8" viewBox="0 0 14 8" fill="none" xmlns="http://www.w3.org/2000/svg">
<path d="M13.5677 1.1458L7.31768 7.3958C7.25963 7.45391 7.1907 7.50001 7.11483 7.53146C7.03896 7.56292 6.95763 7.5791 6.87549 7.5791C6.79336 7.5791 6.71203 7.56292 6.63615 7.53146C6.56028 7.50001 6.49135 7.45391 6.4333 7.3958L0.183305 1.1458C0.0957976 1.05839 0.0361929 0.946983 0.0120364 0.82568C-0.0121201 0.704377 0.000257809 0.578634 0.0476031 0.464369C0.0949484 0.350105 0.175132 0.252457 0.278003 0.183788C0.380875 0.115119 0.501807 0.0785161 0.625492 0.0786135H13.1255C13.2492 0.0785161 13.3701 0.115119 13.473 0.183788C13.5759 0.252457 13.656 0.350105 13.7034 0.464369C13.7507 0.578634 13.7631 0.704377 13.7389 0.82568C13.7148 0.946983 13.6552 1.05839 13.5677 1.1458Z" fill="#DBD1D1"/>
</svg>
