<svg width="13" height="13" viewBox="0 0 13 13" fill="none" xmlns="http://www.w3.org/2000/svg">
<path d="M6.06681 0.889648C4.86864 0.889648 3.69735 1.24495 2.7011 1.91062C1.70486 2.57628 0.928432 3.52242 0.469912 4.62939C0.0113917 5.73636 -0.10863 6.95444 0.125121 8.12959C0.358873 9.30473 0.935849 10.3842 1.78308 11.2314C2.63032 12.0786 3.70982 12.6556 4.88497 12.8894C6.06012 13.1231 7.27816 13.0031 8.38512 12.5446C9.49209 12.0861 10.4383 11.3096 11.1039 10.3134C11.7696 9.31715 12.1249 8.14588 12.1249 6.94771C12.1249 6.15215 11.9682 5.36439 11.6637 4.62939C11.3593 3.89439 10.9131 3.22656 10.3505 2.66402C9.788 2.10148 9.12012 1.65524 8.38512 1.35079C7.65012 1.04635 6.86237 0.889648 6.06681 0.889648ZM6.06681 10.8244C5.30058 10.8221 4.55226 10.5927 3.9163 10.1653C3.28034 9.7379 2.78532 9.13163 2.49372 8.42306C2.20212 7.71448 2.12703 6.93539 2.27795 6.18417C2.42887 5.43295 2.79899 4.7433 3.34162 4.20232C3.88426 3.66134 4.57504 3.2933 5.32672 3.14467C6.0784 2.99605 6.85725 3.0735 7.56493 3.36727C8.27261 3.66103 8.8774 4.15792 9.30285 4.79518C9.7283 5.43244 9.95538 6.18148 9.95539 6.94771C9.95225 7.97696 9.54116 8.96298 8.81226 9.68966C8.08335 10.4163 7.09607 10.8244 6.06681 10.8244Z" fill="white"/>
</svg>
