<svg width="3" height="3" viewBox="0 0 3 3" fill="none" xmlns="http://www.w3.org/2000/svg">
<path d="M1.48049 0.0410156C1.19443 0.0410156 0.914791 0.125839 0.676941 0.284766C0.43909 0.443693 0.253777 0.669586 0.144306 0.933872C0.0348354 1.19816 0.00615376 1.48896 0.0619614 1.76953C0.117769 2.05009 0.25549 2.30781 0.457765 2.51009C0.660041 2.71236 0.917796 2.85011 1.19836 2.90592C1.47892 2.96173 1.76975 2.93309 2.03403 2.82362C2.29832 2.71415 2.52417 2.52876 2.6831 2.29091C2.84202 2.05306 2.92687 1.77342 2.92687 1.48736C2.92687 1.10377 2.77445 0.735884 2.50321 0.464642C2.23197 0.193399 1.86408 0.0410156 1.48049 0.0410156Z" fill="white"/>
</svg>
