<svg width="5" height="23" viewBox="0 0 5 23" fill="none" xmlns="http://www.w3.org/2000/svg">
<path d="M4.16294 12.6111C4.3827 12.2822 4.5 11.8956 4.5 11.5C4.5 10.9696 4.28929 10.4609 3.91421 10.0858C3.53914 9.71072 3.03043 9.5 2.5 9.5C2.10444 9.5 1.71776 9.6173 1.38886 9.83706C1.05996 10.0568 0.803617 10.3692 0.652242 10.7346C0.500866 11.1001 0.46126 11.5022 0.53843 11.8902C0.615601 12.2781 0.806082 12.6345 1.08579 12.9142C1.36549 13.1939 1.72186 13.3844 2.10982 13.4616C2.49778 13.5387 2.89992 13.4991 3.26537 13.3478C3.63082 13.1964 3.94318 12.94 4.16294 12.6111ZM2.5 5C2.89556 5 3.28224 4.8827 3.61114 4.66294C3.94004 4.44318 4.19638 4.13082 4.34776 3.76537C4.49913 3.39992 4.53874 2.99778 4.46157 2.60982C4.3844 2.22186 4.19392 1.86549 3.91421 1.58579C3.63451 1.30608 3.27814 1.1156 2.89018 1.03843C2.50222 0.96126 2.10009 1.00087 1.73463 1.15224C1.36918 1.30362 1.05682 1.55996 0.837061 1.88886C0.617298 2.21776 0.500001 2.60444 0.500001 3C0.500001 3.53043 0.710714 4.03914 1.08579 4.41421C1.46086 4.78929 1.96957 5 2.5 5ZM2.5 18C2.10444 18 1.71776 18.1173 1.38886 18.3371C1.05996 18.5568 0.803617 18.8692 0.652241 19.2346C0.500867 19.6001 0.46126 20.0022 0.53843 20.3902C0.6156 20.7781 0.806082 21.1345 1.08579 21.4142C1.36549 21.6939 1.72186 21.8844 2.10982 21.9616C2.49778 22.0387 2.89992 21.9991 3.26537 21.8478C3.63082 21.6964 3.94318 21.44 4.16294 21.1111C4.3827 20.7822 4.5 20.3956 4.5 20C4.5 19.4696 4.28929 18.9609 3.91421 18.5858C3.53914 18.2107 3.03043 18 2.5 18Z" fill="#DBD1D1" stroke="#DBD1D1"/>
</svg>
