<svg width="6" height="22" viewBox="0 0 6 22" fill="none" xmlns="http://www.w3.org/2000/svg">
<path d="M4.66294 12.1111C4.8827 11.7822 5 11.3956 5 11C5 10.4696 4.78929 9.96086 4.41421 9.58579C4.03914 9.21072 3.53043 9 3 9C2.60444 9 2.21776 9.1173 1.88886 9.33706C1.55996 9.55682 1.30362 9.86918 1.15224 10.2346C1.00087 10.6001 0.96126 11.0022 1.03843 11.3902C1.1156 11.7781 1.30608 12.1345 1.58579 12.4142C1.86549 12.6939 2.22186 12.8844 2.60982 12.9616C2.99778 13.0387 3.39992 12.9991 3.76537 12.8478C4.13082 12.6964 4.44318 12.44 4.66294 12.1111ZM3 4.5C3.39556 4.5 3.78224 4.3827 4.11114 4.16294C4.44004 3.94318 4.69638 3.63082 4.84776 3.26537C4.99913 2.89992 5.03874 2.49778 4.96157 2.10982C4.8844 1.72186 4.69392 1.36549 4.41421 1.08579C4.13451 0.806082 3.77814 0.615601 3.39018 0.53843C3.00222 0.46126 2.60009 0.500866 2.23463 0.652242C1.86918 0.803617 1.55682 1.05996 1.33706 1.38886C1.1173 1.71776 1 2.10444 1 2.5C1 3.03043 1.21071 3.53914 1.58579 3.91421C1.96086 4.28929 2.46957 4.5 3 4.5ZM3 17.5C2.60444 17.5 2.21776 17.6173 1.88886 17.8371C1.55996 18.0568 1.30362 18.3692 1.15224 18.7346C1.00087 19.1001 0.96126 19.5022 1.03843 19.8902C1.1156 20.2781 1.30608 20.6345 1.58579 20.9142C1.86549 21.1939 2.22186 21.3844 2.60982 21.4616C2.99778 21.5387 3.39992 21.4991 3.76537 21.3478C4.13082 21.1964 4.44318 20.94 4.66294 20.6111C4.8827 20.2822 5 19.8956 5 19.5C5 18.9696 4.78929 18.4609 4.41421 18.0858C4.03914 17.7107 3.53043 17.5 3 17.5Z" fill="#DBD1D1" stroke="#DBD1D1"/>
</svg>
