<svg width="7" height="11" viewBox="0 0 7 11" fill="none" xmlns="http://www.w3.org/2000/svg">
<path d="M6.85398 5.31465L2.47949 10.0016C2.43313 10.0511 2.37194 10.0841 2.30515 10.0958C2.23836 10.1074 2.1696 10.097 2.10923 10.0662C2.04887 10.0353 2.00018 9.98563 1.97052 9.92466C1.94085 9.8637 1.93182 9.79474 1.94479 9.7282L2.51738 6.86408L0.266469 6.01886C0.218127 6.00078 0.175018 5.971 0.140992 5.9322C0.106966 5.89339 0.0830839 5.84676 0.0714784 5.79646C0.0598728 5.74617 0.0609057 5.69379 0.0744846 5.644C0.0880636 5.5942 0.113766 5.54855 0.149295 5.51111L4.52379 0.824156C4.57014 0.774683 4.63133 0.74163 4.69812 0.729986C4.76491 0.718341 4.83368 0.728735 4.89404 0.759601C4.95441 0.790467 5.0031 0.840129 5.03276 0.901093C5.06242 0.962057 5.07145 1.03101 5.05849 1.09756L4.48434 3.96481L6.73525 4.80885C6.78323 4.82705 6.82599 4.85679 6.85975 4.89545C6.89352 4.9341 6.91724 4.98048 6.92882 5.03048C6.9404 5.08047 6.93949 5.13256 6.92616 5.18212C6.91284 5.23168 6.88751 5.2772 6.85242 5.31465H6.85398Z" fill="white"/>
</svg>
