<svg width="14" height="8" viewBox="0 0 14 8" fill="none" xmlns="http://www.w3.org/2000/svg">
<path d="M13.5677 1.3167L7.31768 7.5667C7.25963 7.62481 7.1907 7.67091 7.11483 7.70236C7.03896 7.73381 6.95763 7.75 6.87549 7.75C6.79336 7.75 6.71203 7.73381 6.63615 7.70236C6.56028 7.67091 6.49135 7.62481 6.4333 7.5667L0.183305 1.3167C0.0957976 1.22929 0.0361929 1.11788 0.0120364 0.996579C-0.0121201 0.875276 0.000257809 0.749532 0.0476031 0.635268C0.0949484 0.521003 0.175132 0.423356 0.278003 0.354687C0.380875 0.286017 0.501807 0.249415 0.625492 0.249512H13.1255C13.2492 0.249415 13.3701 0.286017 13.473 0.354687C13.5759 0.423356 13.656 0.521003 13.7034 0.635268C13.7507 0.749532 13.7631 0.875276 13.7389 0.996579C13.7148 1.11788 13.6552 1.22929 13.5677 1.3167Z" fill="#DBD1D1"/>
</svg>
