<svg width="26" height="26" viewBox="0 0 26 26" fill="none" xmlns="http://www.w3.org/2000/svg">
<path d="M17.8799 25.2417H8.06376C7.09384 25.2417 6.13336 25.0507 5.23727 24.6795C4.34118 24.3083 3.52701 23.7643 2.84117 23.0784C2.15533 22.3926 1.61126 21.5784 1.24009 20.6823C0.868912 19.7862 0.677856 18.8258 0.677856 17.8559V8.03966C0.677856 6.08081 1.45606 4.20219 2.84117 2.81708C4.22629 1.43196 6.10491 0.653809 8.06376 0.653809H17.8799C19.8388 0.653809 21.7174 1.43196 23.1025 2.81708C24.4876 4.20219 25.2657 6.08081 25.2657 8.03966V17.8559C25.2657 18.8258 25.0748 19.7862 24.7036 20.6823C24.3324 21.5784 23.7883 22.3926 23.1025 23.0784C22.4167 23.7643 21.6024 24.3083 20.7063 24.6795C19.8102 25.0507 18.8498 25.2417 17.8799 25.2417ZM8.06376 2.96559C6.71803 2.96559 5.42741 3.50019 4.47584 4.45176C3.52426 5.40333 2.98966 6.69394 2.98966 8.03966V17.8559C2.98653 18.5242 3.11551 19.1865 3.36911 19.8049C3.6227 20.4233 3.99596 20.9854 4.46744 21.4591C4.93893 21.9328 5.49934 22.3087 6.11651 22.5651C6.73367 22.8216 7.39542 22.9536 8.06376 22.9536H17.8799C18.5463 22.9536 19.2061 22.8224 19.8217 22.5674C20.4373 22.3124 20.9967 21.9386 21.4678 21.4675C21.939 20.9963 22.3128 20.4369 22.5678 19.8213C22.8228 19.2057 22.954 18.5459 22.954 17.8796V8.03966C22.954 6.69394 22.4194 5.40333 21.4678 4.45176C20.5163 3.50019 19.2256 2.96559 17.8799 2.96559H8.06376Z" fill="white"/>
</svg>
