<svg width="17" height="18" viewBox="0 0 17 18" fill="none" xmlns="http://www.w3.org/2000/svg">
<path d="M14.1547 1.05636L1.21717 7.27319C0.672117 7.53508 0.329821 8.06881 0.323793 8.66597C0.317813 9.26317 0.649326 9.80345 1.18898 10.0759L5.45107 12.2279L9.28709 7.95125C9.46361 7.75445 9.76876 7.7358 9.96863 7.90964C10.1685 8.08346 10.1874 8.38394 10.0109 8.58076L6.17486 12.8574L8.86996 16.7564C9.21122 17.2501 9.79662 17.5073 10.3977 17.4277C11 17.3479 11.4947 16.9466 11.6909 16.3826L16.358 2.97265C16.5705 2.36211 16.3973 1.71742 15.9061 1.29015C15.4148 0.862888 14.7437 0.773257 14.1547 1.05636Z" fill="white"/>
</svg>
