<svg width="26" height="26" viewBox="0 0 26 26" fill="none" xmlns="http://www.w3.org/2000/svg">
<path d="M17.8798 25.2417H8.06364C7.09371 25.2417 6.13324 25.0507 5.23715 24.6795C4.34106 24.3083 3.52689 23.7643 2.84105 23.0784C2.15521 22.3926 1.61114 21.5784 1.23996 20.6823C0.86879 19.7862 0.677734 18.8258 0.677734 17.8559V8.03966C0.677734 6.08081 1.45594 4.20219 2.84105 2.81708C4.22617 1.43196 6.10479 0.653809 8.06364 0.653809H17.8798C19.8386 0.653809 21.7173 1.43196 23.1024 2.81708C24.4875 4.20219 25.2656 6.08081 25.2656 8.03966V17.8559C25.2656 18.8258 25.0746 19.7862 24.7035 20.6823C24.3323 21.5784 23.7882 22.3926 23.1024 23.0784C22.4165 23.7643 21.6023 24.3083 20.7062 24.6795C19.8101 25.0507 18.8497 25.2417 17.8798 25.2417ZM8.06364 2.96559C6.71791 2.96559 5.42729 3.50019 4.47572 4.45176C3.52414 5.40333 2.98953 6.69394 2.98953 8.03966V17.8559C2.98641 18.5242 3.11539 19.1865 3.36898 19.8049C3.62258 20.4233 3.99584 20.9854 4.46732 21.4591C4.9388 21.9328 5.49922 22.3087 6.11638 22.5651C6.73355 22.8216 7.3953 22.9536 8.06364 22.9536H17.8798C18.5461 22.9536 19.2059 22.8224 19.8215 22.5674C20.4372 22.3124 20.9965 21.9386 21.4677 21.4675C21.9389 20.9963 22.3126 20.4369 22.5676 19.8213C22.8226 19.2057 22.9539 18.5459 22.9539 17.8796V8.03966C22.9539 6.69394 22.4193 5.40333 21.4677 4.45176C20.5161 3.50019 19.2255 2.96559 17.8798 2.96559H8.06364Z" fill="white"/>
</svg>
