<svg width="9" height="17" viewBox="0 0 9 17" fill="none" xmlns="http://www.w3.org/2000/svg">
<path d="M1.97738 16.2558C1.71901 16.2563 1.46861 16.1663 1.26966 16.0014C1.15769 15.9086 1.06513 15.7946 0.997291 15.6659C0.929448 15.5373 0.887653 15.3965 0.874299 15.2517C0.860946 15.1068 0.876296 14.9608 0.919472 14.8219C0.962648 14.683 1.0328 14.554 1.12591 14.4423L6.07991 8.51515L1.30284 2.57698C1.21098 2.46387 1.14239 2.33372 1.101 2.19401C1.05961 2.05431 1.04623 1.9078 1.06165 1.76291C1.07706 1.61801 1.12096 1.4776 1.19081 1.34973C1.26067 1.22185 1.35511 1.10905 1.46871 1.0178C1.58312 0.917127 1.71711 0.841194 1.86226 0.794762C2.00741 0.748331 2.16059 0.732403 2.31219 0.747978C2.46379 0.763553 2.61053 0.810295 2.74321 0.885271C2.87588 0.960246 2.99163 1.06184 3.08318 1.18367L8.42422 7.81849C8.58686 8.01636 8.67577 8.26454 8.67577 8.52068C8.67577 8.77681 8.58686 9.025 8.42422 9.22286L2.8952 15.8577C2.78427 15.9915 2.64335 16.0973 2.48388 16.1665C2.32441 16.2356 2.15089 16.2662 1.97738 16.2558Z" fill="#F1F1F2"/>
</svg>
