<svg width="14" height="8" viewBox="0 0 14 8" fill="none" xmlns="http://www.w3.org/2000/svg">
<path d="M13.5677 1.14605L7.31768 7.39605C7.25963 7.45416 7.1907 7.50026 7.11483 7.53171C7.03896 7.56316 6.95763 7.57935 6.87549 7.57935C6.79336 7.57935 6.71203 7.56316 6.63615 7.53171C6.56028 7.50026 6.49135 7.45416 6.4333 7.39605L0.183305 1.14605C0.0957976 1.05864 0.0361929 0.947227 0.0120364 0.825924C-0.0121201 0.704621 0.000257809 0.578878 0.0476031 0.464613C0.0949484 0.350349 0.175132 0.252702 0.278003 0.184032C0.380875 0.115363 0.501807 0.0787603 0.625492 0.0788576H13.1255C13.2492 0.0787603 13.3701 0.115363 13.473 0.184032C13.5759 0.252702 13.656 0.350349 13.7034 0.464613C13.7507 0.578878 13.7631 0.704621 13.7389 0.825924C13.7148 0.947227 13.6552 1.05864 13.5677 1.14605Z" fill="#DBD1D1"/>
</svg>
