<svg width="18" height="19" viewBox="0 0 18 19" fill="none" xmlns="http://www.w3.org/2000/svg">
<path d="M7.83664 7.90489H2.24654C2.03373 7.9029 1.82298 7.94678 1.62864 8.03354C1.43431 8.1203 1.26094 8.24791 1.12035 8.40768C0.979751 8.56745 0.875221 8.75563 0.813873 8.95942C0.752524 9.16321 0.735796 9.37782 0.764827 9.58865C0.798825 9.97864 0.979215 10.3413 1.26972 10.6037C1.56023 10.8661 1.93931 11.0088 2.33073 11.003H2.60013C2.25147 11.0159 1.9206 11.1603 1.67406 11.4071C1.55521 11.5328 1.4627 11.6809 1.40198 11.8428C1.34125 12.0048 1.31354 12.1772 1.32047 12.35C1.32666 12.69 1.45662 13.0161 1.68599 13.2672C1.91535 13.5182 2.22839 13.6771 2.56645 13.7139C2.40544 13.8402 2.27491 14.0011 2.18456 14.1848C2.0942 14.3684 2.04633 14.57 2.04449 14.7747C2.04216 15.0913 2.1501 15.3989 2.3498 15.6447C2.54949 15.8905 2.82849 16.0591 3.13893 16.1217C2.97189 16.4058 2.9178 16.7424 2.9874 17.0646C3.07674 17.3725 3.26573 17.642 3.52474 17.8309C3.78375 18.0198 4.09813 18.1175 4.4186 18.1085H8.27442C8.77949 18.1061 9.28251 18.044 9.77297 17.9233L12.1639 17.1319H15.3631C17.0468 17.1319 17.5014 9.31925 15.3631 9.31925C15.0546 9.33624 14.7455 9.33624 14.437 9.31925C14.437 9.31925 14.1844 8.99934 13.7635 8.54472C13.1405 7.87121 12.4502 7.0125 11.9619 6.54104C10.7633 5.48294 9.7899 4.19456 9.09946 2.75257C8.96263 2.43646 8.78118 2.14161 8.56066 1.87701C8.28023 1.64118 7.91839 1.52492 7.55308 1.55326C7.18776 1.58161 6.84819 1.75229 6.60749 2.02855C6.43299 2.21727 6.29078 2.43344 6.18655 2.66838C6.12069 2.83177 6.06996 3.00085 6.03501 3.17351C5.98983 3.64822 6.02975 4.12719 6.15287 4.58787C6.25335 5.07424 6.40576 5.54842 6.60749 6.00224C6.9265 6.59579 7.29844 7.15933 7.71877 7.686C7.77073 7.71801 7.81181 7.76496 7.83664 7.8207" stroke="#DBD1D1" stroke-width="1.5" stroke-linecap="round" stroke-linejoin="round"/>
</svg>
