<svg width="42" height="42" viewBox="0 0 42 42" fill="none" xmlns="http://www.w3.org/2000/svg">
<path d="M41.944 20.9642C41.9425 16.9564 40.7927 13.0331 38.6307 9.6585C36.4687 6.28394 33.3851 3.59952 29.7448 1.92305C26.1046 0.246577 22.0602 -0.351744 18.0905 0.198919C14.1207 0.749583 10.3919 2.42617 7.34542 5.0302C4.29895 7.63422 2.06246 11.0566 0.900622 14.8923C-0.261218 18.7279 -0.29974 22.8161 0.789695 26.6729C1.87913 30.5298 4.05089 33.9937 7.04781 36.6546C10.0447 39.3155 13.7413 41.062 17.6999 41.6873V27.0341H12.4006V20.9642H17.7355V16.3406C17.7355 11.0887 20.8653 8.18416 25.6549 8.18416C27.2437 8.20458 28.8288 8.34328 30.397 8.5991V13.7562H27.7533C27.2971 13.6839 26.8303 13.7167 26.3887 13.8521C25.9471 13.9875 25.5423 14.222 25.205 14.5375C24.8677 14.8531 24.6069 15.2415 24.4424 15.6731C24.278 16.1047 24.2142 16.5682 24.2559 17.0282V20.9642H30.0769L29.1522 27.0341H24.2559V41.6873C29.1879 40.9029 33.6785 38.3853 36.9207 34.5868C40.1628 30.7884 41.944 25.9582 41.944 20.9642Z" fill="#565656"/>
</svg>
