<svg width="5" height="22" viewBox="0 0 5 22" fill="none" xmlns="http://www.w3.org/2000/svg">
<path d="M4.16294 12.1111C4.3827 11.7822 4.5 11.3956 4.5 11C4.5 10.4696 4.28929 9.96086 3.91421 9.58579C3.53914 9.21072 3.03043 9 2.5 9C2.10444 9 1.71776 9.1173 1.38886 9.33706C1.05996 9.55682 0.803617 9.86918 0.652242 10.2346C0.500866 10.6001 0.46126 11.0022 0.53843 11.3902C0.615601 11.7781 0.806082 12.1345 1.08579 12.4142C1.36549 12.6939 1.72186 12.8844 2.10982 12.9616C2.49778 13.0387 2.89992 12.9991 3.26537 12.8478C3.63082 12.6964 3.94318 12.44 4.16294 12.1111ZM2.5 4.5C2.89556 4.5 3.28224 4.3827 3.61114 4.16294C3.94004 3.94318 4.19638 3.63082 4.34776 3.26537C4.49913 2.89992 4.53874 2.49778 4.46157 2.10982C4.3844 1.72186 4.19392 1.36549 3.91421 1.08579C3.63451 0.806082 3.27814 0.615601 2.89018 0.53843C2.50222 0.46126 2.10009 0.500866 1.73463 0.652242C1.36918 0.803617 1.05682 1.05996 0.837061 1.38886C0.617298 1.71776 0.500001 2.10444 0.500001 2.5C0.500001 3.03043 0.710714 3.53914 1.08579 3.91421C1.46086 4.28929 1.96957 4.5 2.5 4.5ZM2.5 17.5C2.10444 17.5 1.71776 17.6173 1.38886 17.8371C1.05996 18.0568 0.803617 18.3692 0.652241 18.7346C0.500867 19.1001 0.46126 19.5022 0.53843 19.8902C0.6156 20.2781 0.806082 20.6345 1.08579 20.9142C1.36549 21.1939 1.72186 21.3844 2.10982 21.4616C2.49778 21.5387 2.89992 21.4991 3.26537 21.3478C3.63082 21.1964 3.94318 20.94 4.16294 20.6111C4.3827 20.2822 4.5 19.8956 4.5 19.5C4.5 18.9696 4.28929 18.4609 3.91421 18.0858C3.53914 17.7107 3.03043 17.5 2.5 17.5Z" fill="#DBD1D1" stroke="#DBD1D1"/>
</svg>
