<svg width="24" height="17" viewBox="0 0 24 17" fill="none" xmlns="http://www.w3.org/2000/svg">
<path d="M23.1989 6.01946C23.1989 4.68317 22.6681 3.40159 21.7232 2.45668C20.7783 1.51178 19.4967 0.980957 18.1604 0.980957H5.28557C3.94928 0.980957 2.66766 1.51178 1.72276 2.45668C0.777858 3.40159 0.24707 4.68317 0.24707 6.01946V11.9471C0.24707 13.2834 0.777858 14.565 1.72276 15.5099C2.66766 16.4548 3.94928 16.9856 5.28557 16.9856H18.1604C19.4967 16.9856 20.7783 16.4548 21.7232 15.5099C22.6681 14.565 23.1989 13.2834 23.1989 11.9471V6.01946ZM15.6234 9.45749L9.84984 12.3146C9.62459 12.445 8.85396 12.3146 8.85396 12.0182V6.14985C8.85396 5.88904 9.63645 5.72306 9.8617 5.85347L15.3862 8.86473C15.6234 8.95957 15.8605 9.29152 15.6234 9.42193V9.45749Z" fill="white"/>
</svg>
