<svg width="1994" height="553" viewBox="0 0 1994 553" fill="none" xmlns="http://www.w3.org/2000/svg">
<path fill-rule="evenodd" clip-rule="evenodd" d="M0 483.425L83.0833 460.633C166.167 437.842 332.333 392.258 498.5 322.683C664.667 253.108 830.833 161.941 997 184.733C1163.17 207.525 1329.33 345.475 1495.5 334.679C1661.67 322.683 1827.83 161.941 1910.92 80.3709L1994 0V553H1910.92C1827.83 553 1661.67 553 1495.5 553C1329.33 553 1163.17 553 997 553C830.833 553 664.667 553 498.5 553C332.333 553 166.167 553 83.0833 553H0V483.425Z" fill="#01BBD6"/>
</svg>
