<svg width="22" height="24" viewBox="0 0 22 24" fill="none" xmlns="http://www.w3.org/2000/svg">
<path d="M2.11161 21.5828C-0.741417 18.7914 -0.688243 14.2899 2.17929 11.5086L12.4215 1.57425C14.5853 -0.524659 18.1027 -0.524844 20.2667 1.57425C22.4098 3.65289 22.4124 7.00669 20.2667 9.08778L11.3386 17.7392C9.8808 19.1531 7.49906 19.1334 6.066 17.693C4.68539 16.3053 4.72968 14.1059 6.1369 12.741L13.1556 5.94237C13.4575 5.65003 13.9521 5.64503 14.2604 5.93121L15.3766 6.96738C15.685 7.25361 15.6902 7.72264 15.3884 8.01499L8.37045 14.8129C8.12963 15.0465 8.11478 15.4347 8.33881 15.6599C8.55228 15.8744 8.88788 15.878 9.10482 15.6675L18.033 7.01614C18.9907 6.08725 18.9907 4.57492 18.0325 3.64552C17.0955 2.73678 15.5932 2.73631 14.6558 3.64552L4.41356 13.5798C2.71615 15.2263 2.68998 17.8914 4.35541 19.5208C6.01605 21.1457 8.70038 21.1477 10.3641 19.5341L18.7655 11.3852C19.0671 11.0926 19.5617 11.0873 19.8703 11.3733L20.9873 12.4088C21.2958 12.6948 21.3015 13.1638 20.9998 13.4564L12.5984 21.6053C9.68944 24.4268 4.98402 24.3933 2.11161 21.5828Z" fill="#898989" fill-opacity="0.58"/>
</svg>
