<svg width="13" height="13" viewBox="0 0 13 13" fill="none" xmlns="http://www.w3.org/2000/svg">
<path d="M6.06687 0.889648C4.8687 0.889648 3.69741 1.24495 2.70116 1.91062C1.70492 2.57628 0.928493 3.52242 0.469973 4.62939C0.0114527 5.73636 -0.108569 6.95444 0.125182 8.12959C0.358934 9.30473 0.93591 10.3842 1.78314 11.2314C2.63038 12.0786 3.70988 12.6556 4.88503 12.8894C6.06018 13.1231 7.27822 13.0031 8.38518 12.5446C9.49215 12.0861 10.4383 11.3096 11.104 10.3134C11.7697 9.31715 12.1249 8.14588 12.1249 6.94771C12.1249 6.15215 11.9682 5.36439 11.6638 4.62939C11.3593 3.89439 10.9131 3.22656 10.3506 2.66402C9.78806 2.10148 9.12018 1.65524 8.38518 1.35079C7.65019 1.04635 6.86243 0.889648 6.06687 0.889648ZM6.06687 10.8244C5.30065 10.8221 4.55232 10.5927 3.91636 10.1653C3.28041 9.7379 2.78538 9.13163 2.49378 8.42306C2.20218 7.71448 2.12709 6.93539 2.27801 6.18417C2.42893 5.43295 2.79905 4.7433 3.34169 4.20232C3.88432 3.66134 4.57511 3.2933 5.32678 3.14467C6.07846 2.99605 6.85731 3.0735 7.56499 3.36727C8.27267 3.66103 8.87746 4.15792 9.30291 4.79518C9.72837 5.43244 9.95544 6.18148 9.95545 6.94771C9.95231 7.97696 9.54122 8.96298 8.81232 9.68966C8.08342 10.4163 7.09613 10.8244 6.06687 10.8244Z" fill="white"/>
</svg>
