<svg width="24" height="20" viewBox="0 0 24 20" fill="none" xmlns="http://www.w3.org/2000/svg">
<path d="M23.5547 2.77553C22.7976 3.10181 22.0001 3.3251 21.1836 3.43944C21.563 3.43944 22.1083 2.7044 22.3692 2.43173C22.712 2.01822 22.9735 1.54356 23.1398 1.0328C23.1398 1.0328 23.1398 0.93796 23.1398 0.91425C23.12 0.902804 23.0974 0.896784 23.0745 0.896784C23.0516 0.896784 23.0291 0.902804 23.0093 0.91425C22.1426 1.37282 21.2229 1.72321 20.2707 1.95752C20.2423 1.97542 20.2095 1.98492 20.176 1.98492C20.1424 1.98492 20.1095 1.97542 20.0811 1.95752C20.0082 1.86891 19.9289 1.78569 19.844 1.70855C19.4499 1.36706 19.001 1.09451 18.5162 0.902392C17.8716 0.634437 17.1734 0.520768 16.4771 0.570445C15.8016 0.619667 15.1431 0.805869 14.5419 1.11771C13.9406 1.42954 13.4091 1.86048 12.9798 2.3843C12.5361 2.93219 12.2202 3.57209 12.055 4.25745C11.9247 4.90697 11.9247 5.57591 12.055 6.22543C12.055 6.33213 12.055 6.34398 11.9602 6.33212C8.33963 5.97321 4.9812 4.2834 2.53526 1.59C2.42856 1.45959 2.36926 1.45959 2.28627 1.59C1.78785 2.49215 1.59688 3.53213 1.74235 4.55249C1.88781 5.57285 2.36176 6.51805 3.09242 7.24499L3.67332 7.75477C3.04222 7.69929 2.42709 7.5264 1.85949 7.24499C1.74094 7.17385 1.69349 7.24498 1.68164 7.33982C1.6642 7.51722 1.6642 7.69591 1.68164 7.87332C1.79382 8.72256 2.12952 9.52677 2.65443 10.2037C3.17934 10.8807 3.87465 11.4061 4.6692 11.7263C4.86211 11.8143 5.06521 11.878 5.27383 11.916C4.68076 12.0092 4.07674 12.0092 3.48367 11.916C3.35326 11.916 3.30585 11.916 3.35327 12.0819C3.65776 12.8818 4.16186 13.5903 4.8176 14.1403C5.47335 14.6902 6.25889 15.0631 7.09952 15.2236C7.27094 15.235 7.4413 15.2587 7.60929 15.2947C6.88181 15.9543 6.0019 16.4228 5.04857 16.6581C3.80305 17.1008 2.47688 17.2706 1.16 17.156C0.946605 17.156 0.911027 17.156 0.851751 17.156C0.792474 17.156 0.851809 17.239 0.911085 17.2983C1.1719 17.4643 1.44456 17.6184 1.71724 17.7725C2.54236 18.2132 3.4129 18.563 4.31355 18.8158C6.62487 19.5057 9.07618 19.581 11.4255 19.0343C13.7748 18.4875 15.9409 17.3375 17.71 15.6978C18.9825 14.316 19.9662 12.694 20.6034 10.9269C21.2406 9.15985 21.5185 7.28331 21.4207 5.40741C21.4207 5.26515 21.5986 5.18216 21.7053 5.09917C22.4013 4.55732 23.0161 3.91855 23.531 3.20232C23.6104 3.09649 23.6522 2.96712 23.6495 2.83481C23.6495 2.83481 23.6495 2.73997 23.5547 2.77553Z" fill="white"/>
</svg>
